<mxfile host="app.diagrams.net" modified="2021-06-08T20:54:10.294Z" agent="5.0 (X11; Linux x86_64) AppleWebKit/537.36 (KHTML, like Gecko) Chrome/89.0.4389.114 Safari/537.36" etag="HSwwqSh55ho9szDUBlRF" version="14.7.6" type="github">
  <diagram id="XWCxHODc1o744UBxVGZj" name="Page-1">
    <mxGraphModel dx="2743" dy="1277" grid="1" gridSize="10" guides="1" tooltips="1" connect="1" arrows="1" fold="1" page="1" pageScale="1" pageWidth="1169" pageHeight="827" math="0" shadow="0">
      <root>
        <mxCell id="0" />
        <mxCell id="1" parent="0" />
        <mxCell id="vPaj5wobRW8Uo8GPUC8b-34" style="edgeStyle=orthogonalEdgeStyle;rounded=0;orthogonalLoop=1;jettySize=auto;html=1;exitX=1;exitY=0.5;exitDx=0;exitDy=0;entryX=0;entryY=0.5;entryDx=0;entryDy=0;" edge="1" parent="1" source="vPaj5wobRW8Uo8GPUC8b-32" target="vPaj5wobRW8Uo8GPUC8b-13">
          <mxGeometry relative="1" as="geometry" />
        </mxCell>
        <mxCell id="vPaj5wobRW8Uo8GPUC8b-32" value="" style="shape=dataStorage;whiteSpace=wrap;html=1;fixedSize=1;" vertex="1" parent="1">
          <mxGeometry x="-6" y="300" width="280" height="220" as="geometry" />
        </mxCell>
        <mxCell id="vPaj5wobRW8Uo8GPUC8b-37" style="edgeStyle=orthogonalEdgeStyle;rounded=0;orthogonalLoop=1;jettySize=auto;html=1;entryX=-0.044;entryY=0.487;entryDx=0;entryDy=0;entryPerimeter=0;" edge="1" parent="1" source="vPaj5wobRW8Uo8GPUC8b-4" target="vPaj5wobRW8Uo8GPUC8b-8">
          <mxGeometry relative="1" as="geometry" />
        </mxCell>
        <mxCell id="vPaj5wobRW8Uo8GPUC8b-4" value="" style="aspect=fixed;html=1;points=[];align=center;image;fontSize=12;image=img/lib/mscae/Database_General.svg;" vertex="1" parent="1">
          <mxGeometry x="770" y="374.2" width="53.2" height="70" as="geometry" />
        </mxCell>
        <mxCell id="vPaj5wobRW8Uo8GPUC8b-8" value="" style="aspect=fixed;html=1;points=[];align=center;image;fontSize=12;image=img/lib/mscae/Chart.svg;" vertex="1" parent="1">
          <mxGeometry x="930" y="361.65" width="100.73" height="96.7" as="geometry" />
        </mxCell>
        <mxCell id="vPaj5wobRW8Uo8GPUC8b-23" style="edgeStyle=orthogonalEdgeStyle;rounded=0;orthogonalLoop=1;jettySize=auto;html=1;exitX=1;exitY=0.5;exitDx=0;exitDy=0;" edge="1" parent="1" source="vPaj5wobRW8Uo8GPUC8b-13" target="vPaj5wobRW8Uo8GPUC8b-14">
          <mxGeometry relative="1" as="geometry" />
        </mxCell>
        <mxCell id="vPaj5wobRW8Uo8GPUC8b-13" value="" style="shape=image;imageAspect=0;aspect=fixed;verticalLabelPosition=bottom;verticalAlign=top;image=data:image/png,iVBORw0KGgoAAAANSUhEUgAAAicAAAEPCAIAAAAWJfNMAABvnklEQVR42uy9d1gUV/v/z2xjd1lg2WURpEsvgiAgChqwgdiSIJJYY429xBKieaJPEstjLFFjRbFHFGOJUSz0pnRRQTpLr0tblu07v+tiPj++XhayM+wuC57Xn8qZnTNz5rzPfZ/73DcBhmENAAAAAABUAg48AgAAAAAA1QEAAAAAUB0AAAAAAIDqAAAAAACoDgAAAAAAQHUAAAAAAFQHAAAAAEB1AAAAAAAAqgMAAAAAoDoAAAAAAADVAQAAAIBaQFDDe4J76O7urqura2ho4HA4XC6Xz+f/n07icGQymcFgsFgsIyMjAwMDEomkoaEBQRB4nQAAAABUB4XYCASCN2/e5OXlvXnzhs1mt7W1cbnc7u5uoVAoFouRP4MgiEgkUigUGo2mra1tYGBgaWnp6Ojo6upqYWGBKBAAAAAAgOp8VGwkEklRUVFcXFxGRgabzW5sbGxpaens7OzNh/1+Yuxey4ZIJOrq6iJ2j52dnU8PpqamUA/gBQMAAIBaAQ1spQOxWJyWlnb37t2srKzKysrGxkaRSISxJxCkpaU1fPhwGxubCRMmBAUF2dnZEYlE8I4BAAAAqI6GVCrNzc2NiIh4/vx5RUVFR0eHou6EQCAYGBjY2dlNnTo1ODjYysoKhwNBEwAAAPCpqg4Mw21tbSdPnrx3715RURGXy1XGr+DxeAMDAzc3twULFgQGBurp6YGXDQAAAJ+c6sAwnJKScuDAgczMzKamJmX/uqamppmZ2YwZM5YtW+bg4ACMHgAAAPiEVEcikYSHh588ebKoqKg3Jk3pPYQgPT29MWPGbNiwwc/Pj0wmg7cOAAAAQ1x1YBjm8/k7d+68detWbW2t6t16ZDLZ0dFx06ZNs2bN0tXVBS8eAAAAhrLqcDic77///vbt221tbQPVVQKBYGlpuX379jlz5tDpdPDuAQAAYAiqDgzDra2ta9eujY6O5nK5AxuojcPhLCwsfvjhByA8AAAAMDDzsLJ/gM/n79ix48GDBwMuORoaGjKZjM1m7927986dO52dneD1AwAAwJBSHRiGf/nll6ioKB6PN+CS0ys8lZWV//vf/xITE4VCIRgBAAAAMERUB4bhy5cvX7x4sb29XU0kp1d4SktL9+3b9/LlS7W6MQAAAACqg11yXr16tX//fhUcysGAVCrNzs4+c+YMm80GwgMAAACDXnVEItGOHTvKy8tlMpl69lwkEt24cePJkydKSo4AAAAAABWpDgzD586de/78ucqOgmKDx+MdO3assLAQmDsAAAAwiFWnpqbmzJkzbW1t/ZzNobcgEomMHt7+x/6rY1FRUVRUVENDAxgKAAAAoAIIyjB0zp8/X1VV1R/fGgRBOBxu+PDhAQEBEyZMcHZ2NjIyIhAISCh2ZWVldnZ2YmJiSkpKS0tLf7RNKpVeunQpMDCQxWIh1wcAAACA8lD8KdGqqqrAwMCioiLMqkMikUaOHLlu3bpp06bRaDQikUggEHoTd8IwLJPJxD1UVVXdvHnz6tWrFRUVmDuCw+G+/fbbnTt3GhsbgwEBAAAAg0l1YBjeu3fvwYMH29vbsZk4BgYGW7ZsWbZsmba2NoFA6NuNhshPcXHxyZMnr1+//nb5UVQMGzbs3r17Xl5eoPwoAAAAKBX87t27FXg5Pp8fFhaGLRyZQCC4uLhERESEhIRoaWnh8fh/1QAIgggEAovFmjBhgqGhYX5+Pja16+7utrCwcHZ2plAoYEwAAACA8sAp1tB59OhRXV0dBt8aIjmRkZG+vr5EIhGVzYHD4XR0dJYtW7Zv3z5HR0cM9goMww8fPmxubgbBbAAAADBoVEdDQyM6OrqjowP1TeBwlpaWkZGRtra22AqvIUFuwcHB27ZtMzc3x3CFzMzMqqoqiUQCxgQAAAAMDtXh8Xjp6end3d1oGzIYjD/++MPa2rqf2yoEAmHu3LnLly/HUEFHIpGkpaWBlKAAAAAwaFQnPT0dg6FDoVDmz58/ZcoUhezkU6nUkJCQadOmYbCZMjIyQJ4CAAAAGByqA8Nwbm5ud3c3qq0RHA5naGi4Y8cOBXbJxsYmICAArZ8NuX+gOgAAADBobJ2ioiI+n4+qiaam5sKFC1kslgJDliEI8vPz8/HxQXvNhoaGxsZGsLUDAAAAg8PWKS4uFggEqFpRqdSvvvpK4adkLCws3N3dGQwG2oalpaVouwAAAACAAVAdLpfb2toqlUrlb4LH4+3s7Ozt7ZXRsZEjR9rZ2aHVs8rKSqA6AAAAMAhUp6mpCW2GaQKB4Ovrq6SOWVpampqaom3V0tICPGwAAAAwCFSnvb0dlaGD2DpKMnQ0NDQMDQ1ZLBYG1VHz6gwAAAAAVEcDhmEul4tWdXA4nPISblKpVBqNhsfjUfVCKpXCPYCRAQAAAGpt6/B4PLSqg2iD8vqmra2tpaUF3jEAAAAMQdWRJ1nn+2AQKvkRi8VgkwYAAACGoOpAEKSnp4e2KhoMw83NzUrqmEQiaW9vR5WeByklp5AqpQAAAABQrq1DpVLRJqGRSqXl5eVK6lhTUxOHw0HbSktLC1v6UQAAAACoVHWGDRtGJBLRqk5GRoaStu5ramoaGhrQtmKxWGh7AQAAAIABUB0Wi0Wj0VAZChKJJDMzs62tTeG9gmG4qKgIQ3E5Y2NjTU1NMCwAAABA3VUHqZGDasqGYbi1tTU6Olrh5k5nZ2deXl5VVRXahhYWFkB1AAAAYBCojoaGhrW1NdopWygUXr9+XbGZnmUyWVZWVmZmplAoRNWQQqGYmpqSSCQwLAAAAGAQqI67u7uWlhaqADCxWJyamhodHY2h6PXH4HA4jx8/fvHiBdqGDg4ODAYDRBMAAADAIFAdCILc3d3pdDrasOOurq5Dhw6VlZUp5DYEAsHTp08fPXqE1n6CIMjDw0NbWxuMCQAAABgcto65ubmdnR1aD5VUKs3Pz//tt9/q6+v7ucEjEomys7P//PPP/Px8tG3xeLy3t7eOjs7Avg/4LcDoBAAAQw+CYi83efLk5ORktMUCuru7b9y4YWxsvHLlSiMjI8yS8+LFixMnTsTFxWHw1xkbG48cOZJCoaheZoRCYVdXV3d3t0AgEPcgk8mIPZBIJCShHIVCQZVTDgAAAIa+6kAQFBAQcOrUKQ6Hg3be53K5x44dk0qlCxYssLa2Rru5wuPxcnJyTp06de/ePbT1TJE7nzx58rBhw1SzqSOTyXg8XmNjY3NzM4fDaWxsrK2tbWpq6ujo4PUgkUi0tLSoVKqWlpaBgcHw4cONjIyYTKa+vv6wYcOQNBAggQIAAAC2joalpaWPj095eTmPx0O75G9tbT1y5EhVVdXixYvd3NzodLo8DSUSSUNDQ1JS0pUrVxISErDVZKPRaAEBAUwmU9lmjUAgqK6urqioKCoqys3NLSgoKC8vb21t/VeR1tLSMjExsbe3d3V1dXJysrKysrCwoNPpwAACAACDC0ix+wcwDCcnJy9ZsoTNZmMLSyORSI6OjgsWLPDx8bGysmIyme8nRkPuWSwWNzQ05Ofnx8bG3rt3r6ysDFtfIAjy9/c/efKknZ2d8oybzs7O4uLiFy9epKamPnv2jM1mSyQStDeMPAd9fX03NzdfX18PDw9nZ2dDQ0OQTwEAAHyiqoOIwYoVK27evInB09ULlUr19PScMGGCi4vL8OHDGQyGlpYWkUiEYVgsFnd0dLS0tFRWVmZnZycmJhYVFYlEIsy/RaPRDhw4MG/ePF1dXWXYN93d3S9fvkxOTn769Gl6erqiDicRCAQ7O7tJPXh6ehoYGAC7BwAAfIqqA8NwSkrK0qVLy8vL+3MKB4IgPB7PZDLt7OzMzMwYDIampibipGpoaGCz2aWlpR0dHf28fwiCpkyZcuTIEQcHB4XvlIhEooqKiri4uDt37iQnJwuFQoU/bQiCHB0dp0+fHhgY6OHhQaPRwH4PAAD4tFQHCYYOCws7deoU2t0d1cNisQ4fPvzFF18otv4bUlw1KSnp1q1b9+/fb21tVWovCASCt7d3aGjo9OnTTU1N0ZacAAAAAJWB3717t8IvisPhRowYkZ6eXldXp8CkAwqHSCSGhoYuXLiQxWIpVnRra2uvX79+9OjRx48f98fTKCcymay6ujorK6u9vZ3BYBgYGADhAQAAn5DqaGho6OnpaWtrp6WlKTbHmmLx9PTcunWro6OjAndEJBJJcXHxqVOnTpw4UVpaqsru8Hi8vLy82tpaOp0OEsoBAIBPS3UgCLK2tuZyuS9evOjPVr+SgCDIzMzsu+++mzhxIpVKVdRlxWJxbm7ukSNHLl++3N7ervp+SaXS0tLS8vJyKpWKpAAH2zwAAOCTUB1ks8HBwaG2tragoEAqlapVtxkMxrJly+bNm6dA35pYLM7Jyfnf//4XFRU1sEJbW1tbWFiora1ta2sLCjcAAIBPRXWQs402NjaVlZVlZWXqs8Gjra0dGhq6evVqMzMzRZkCEokkPz9/z5499+/fV4eetra2FhUVMZlMW1tb4GoDAACfiupAEMRisaysrOrr6zGf4lS45AQHB69fv97Ozk5R2zkymayqquqXX365ffu2+ohra2traWmpubm5paUlCC4AAACfhOogwjN8+HAbG5uGhoaSkpKBFR5tbe05c+Zs3LjR2dlZURMxDMMdHR0HDhy4fPmyRCJRq7fb0tJSXV09atQoQ0NDUDcIAAB8EqrztvB0dXUVFxcP1B4Pi8WaO3fuunXrFCg5yFHQK1euHDp0SD0PJ9XW1nZ2do4bNw4cIAUAAJ+K6iDCY2Rk5OjoSCaT37x5gy1HZ39+3dbWdsmSJd9++629vb0CJUcqlWZlZYWFhdXV1annC4ZhuLy8XFdX18PDA6RrAyh8dPX93YFHBPjAwFCxy6upqenmzZuXLl3KyspSzS9SKJRx48bNmzdv2rRphoaGCvwSYBhua2tbtWrVrVu31LwIm7m5+cWLF319fcEGD0AhdHd3V1VV1dfXNzc3t7a2CoVC5GQeHo/X1dXV09MzNjY2MzMzMTEBQw4wwKqjoaEhFArj4+Nv3759584dDoejvBvA4XCWlpYzZsz48ssv3dzcFF6dWiKRXLt2be3atQrxrX1MDhXyfCAI+vzzz8+fP4+hxDgqRCIRj8eTP6SCTCZTKBSw5zRYLJuWlpbc3Ny8vLzy8vL6+noOh9Pe3t7Z2SkWi7u7u5GPjtYDi8UaNmyYmZmZra2ts7Ozk5OTjo7Ov449kUjU1dUl/5gH4weoDorhy2az4+Pj//7777i4OGXkLzAyMvLz8wsKCho/fryJiYnC8zHDMFxfXz9z5sycnJx+XkpTU9PU1NTZ2dnS0pLFYmlra+NwOIFA0NLSUlNTU1xcXFhY2NHR0c9fodFoly9fnjlzpvLWnjAMZ2Zm3rx5s6mpSc4mkydPnj59ej8rG/H5fOUVgUWOXoHoczabHRMTk5qa+ubNm/LycjkrN5JIpOHDh1taWtrY2IwePXrixInW1tZ9/H12dvb58+e7urrkvKtpPchZiwugJgyM8QtBkIWFxcKFC93c3AIDAx8/fpyWltbc3Nz/BNI4HM7ExMTX19ff33/s2LGWlpZKmo9kMtmdO3devnzZn7vV0dHx8PCYOHGis7OzmZmZgYGBrq4umUzG4XAikYjL5XI4nLq6uuLi4mfPniUkJNTU1GCOxeDxeCdOnJg4caIyCjr0UlVVhdQ6kvMJ6Orq+vn59Ud1qqqqHjx4sGrVqj7W0W1tbU+ePEEW4/837gkEJpNpYWFhaWlJJpP7aFtQUMDhcFxdXfX19eW5H6lUWlFR8fLly9LSUsQO0NLSYjKZlpaWo0ePNjc3710AwTB89epV5IUuXrz4/XsQi8WFhYXZ2dkkEsnBwcHNzQ25flVVVWJi4sc+FjMzM09PTx0dHUWtJNrb2+/evfv48eOsrKzKykqpVCr/dyoSidhsdmVlZUpKSlpamoaGhpWVVR9Pu7q6+tatWy0tLXJef9iwYf7+/mAeB6oj75xLJBLd3NwcHR3Hjh2bn5+fnp7+/Pnz/Px8DA4rCIL09PScnZ29vb09PDxGjhxpbm6uvPUvEi195swZzBpAIpFGjhwZGho6fvx4e3v79xdrmj3o6+vb2dmNGzfO398/ICDg9u3bsbGxbW1t2O45LS0tISFhxowZyq7EozIDGobhK1euXL9+PSQkBCkA+ME/a2pqOn78+NsWGOIIMjAw8PT0nDNnzsiRIz/YUCgUJiQkpKSkrFmzZuLEif96PxUVFXfu3ElJSSkrK2tsbOTxeHw+n0wmIx4nS0vLL7744uuvvyaTycjNHzhwQCgUQhC0ePHiD07Zz549O3TokLa29sKFC0eNGgVBkEQiKSgo2Lt378fuYeLEiVZWVopSnby8vEuXLj18+LC8vBzzwQCkLFZdXV1tbe2//iUCmJqB6igRTU1NFxcXJyen8ePHl5eXV1RU5OXlRUdHFxUVyXkFJpM5bdq0oKAg5EQki8VSwQZmbGzsmzdvsH0edDo9ICBg6dKlHh4eenp6/+rs1tTUtLGxMTc3d3Z2Hjly5OXLl8vLyzH8tEAgiIiICAwMHBr132AYbmxsvHjxYk1Nzb1795YuXdrHiruioqK+vv79xUpWVlZVVdXatWtHjx79fsnakpKS1NTUmJgYd3d3T0/PPrYGkSq6ERERsbGxDQ0Nby9HuntoamrKz8+XSqVffPEFmUxGXl9ZWZlAIPjYtoRMJmtraystLdXV1eVwOL0/xOVy+0gs6+DgIBaLFfJ4Hz9+fObMmfj4+M7OTqAEgKGjOsjHTyAQTHsYN26cp6dnQ0OD/KrDYDAmTpw4d+5clU2mMAxfuHABm6Gjp6f3xRdfbNy40dHRUX51hCBIU1Nz5MiRLBZLX1//+PHjRUVFaCcCGIaTkpLKysqUUcJuQPjrr78qKipgGD5//vxXX33Vd5EkGIYNDAwCAgKoVCqfzy8tLX39+nVzc/Pff//NYDCsrKz09PTe/nuJRJKWlvb8+fOOjo6UlJTJkyd7enp+8LnBMJyYmHj48OH4+Piuri4ymTyuhxEjRlCpVEQ50tPTc3Nz29vbZTLZOy+u7/f4sf+FYdjMzCwwMPCdW3Jxcem/ExWG4Tt37hw/fvz58+cqPucAAKqjaohEIpPJRMJd5JxV8Xi8pqamKtfvbDY7NTUVw+qPTqd//vnnW7Zssbe3xxZ4Y2hoGBoaSiAQDh06VFxcjLZ5R0fH/fv3bW1th0A8a3t7+6lTp5A97devX8fGxs6cObMPNUVOK69du9bAwEAikTQ3N8fHx58+fbquri41NTUnJ2fSpEnvuMtSUlIaGho0NDSysrIyMjJcXFwQ59g7FBcXnz59Oj4+nsfjmZmZrVy5cuLEiZaWlnp6ekQiUSAQcDicmpqaxMTE3NxcHA4n/9jueyFibW39/fffv9NlKpX6jnxikJzY2Nhjx449f/5cKBSCWRIwxFWn94tS0h8rxNDBFndHJpN9fHw2bdrUT1ODyWTOmTOnsbERmTHR3vz9+/c3b948BNxr//zzD2IQM5nM9vb2M2fOBAUF9a2mmpqaZmZmRkZGGhoa1tbWTCazuLj4ypUr9fX1hYWFb6sODMMZGRmpqakkEolIJHI4nNTUVH9/fycnp3euKRAI/vzzT0RyTExMtm3bFhISwmKxelcV1B5MTU3t7OzKysoUWLWWQqFYWFgoPG64sLDwxIkTmZmZQHIAygDEuWMhOjoa28p01apVTk5O/ZdJBoOxePHizz77DENxoLy8PPkjm9UWgUBw4sQJqVTq7Oy8ePFimUyWkZHx7Nkz+W0ICILodLqZmVnvMZG3/7eqqiolJaW6utrDwyMwMJDBYKSmpubm5r7jVoVhOC8vLy4ujsPhkMnkFStWzJkzx8DA4INKwGAwPpYhAv4Q8gswhlYfQygUXrx4MSkp6e2QPwBg6Ns66rzEFolESAwoKvT09AIDA/38/BTlCTQ1NV2wYMHr169fvXqFqiGPx8vIyDA2Nh68WzswDD969AgJW1++fPnkyZMvXLjQ2dl57tw5X19feZojfe/o6KisrERC2t4WAxiGs7Ozk5OTSSTSZ5995u3t3d7enpSUlJyc7OPjY2lp+fbVkpOTy8vLpVLpmDFjgoKCWCxW316+D/57bGzs+/+FbD710ZGWlpb3G7JYLBsbG2y1CmEYfvbsWUxMzIDUJAQA1QF8mPLycvnPE/TONebm5qGhoTQaTVG3AUHQ+PHjvb29Kyoq5D9Vh5CRkfH5558PXtWRSqXHjh0TCoUjRowIDQ3V0dGZOXPmlStX4uPjCwoKHB0d+0j0gCAQCIqLi2/evPn06VNkph4xYkTvn9XX1yNa4urqOm7cuLFjxyYmJqanpyckJEybNs3CwqL3+khdJSTAzM/Pz8zMDMOqAobh77777v17lkqlra2tfbQqKCh4v+Fnn322detWc3NzDA9WJpPdu3evvLxcfQp2AIDqADQQNwsqVwaNRvPw8HB2dlbsnWhra0+dOjUpKUn+eD+EFy9eDN5AWBiG4+Pjs7OzYRhevHixgYEBDMPLli2LjIxsaWm5cuXKvn37Pta2qKjoq6++IpFIMpmss7OzpqamqamJTCa7urp6e3u//XyQY5hIRKWOjo6Pj09MTEx+fn5aWtqYMWOQnSENDQ3kJC+Sv8DR0RHbIXkYhl+/fo2hIZfLfb+hpaUl5lK25eXlOTk5ysgVAgAA1cFOYWEh2iYsFsvPz08ZxaR9fX1NTU1LSkpQLU6R4LdeR9Og49SpU93d3QwGY8mSJUgXXFxcfH19ExIS7ty5s27dOhMTkw9O7kgM9Nv/qKmp6e/vv3r1agMDA+Rfmpubkbwv9vb2vr6+yIGqMWPGjB49+uXLl3FxcVOmTOlVHYlE0vvktbS0sGX1hiAoICDggyZdZWVlSUnJxxoaGBi4u7u/84/u7u7Y3GsaGhrPnz+vra1Vt3rzAKA6nzr/er76ffT09Dw8PJQxxSNO/PT0dFTr07q6OolEMhhziyEZFpKTk2Uy2fz584cPH44YbVQqdcWKFXFxcXV1dZGRkVu2bOnDyQb1QKPRnJycpk2bNnv27N5AdhiG8/PzExMTxWKxp6ent7c3EuWsr68/bty4hISE/Pz8zMxMT0/P980a5CAOhrcMQdDRo0ff//fu7u5r164dOnToY60cHR1///33d34RyYOA7fFmZ2ej9R4DAEB1lA7aYGU8Hq+vr29hYaGMm8HhcNbW1tra2qhURywWNzU1fdAgUH/Cw8M7OjqQY4zp6em9/448AT6ff/369aVLlzIYjPenaRsbm7CwMAaDoaWlRafTaTSavr6+np5e72ZMZ2fns2fPXrx4IZPJHjx4kJeX1xuN1tbWVltbKxAIYmJi/Pz8xo4di2TSo1AoiDJVV1fzeDxsW3fW1tbvy1VXV1ffyd+0tLRsbGzeaYh5ccPj8crKyjC41yAIolKpLi4uyDNvbm4uLi5G8tWCjAYAoDoKQCQSofqWSCQSi8VSXkW14cOHo/KoIOtxzK7/gSUvL+/JkydIQrDqHt75A6lUymaz//nnn4ULF74//+rq6k6cONHIyAjfw/vXLygoiIuL6+7uRnKKv59EBzkxmpOT4+rqqqWlRSKRrKysdHV129raUlJSpkyZ0nd2yz4mbmxqgbnh+yBhMmjjCKhU6urVq+fMmcNgMJBBLhaLuVzumzdv4uLinj59WltbC7QHAFSnX6A97EIkEpWaiZ1Op2PwlQ3GHWMYhi9duoSEdX1wtkVmNy6Xe+nSpdDQ0Pc30nA4HKmHD16fz+dnZmY+f/6812J4PzMbYhPExsaOHz/e1dUVgiBfX9/o6GgkrfXs2bONjY2Vl3ZWqc+2pqYGbeJdAoFw9OjRmTNnvh8v7uDgMGnSpA0bNsTFxUVFRaWnp4PSogCgOti/T7SrUaVWncLj8Z/C9wzDcGlp6Z07d8RisZub29mzZ98XDz6ff+jQoaioqIKCgqdPn06fPl3+JwPDcGFhYWxsLI/H8/HxWb9+vYODw/uG1LFjx65fv56SkvLq1StHR0cikThhwgQ3N7eSkpLW1tYDBw4MGzZs3Lhx75u2MAzzeLwXL154eXkpcEdNgSEh9fX1qFQHgqA5c+YEBwd/sFQgkpFh2LBhlpaW06dPT0pK+ueff4ZG2lkAUB1Vg7YYjFgs7uzsVN79tLW1YXCXKTAvi8q4evUqUoQpNDTUxcXl/eQ3YrH4q6++unXrVnt7+6VLl6ZPn47qNWVnZyclJREIBDc3t6CgoPcfEQzDfn5+aWlpJSUl8fHx3t7eVlZW2traK1asePPmTVZW1suXL7ds2bJjx46pU6e+07y2tnbXrl3t7e3nz59XbByHooSnsbERbT6C9evX6+rq9vHrOBxOV1dXW1vbxMRk2rRpn8gKCTDIVAexJNBmBFFlHDCBQECVvVEoFDY2NirvflpaWlBlBUaekvL2mZREc3NzZGSkQCCgUqlffvkl8hbe+Rsikejl5WVhYVFRUZGZmZmWljZu3Dg5R0VJSUlMTExnZ6eVldXo0aO1tLTebwhBkIeHh7W1dVFR0ZMnT2bNmjVixAgcDufh4bFz584ff/wxPz8/Ly9vzZo1Y8eO9ff3d3BwoNFotbW1ycnJcXFxbDbb1dX1/ZzTmGlvb8/IyHjHE0in083NzT+YpbRvOjo6UC1fLCwsHB0d5bHjcTicVg9ggwegRqqDDEeJRFJXV5eYmIgqywuXyy0uLq6urjYyMkLWv0qVH2NjY1R/j5wwr6mpMTU1Vcb9FBcXY7Clek+cDApgGL58+XJ9fT0Mw8hxmQ++YiSoLCgo6MSJEy0tLdeuXRs3bpyc7wg5iwPDsIODg5eX18eGkI2NjaOjY0JCQn19fUJCgru7u6mpqaam5tSpU4lE4u7du3Nzc5uamqKjoxMTE0kkEg6Hk0gkfD4fiVDojdvu//wLw3BWVtYXX3zxzq1OmTJl165db6dakF/D5E/3CUGQi4sLWqMNGDqAgVcd5NsTiUTPnz+Pjo5OSUkpLy8XCASo/MsNDQ1HjhyJiIgwMzMbM2aMn5+ft7c3EnKqjFGOIeC4ra3txYsXJiYmCr8fLpdbWFiINjTA0NBwcFU6QAIEEP/P119/3cd5WwqFEhIScuLECT6fHx8fX1ZW1nehfoSKioqYmBgOh6Orqztq1Kg+mhCJRE9PzxEjRrx+/To6OnrGjBnIYoJMJiPVDc6dO3f9+vXGxsb3U5mZmJh89dVXiBXytvD0PSo+FqWGBCK+b0a3t7djO+aJ1gizs7MD+zSAwaQ6MAzLZDIkz/zDhw+rq6sFAoFIJEKbbAZZqHZ2dnK53Pr6+tzc3AsXLhgYGPj6+oaEhIwdO1ZbW1uxc72joyPaJk1NTUjpaIU/xoyMjLq6OrRPzN7efnAtPDMyMkxMTJAdgsmTJ/cx2REIBEdHx7lz59bU1Ghra6enp1tbW1OpVA8PDw6H4+Dg8MHlOYfD4fF43t7e1tbW/v7+fUvymDFjAgICdHR0cDhcS0sLj8dDtnA0NTVtbW137dq1du3a58+fZ2VlIUVFSSSShYXFqFGjvLy8GAxGr+8LSXkgFos/9iLweLyxsfHYsWNpNJqZmRnyZzgcTl9ff+zYsX28XAzuNQyu2kGdQBbwaakOojfJycmnTp2KiYnh8/lCobD/2QZhGJb00N3d3dHRwWazb9265ezsvGDBgtmzZxsaGirqC7G3t0frIens7ExPT2ez2e+kK+5/lx88eFBVVYVBdQbXfDFhwgRPT0/EPYVU/OvjjxkMRnh4uFQqRQqwIjsQV65ckclkeDz+g2EU7u7uZ8+eRf6ATCb3fX0TE5Pdu3cjVaLJZPLbhhcOh9PW1qbRaMbGxrNmzeod1Xg8nkgkvr8XdffuXeTdffAXKRTKnDlzZsyY0dsRxNiaMGHCgwcP+rDGsIVuo7V1jI2NlRqcCQCqozB/Wlpa2t69e5OTkwUCgUQiUcYGo0wmE/bw/Pnz3Nzc8PDwZcuWBQcHGxgY9H+2RY4HdnV1yX/nMpmspKTk2rVrO3fuVNR0j5Qde/bsGYZNnT72LdSTPg7ZvA8y9b9jNOjo6PTRhNiDnAEpyN543z4xeW4YgqC+S01DEETu4YMX/9jwU9mbHXQBKQA1AadKyamqqlq0aNHUqVMfP37M5XLFYrGyY1qkUml3d/eLFy+2bNkSGhr68OFDZFO3P9fE4/FjxoxB26q5ufn+/ftIpmSFdE0gEEREROTn52O44IQJE8DQH8D5WlF3+0FUdgMMBgN42ABqqjowDIvF4j/++MPLyysyMpLP56s4qa1MJhMIBMnJyQsWLAgLCysvL8c29SNOvJMnT+bk5KC9AgzDr169Onz4sELqZcEwfPHixSdPnqA9TK6hoeHs7Dx8+HAwXwD6yQeDywGAgVcdxMSZOXPm1q1bm5ubleRSk1N72tvbT548OW/evKdPn6KqCY/EvMbGxnp5eW3evLmtrQ2bdfLkyZP9+/fz+fz+PAQYhh8+fHj27NnKykoMiRICAwNB6BFAIZYWeA4AtVMdGIafPHni6+v79OlTtEkzlYRUKs3MzFy0aNHly5eRtLjy9KK8vHzu3LlBQUF5eXmYhROGYQ6Hc/78+f/+97+ogoXeucijR49++umnvLw8DLcBQdDChQvBJjAAABhqqgPDsFQq/e2334KDg2tra9WqIC4Mw01NTRs3bjxy5EhDQ8PH5m4k1q61tXXXrl3u7u5//fWXQjaiOBzO6dOnN23aVFdXh+qxII7KS5cubd68GYOLD5EcT0/P93PjAwAAgMogKGlaFwgEW7duvXDhgkAgUMM0GDAM8/n8PXv2NDU1bd++3dzc/J2JGNkKunXr1q+//oqUkVdgLzo6Oi5cuPDq1auwsLApU6aQSKS+XV7IflJZWdnvv/8eFRWFzb+HqM7q1as/mEsGAAAABqvqwDDc1ta2bt26O3fuYPYjqQaJRHL69GmpVBoWFmZubo74nWQymVgszszM/Omnn1JTU5UUaCcWi58/f75gwYIJEyasXLly/PjxFAoFyY3YW9RS1oNUKi0sLIyMjIyKisKwkfO25FhbW8+ePXtwZSUAAABAdf5FcjgczsqVK6Ojo9VccnpvODw8XEND44cffjAzMxOLxWw2+8iRI3/++SeqEznYfprL5T58+PDx48empqa+vr4eHh5WVlYsFotEInV0dJSXl798+fLZs2f5+flIrFp/7gePx2/ZsmUwppoGAABAdfqaRsPCwp48eTIoJOdt4WEwGAsXLrx///4ff/yBdseln78ukUgqKirYbPbVq1c/+Af9/xUIglxdXefMmQMMHQAAMHRUh8/n7969OyoqCsMhkgEXnt9++y08PLyzs3OgYruV+qMUCmXPnj3/mksGAAAABo3qCIXC06dPX716dTCWRkYiqjkcztB8xwTC8uXLfXx8gKEDAACGiOpIpdKYmBikqIkC1+xIlXskbWJvlBcSky2RSEQikQpy6gx2EN8a2NEBAABDSnVKS0t//fVXDMmPPzhLEolEpPIgk8l0cHCwsrIyNjZmMBiI8AiFwqamppqamuLi4rKysra2Nh6Px+fzJRIJeJ3vP0wjI6NDhw59rAwaAAAADD7V6erqOnz4cH5+fj/nfQiCKBSKvr6+nZ3dtGnTPvvsM2dn577z2ra3t2dnZ8fExCQnJ5eVlXV0dAyiKAYVoKen9/PPP3t6eoL0wAAAYIiojlQqvXPnzqNHj/qznYNkdDcxMfHx8fnmm298fHyQkyvyzKqTemhpaYmLi7tx40ZGRkZLSwuqHGsKAY/H6+rqksnkhoYGdUjEgGTR37ZtW0hICJVKBQMdAAAMEdVhs9lnzpypq6vrz3xtZGTk6+u7YcMGb29vtAnnkT9msVhz584NDAx88uRJREREZmYm5jq+GOZ3Go1mbW0dEhJiY2Pz008/lZSUDLi7j8lkLlu2bOXKlX3XlQEAAIDBpDoikSgiIqKwsBDbJItUSHR2dl67du3XX39NIpH6s/eArO7nzJnj6el5+fLl69evV1RUKNXoQe7fzMxsypQp69evt7W1FYvF+vr633//fV5enurtrd67MjIyWr169Zo1a/T09MAQBwAAQ0R1kIIx0dHRra2t2CZHLS2tSZMm/frrr05OTora64YgyMLCYtu2bQ4ODn/88Ud2draSDg/h8fjhw4d7eXmtXbvWz88PuX8SieTj43PixIkff/wRW5XPfkIkEi0sLL777rt58+YBKwcAAAwp1REKhZcvX66oqMCW/JhOp8+cOfPw4cPKqEhIoVC+/PJLfX39w4cPx8fHK1Z4IAhisVi2trbLli1730QjEonu7u6nT5/ev3//gwcP6uvrVebo09HRGTVq1Pbt2/38/MBeDgAAGGqqU1BQkJKSImeJmneg0WgLFizYv3+/8iZHPB7v7++Px+NxOFxcXFxXV5dCLots4QQHB69cuZLFYn1QL3E4nIWFxf79+0eNGnXhwoXCwkJlGz1EItHExGTatGnr1q2zsbEBp0EBAMBQUx0kdA3bAR1NTc1Zs2bt2bNHBevx8ePHwzAsEokSEhL6E1QNQRCJRLKwsPjss8/WrFnj4uLyr/YZnU5funTpmDFjTp8+nZiYWF1d3c8Soh9+fwSCgYHByJEjFy1aFBQUpKurC87lAACAIag6tbW1KSkpGHZ0IAjy9fU9ePCgtra2CroHQdD48eM5PeTm5mKLesDhcKampm5ubkuXLg0KCpK//DOJRHJzczt48GBCQkJkZGROTk5tba2iMgYRiUQDAwNbW9tp06aFhoaamJiACqEAAGBoqg4MwwkJCdXV1WgPpkAQZGZmtn///mHDhqmshzgcLigoqLKysrGxsaqqCsMV3N3dly5dGhoaqqenh8GS0NbWnjFjxvjx4xMTE6Ojo3Nzc+vq6pBDRWhNH6T6Dp1ONzQ0HDFihL+//6xZs8zNzYFLDQAADGXVEYlEqampjY2NaBtqampu3bp19OjRKvYCkcnkuXPnvn79+saNG2gjCyAIWrx48ZIlS8hkcn9MLjqdPnv27KlTpxYVFSUkJGRmZrLZ7Obm5ra2Ni6X23eYNR6P19LSotPpTCbT0NDQ1dV1/PjxXl5eTCYT+NPUHJFIJJVKYRjW1NSU30oGAJD1vVAolMlkyCGNIePMwKI6lZWVBQUFGKbvcePGLV26dEAmSmNj45CQkFevXmVlZaG1MJ49e7Z48eL+qE4vFApl1KhRrq6u3d3dZWVlL1++LC4urqysbG5u5vfwtg8QSX5KpVJ1dXVNTEysrKycemAymTgcDuiNuk0QEomkvb29tbW1o6Ojq6uru7tbLBZ3dnYiRq2Ojg6ZTKZSqVpaWjo6OkwmU19fv59n1BR7/xj+HuTeVeDzFwgEbT1wudze8dPR0SEWixEPh6amJoVCodFoej0wmUw5c7gMBdVJT09vaGhAO+C0tLTCwsIoFMpAdXV8DyUlJe3t7ahGQ3JycldXF41GU+ChIi0tLZcekELaXC4XsXv4fP7/ezcEgo6Ojr6+PpPJ1NTUBF/mx+hPpnMcDkehUPoT2CISierr62tqaqqrq4t6YLPZ9fX1LS0t3d3db3uh8Xg8Yq2ampra2dmNHDnSwsLCrIc+fKRSqbS9vV1+bzaJRKLRaP9qVyE5c3vFAwm6QdXxtra25uZm+Q04JNGiuuU+5/F43d3d2CdQAkFXV7c/VgiXy63tgc1mFxUVlZWVVVdXNzQ0NDU1veMC0dTUZDKZRkZG1j04OTmZm5ubmZkZGRn18RZkMhmqGi6amprKPuqHRXVevHjR3NyMdp718fGZMGHCACozlUqdPn16SkpKZmYmqkmqpqamrKzMwMBASR4SAoGALF7eWTwCa+Zfkclk6enpjx8/xpb7Do/HW1hYTJo0CYPqIJVzy8vL8/Pzn/fw5s0bZP762OiSSqVNPbx69erhw4d4PN7e3n7s2LHjx493cnJycHAgk8nvv/SOjo6IiAj5g1Ds7OwCAwOZTGbfN//s2bPnz5/3Kg0Mw+Xl5ai+i+vXrxsYGMg/4VIolDFjxvj7+6uPecfhcP7666+6ujpsqxYqlTp69Gh/f38MqiOTyZqamkpKSvLy8lJTU7Ozs6urqxGZ+djNCIXCuh5ycnIQeXB1dR3bg7OzM3Jk4v1n293d/ccff8jfQUdHx9DQUOW+IxglXC539uzZaJ8ygUCIiopCHNwDCJfLXblyJdopBoKgw4cPCwQCGNAnMpksKirK2tpa/ge7bt26yspKbD8nlUpjY2N9fX2xfSF4PN7GxubgwYOtra1of5rH4+Xm5h4/fnzGjBn9310jk8mBgYGnT5/Oy8tDSka9TUlJibGxsfxXmzlzZnFx8b++qR07dqg4ewWDwfjpp59kMlkfN3b79m19fX35r7l169b6+nps46epqWn//v10Oh3b66NSqQEBAU+fPsXwmTQ1NcXGxv7444+enp79N/709PRCQ0OvXLlSWFj4zhwrk8kaGxvld8hDEBQcHNz3O+o/qG2dioqKlpYWtEtLMzMzPz+/Ad8No9FoY8eOjYuLKy0tRdUwJydHNSkGAPIvFePj48PCwrKzszEsVPF4vKWl5cqVK5cuXYoqW51MJqusrExMTLxz505ycnJ7e3v/9zYEAsHjx48TExMDAwPnzp07YcIE1dRD+mR3ZWAYbmlpOX/+/IEDBzo6OjA8By0tLX9//40bN06aNAlVw+7u7oKCgkePHt29ezc/P18hlVna2tpu3rz5+PHjGTNmzJkz57PPPnv73J4a7sAR0L4tNpuNNh8BBEFTp05Vk7RgXl5eJiYmZWVlqF5DQUEBsogAXi81kZzY2NidO3dikxwCgWBjY7NixYpvvvkGleR0d3fn5ubeuHHj7t27NTU1CvySYRjm8/l37959/vz5woULQ0JC3N3dwQEsJdHc3Hz+/PmDBw9iWzTQaLSAgIBNmzb5+vqiesUNDQ0JCQl//vlnUlKSYvOVwDDc3t5+7dq1tLS05cuXf/755w4ODmr7/FHbOtXV1RjOOU6ePFlNwkatrKzMzc1JJBKqnNBlZWVCoZBGo4EvVh0kJyYm5j//+Q82ySESifb29kiac/lXQsgeQGxsbERERGpqqpJSysIwXF9f//vvv79582b16tX+/v4KiZwEvP2Em5ubz507d+TIkba2NmySM23atG3btnl4eMjfSiqVlpSU3LhxIzIysri4WEkluGAYrqio2L17d35+/vLlywd2H12RqlNfX4/2k9PU1FSfhRuJRLKxsaHT6fKfN0I2hDgcjjISlQLQSs6TJ0927dqVlZWF4dMlEAh2dnbr16+fN28eKn96bW3t7du3z58/n5+fr2xfq0gkio6Orq2t3bx5c3BwMHjpirVywsPDjx49yuFwsDnWpk2btn37dlSSIxKJXr58GR4efufOHbRxWBiERyQSXb9+nc1mb926NSgoaCioTmtrKypfJARBhoaGLBZLffpsaWmJSnV6F6Hy75MDlDcd79u3Lzs7G4PkEIlEW1tbtJKDeJWvXr166dIltFFemJFIJHl5eb/88otUKnVzcwOvXiHTcVNT07lz544fP44t1J5KpQYFBW3fvn306NHytxIIBBkZGX/88Ud0dLSichDLszh79uzZjz/+KBAIfH191W0DD7XqdHR0oK1XZm1trVanGo2MjDD4ypqamsCZuAFELBbfvn17//79r1+/xmBtEAgEW1vbjRs3zp8/H1UQY2Vl5YULFy5evFhdXa3K/kql0rKysn379oWEhIjFYjAA+kmv5GD7kLW0tBDJQWvlZGRkHDp06PHjxyou8yiTyd68efPzzz+vWbNm0Ns675yflwdjY2P12RdFktNgOHSpkGglAGYr56+//tq7d++bN28wSA6yl7N+/XpUkoMYuNeuXbt8+XJNTY3qey2VSktLS0+dOtWfY4wAxMoJDw8/efJkc3MzhuSHNBotJCRkzZo17u7uqAxWJLz+yZMnA1JZWCaTFRUVHTx4cHCrDhLHhfY3sCXNVB7a2tokEgmD0wN8wAMlObdu3dq3bx9myXF1dd24ceOXX36Jysppa2u7e/fu5cuXKysrB6rvUqkU1cFywPs0NjaGh4efOnUKQ0YVxLH21Vdfbd261dbWFpXUFRUVnT179tGjRwoJj8YsPAM4ehVm62BA3bK5kEgkkIdxEElOVFTU//73P+QEHIZ37erqum3bttmzZ6NaavD5/Li4uIiICLRHuwBqZeU0NjaePXv2zJkzjY2NGKwcKpU6b968rVu32tjYoGpbU1Nz7dq1e/fuqWwvZxCBTnWwJZsbEOuy74kMHPkcLJJz8+bNAwcOvHnzBoOtSSQSXVxctm/fPnv2bCKRiGq2evHixYULF/Ly8pQU5ApQjZWDSA6SvwBtcwqFMn/+fAyS09HR8fDhw+vXrwM7dcBsHWxx8cqDy+WiTXSIbEeD4aJKeDxeZGTk0aNH+yM5YWFhs2bNQiU5SATBjRs3kpOT++lWhSCIQCAgGT8ZDEbv7qZAIGhtba2vr0cS0YL9QmVYOQ0NDWfPng0PD8fgWIMgiEwmL1y4cOvWrVZWVqjaSiSSrKysy5cvs9nsfg4eJIrB0NBQX1+fSqUi40cmk3V2djY3Nzc2Nvadt23oqA6FQiEQCKiCampra9VnwYgc4sVgfmHO1wTAJjkXLlz4448/ysrKMEz9BAJh5MiRO3bsmDlzJlrJ4fP5sbGxf//9d3+qvhIIBCsrq9GjRzs4OBgbG7NYLDqd3qs6QqGwvb29ubm5qqqqoKAgOzsbW71BwMdAJOfcuXPYMntqaWktWbJkw4YNGA5LVFZWRkVFZWVl9ef+dXV1R44cOWrUKGtrayMjIz09PQqF0qs6XV1dra2tDQ0NZWVlL168ePnyJY/HG0TaQ8DwODQ1NVGpTmlpKZJOTk1m7fr6egzOVgMDA6A6qqGrq+vChQvHjx8vLy/HtpczZsyYzZs3z5gxA63kwDD8+vXrO3fuYF6o4vF4Z2fnqVOnenl5OTs7m5mZfTCTNEJnZ2dFRUVhYWFGRsY///xTWlqqsrnD1dU1JCSkd6Mbqeghf6geBEGBgYGolmJaWlojR45UjZVz5syZ8+fPY5AcZC9n3bp1q1evNjU1xbBaSk5O/ueffzB4U5Bf19XV9fHxmTRpkpubm62tLYvF+piXRSqVNjQ0FBcXv3r1KiYmJiEhYbBoD2rVYTAYZDJZ/lkbGQTNzc3qU1ejoqICVYkdZDSoJiEjoNfKwSY5RCLR29v7p59+mjBhAlrJQTzy8fHxaWlp2L5eBoMxa9as2bNnjxs3Tl9f/18PDOjq6o7qwc/Pz8fH5++///7rr7+UlG7nnfHs7+/v6ura64SAYXjDhg21tbXyd3zFihW2trbyH4rA4/EqCGdFrJyIiAhUfemFTCZv2LBh/fr1RkZGGASvvLz87t27tbW1GO4ch8O5uroGBwdPnTrVycnpX+MtCQSCSQ8+Pfj7+1+5ciUvL0/9hQe16hgZGWlpabW0tMjfRCgU5uTkmJmZqUPkmEgkQlvYDYIgbW1tUC5aZVbOiRMnsEkOgUAYO3bsrl27MCc4LygoePz4MdpFCTJIbGxskMSdI0aMQCt4hoaGX3zxhbOzs729/cmTJ7HNmKhg9dA7XcIwjPbotKWlpb29vfqEg/ZaOf2RnM2bN69bt87Q0BDb6H327FlycjKGtmQyeerUqYsWLfLz80ObeUtTUxPx5To5OYWHh9+9e1fNo6VQq46pqam2tjbaVjExMTNnzlSHAVpWVlZZWYnW/rWysgLVPFVg5URERJw8eRLbXg4ejx87dux///vfCRMmYJOczs7OtLQ0DDXONTQ0XFxc1q5dO3v2bBaLhW11gsPhbG1tV61aZWBgsGfPnoqKCpU9eQw3jDRRq3UYYuVcuHABWzpwMpm8ZcsWzJKjoaHBZrP/+eeftrY2tA0pFEpwcPCqVavc3d2xVVtGyhNPnTrVyMiIxWKFh4ers/AQ0PbNwsJCV1cX7RrkyZMnnZ2dqOo1KYmMjAwMg9LR0XGQligfLHA4nPM9lJeXY5acn3/+GbPkIPXTEhISMKSgd3Z23rRp0+eff06n0/s5+9Pp9NDQUDwev3v37qqqKhDeJs+L67VyMEuOtrb2xo0b165dO2zYMGy3IRAIXr58mZKSgvbXyWRycHDwxo0bXVxcMJxef2f8jBw5ctu2bTAMnz17Vm0HD+rv09LSUh6H9TtUVVUlJCQMeCQbYgLX1dWhbeju7g4OlipVck6ePHnq1ClsVg4Oh/Pz89uzZw9myUHyvL169So9PR1tQ2Nj42+//XbWrFn9lJzeiYNGowUHB2/fvh2DU+HTpFdyqqurMUwyurq6u3btWrt2raGhIeaVZUNDQ3JyMlpDB4fDTZ48+dtvv+2/5PSOH0tLy61bt06fPl1tV8moP1EajWZlZYX2e5BKpefOnRvYJIYwDGdkZLx48YLP56Nt6+npqZrzOm/Xef2kJCciIqK6uhqDWwCHw02fPn3v3r2+vr79SfdXX1+fmZnZ2tqKqhWVSp0/f/7s2bNRVYeT5ysLDg5evnw5MK//9XtpaGg4ffo0ZiuHTqfv2rVryZIlmK0c5Daqq6uTkpLQKoSLi8uiRYvc3d0VIjm9lx0xYsSPP/44YsSIIVJfR0NDY9SoUSwWC1VFURiGU1NTk5KSJk+ePFAPoru7+8GDB0hJeVQNTUxMrKyslJfAVCKRcLnc5ubmtra2txWRQCDo6Ojo6+szmcyhuquESM7Tp09ramowSA4EQUFBQb/88ourq2s/74TNZmOo2TNx4sQ5c+YoPL4RgiB9ff0lS5akpqZiML8+NSvn4cOH/ZGcRYsW9TO4jsfjFRQUlJeXo/31OXPm+Pv7o0oPKOdSzN3dffv27WvXrlXDBJJYVGfMmDGGhoZoi0DzeLz9+/f7+Pgo/BHLSXIPGMpvjx8/nkajKXBagWG4u7u7rKzs5cuXxcXFlZWVzc3N/B7eHiI4HI5EIlGpVF1dXUT5nHpgMplqVTmiP88hMTGRz+d3dnZik5wZM2b8+uuv/T8FIpFI2Gx2YWEhqlZGRkYhISFOTk7KsIPxeLyVldWaNWtyc3OxHf74FIiLixOJRNiyn9Dp9N27dy9YsKD/8dzNzc2ZmZloX5Ofn9/06dOZTKZSZnYC4fPPP7979+6jR48GfX0dDQ0Nc3NzR0fHFy9eoDprCcNwWlpaRETE2rVrVT9j1tbWRkVFFRQUYHgBBgYGinptfD6/qKgoISEhMzOTzWYj9g2Xy+07VwIej9fS0qLT6UhuFVdX1/Hjx3t5eQ2BYG4Me2xvS87evXudnZ37fxutra1FRUWokhFAEBQQEDB27FjlraLIZPKEHmJjY0FYwQepr6/H1pBOp//3v/+dP3++QgoEt7S0oD0oY2hoGBAQYG9vr6RPGIIgBoOxfv362NhYdVu1YFEdEonk4+MTGxuL9oS/UCg8ePCgt7f36NGjVTldCgSCmzdvxsTEYDh/B8Pw3bt3u7q6Vq5ciTmmAIbhjo6OhISEhw8f5uXl1dXVtbS0CIVCOYepVCrt7KG6uhqHw2VkZNy/f3/EiBH+/v6zZs0yNzf/1HLEQRA0c+bMPXv2ODk5KcTkamhoKCwsRDVrsFisSZMmmZmZKbWbw4YN++abb+Lj40G+WgU+VSMjo//85z8hISEKkRyZTNbU1FRUVITqHry9vb28vMhksvJ6isfjPT09fXx8EhIS1GrVQsD22vz8/C5cuFBRUYHKDw7DcFVVVVhY2NWrVzEHxWMYE0j+V8zLajabHRkZmZubO2PGjBUrVgwfPhzVSOVyuQkJCZGRkTk5OTU1Nf3JfA7DMFJwhcPhFBcX5+Tk3L9/f9q0aSEhIaampp9IlB0EQYsXL96yZYuTk5Oi1i4tLS1lZWWomnh6ejo5OSlwE/hj5o6Hh4ednV1BQQEQDIVgaGi4d+9eJOZQIeOHx+Ox2WxU37WWlpa3tzeqgj3YvhRtbe2vvvoqISFh0Ns6SLSor6/v69evUSUpQObNlJSUrVu3njp1SgWBoUh2qfDw8FevXvVnV62rqysnJweJ/164cOHXX39NoVD+dciKRKL8/PzTp08nJiZWV1fz+XwFrjjEYnFtbW1jY2NRUVFsbOyiRYuCgoJ0dXWHdtQTBEHLli37/vvvFRuf09bWhrZaqLe3t4WFhbKfNgRBTCZz0qRJb968AU62/jN8+PC9e/d+/vnnOjo6inp3nZ2d5eXlqN6OjY2Ns7OzCna4iUTipEmT6HQ6hrOrygOH2Xb74osvzMzMsJXb+fvvv3fu3KmCurzJycmHDx9OSUnpfzk/GIabm5uTk5N//vnnr7/+OiYmpu9x1t7eHhERsWrVqsjIyKKiou7ubmXMGhKJpK6uLi4u7scff9y5c2dhYeEQrnmKSE5YWNiIESMUGFIoEolaWlpQHQ41MDCwtbVFe1waGzQazc/PDwhG/zEyMlK45MAwzOPx0KYMt7e3t7KyUsECEVm1eHl5qdViFPun6+jo6Ovri+3D6+rqunr16urVqzkcjpJWcFKpND4+/rfffsOw/9QHMpmsurr60aNH69evX7NmzQfDE2QyGZvNDgsL27NnT3Z2Noaz7hjsHjabfe3atdWrVz958mRIltnvtXIsLS0VG8Xe1dXV2Ngo/8YJknJt+PDhygumfxsSiWRtba0OeT0Gu5Wzb9++2bNnK1ByEHg8Htp0nyNGjDAxMVHNV0MikcaOHatW7wL7Z6Opqblo0SJLS0sMrxApcnP79u1ly5bl5+crXHj4fP7t27d3794dHx+v8Ay+MAyLRKKioqJr167NmzfvwIEDra2tvV0Qi8U5OTmrVq26fv06tjMomO+qo6MjLS1t06ZNly9fRhsgrv7o6OgsXLjQwsJC4XN9V1dXc3MzqiaWlpa9qTNVMHFoa2tjKPQCeBv/HpThghYIBKjGD51ONzY2VlkOfgKB4OLiMkRUB8n5M23aNAaDgdkyffz48ZIlSy5duiR/QNe/XpbNZv/2228//fRTenq6UpPGc7ncV69eHT58+Msvv7x27Zqwh9TU1LVr12JL56UQo6e0tPSXX345duzY21o4BODxeCdPnuRyuQrvlEAgQCvSxsbGCsl/I+eHpqmpqbbnzAcLsbGx6enp/fe0f/CjQxVzz2KxVHnmgUAgoK3ArfRb6qftv3Tp0sTExPT0dAzbCTAMCwSC3Nzc//znP48fP96wYYO3tzfmRLYwDHd2dj558iQiIiIzM7O9vV0FdgYSNNna2orU1ZgwYcLp06dLSkoGcHMFhuG6urpjx47xeLzt27djWxOoIRKJ5J9//nF0dNy+fbti401FIhFanySdTlflYWdNTU1jY2OgHP2hsbFx9+7d5ubm7u7uij1pIBQKUSVSotPpOjo6qjMscDgGg6Gjo6M+/o/+Pn0LC4tvv/22uroacwleqVRaW1t779697OxsHx+fb775xsfHR/4Ez8jKt6WlJS4u7saNGxkZGchRGBVPiDU1Nc3NzUlJSRwORx3KdXM4nDNnztDp9DVr1qhyiCvb3Dl69Kidnd2XX36JoWJbH0MI7SvT09NTpeoQCIQhs3oYwNVYUVHRDz/8EBERgS0Mqo+lJ6pNQS0tLRXnZ8Hj8TQabeioDhLMlpKScv36dcx15mEY5vP5paWltbW1cXFxdnZ206ZN++yzz5ydnfueXNrb27Ozs2NiYpKTk8vKyjo6OpRhQctvtw3Ur3/wftrb23/77TcWi/X1118PVBYihdPW1vbDDz/Y2NiMGjVKURs8QqEQ7dDF4/GqCSXo/TnFZhf9NJFKpampqfv27du7d+8AqjiuBxWrjpGREbYKp+qoOkhk57Zt2169epWZmdkfzxKSnay6urqhoSErK+vw4cNMJtPe3n7EiBGmpqYMBgM5BSkUCpuammpqaoqLi8vKytra2ng83jsZzAC9c/RPP/1kbW09btw4BRoHA6umlZWVq1at+vvvv4cNG6aQFatEIlGxcYwWCIJUPE8NVYRC4bVr1+zt7VesWKE+NfVVYy6r0c0o5CqWlpY//vjj+vXrKyoq+rnZi0SIIRn96urqioqKiEQigUDoPXiPnM+XSCQikUgsFoOjc30/zPr6+i1btty+fdvU1HRobEfLZLLc3NwNGzZcuXJFIam4NTU1QSWbT4eurq49e/ZYW1tPnTpV2aklAB+29hRlwU2aNGnt2rX6+vqKdZgKBAIul9vW1tby/8PhcNrb27u6ukQiEZAceYQnLy/v0KFDSg3nUzESieT+/fv79u1TyAAgEAhoZx+JRKLKxGhSqVSBZ84AHA5ny5YtJSUl6rAFq5qFGtqzAYNAdZAF46pVqxYsWDBIl40EAmHcuHFDMqOMRCI5d+5camrqUHJCCgSCgwcP/vXXXwoRHrQvvbOzU5V7eFKpFPOmKeCDS7GysrI1a9a0tLT0f/zg8Xj5bW7kXJ2Kj1UgG+dDUHU0NDQoFMru3btDQkIGncMUgqCtW7devXr1/v3706dPlyfHmjLu4YMo5OJ8Pn/nzp2dnZ1DyTrs7u5ev37969ev+9kpCoWC9vANspuosp6KxWLMKf0BHxPytLS0HTt29H86JpFIqMJEuVyuih0PIpGosbFRjZb4ip03tbW19+/f39raGh0drT4BXf962ytWrPj222/Nzc3NzMwiIyPv3r27d+/e4uJiqVSq7GkagiA8Hm9qaurr6+vh4WFlZcVisUgkUkdHR3l5+cuXL589e5afn48MU8w3g/jZbt26tWTJkqERVoB0qrGxcf78+UlJSf0xUslkMloDvba2tr29vT81j1F1UygUstls4E/u+ztC+3wkEsmVK1dcXFxWrVrVnw0eEolEp9Pln9ZbWlrQFkrvp6ujvLxcrXyJBIW/eyaTee7cuXXr1t25c0f9hQeRnLCwMCSEH6mfFhoaGhAQcOrUqePHjyvv/A0EQTQabcKECStXrhw/fjyFQkFOKSHRSjAMjxs3DjkKUFhYGBkZGRUVVVlZiXnqkUqlhw4dmjt3rsoO1cv/HEaPHk2hUF6+fIn2SAEMwwUFBStWrPjzzz8xqymFQkEbR1tbW6vKJL4CgQBtIYZPSm+mTJnS2NhYUFAgFovRGpE7duyws7ObPHky5kIhZDJZX19f/vo6bW1tjY2NQqFQNWXpJRIJ2iK5yganjEGgp6d3/vz5pUuXDoirCoXkEgirVq364Ycf3snuRSAQmEzmDz/8kJycvGDBAjKZrPBeEIlEb2/vq1evRkVFTZ8+XU9Pj0wmI9F6SDg/Ho8nEomamppUKtXNzW3Pnj3R0dErV67EXIcKhuHS0tJ79+6p1e4OBEFffvnluXPnbty4MX78eAzfoVQqvX///oEDBzDrsba2NiqrBXmSTU1NqnlEyFZwaWkpEJgP2hmrV68+ceLE77//7ubmhuGj6O7uXr58eX9MSSqVamRkhOpHq6qqVOYyFYvFmZmZauemUAYymUwikfzvf//T0tJSQ+GBIIhCoezatau+vl4mk/Xdi7i4OC8vLwUGvOvq6q5cubK2thbx4Mn/SEUi0YULF+zs7DD3esyYMXw+v48u9/OlR0VFyZ+nEoKgkJCQ/Px8WQ/Z2dnu7u7YRouWltbdu3ex9Usmk928eROVCQhB0PHjxwUCAax8Ojo6Dh8+LP9jmTlzZnFxMYaHMHv2bPl/BYfD5ebmohrA8nD79m1U2bWXL1+OhKJJpdLw8HBs5QOQyp7d3d3Yxk9NTc3mzZtR/aKvr298fLySPsN3XmtLS4v8jwWCoODgYGXfGE550zoej9+2bdtff/1lbGysVmfcIAgyMDA4evTo5s2bDQ0N+3gfSC/8/PxSUlLOnDljYmKCw+H6KaJMJnPVqlW///472lT5EAQRicTFixcfOXIE2+wMw3BmZmZJSYn67BAMGzaMRqMhcRNubm5hYWHYsph3d3evXr0ac+kzJpNpYWGB6knm5ORUV1er4BFxudzY2Fhg1nwQOp2OrGtxONw333wTHByMIYkDDMPp6elr167FNnh0dHTQ5mZ9/fp1cXGxCp6PVCrNy8tDW3Ru8HnY3pkop06dmpKSMmXKFBKJpA5GDx6P9/b2/vPPPxcvXixncSAIgggEwpIlS169erVp0yYqlYpNRJFNr2XLlu3atQtz/koIggIDA3/++WdXV1dswnPlyhX1PKYAQdCcOXMWLVqEoZYMDMNNTU0LFy7ElmmbwWCYmZmhapKUlKQC/ZZKpTU1Nf9aQvBTpvcrIBAI27dvDwgIwPBxwTB88eLF8PBwDJ8GjUazsrKiUCjyN+no6MjNzVXBqkUoFEZFRanbK8OpYEyYmZndv3//4MGDLBaLQCAMlPbg8Xg6nb5x48Y///zT398fVdQKshin0+kHDx7MysrCVq+CTCZPnTo1LCysn9tdEAQFBQWtXLnS3Nwc7XVgGH706JEqTzii7dq2bdumTp2KIfheKpW+fv16zZo1aNPbILYv2mzw5eXlWVlZyg5G6uzsvH37tkgkAuoip836/fffe3p6YgsNWL9+fUpKClrhgSBIX1/fwcEB1WeYlJSUm5ur1MUEDMNtbW3Xr19XtyULTjVTCZFIXLduXUZGxldffYUEa6m0kzgcmUz+7LPPrl+//uuvv2KYrN/G1tYWQwoGpBzRd999p5AQMgiCvvnmG2yz8+vXr+vq6tR27UyhUPbs2ePm5oZhI00kEj148ODgwYNoIyYMDAzs7e1RxTIgmxCvXr1S3pNECtdeuHABGDry4+LismHDBltbWwwLMolEMm/evKqqKrQPnMlkjhw5EtUvFhQUJCYmKjUmRSgUnj17dkAKfQ286rxt9Fy+fPnJkycBAQHa2tpEIlGpdg/iGaNSqaNGjfr9998jIyMDAgL6H1YnEonS09PRtmKxWDNnzhw9erSiukwmk5cuXerk5IThgklJSersMDEzM9u7d6+1tTUGTyaPxzty5Mi9e/dQ2XMEAsHMzAytuZOXl/f06dPGxkZlqAIMw62trSdPnmxpaQFagmr8BAcHz58/H0NyWCRv4YIFC9AWD2SxWJ6enmiH64MHD1JSUpTkeJDJZBUVFceOHVPDJQtOxQMCgqBx48b93cMXX3yhp6dHoVAUHmuAw+E0NTXpdLqPj8/Ro0cfPny4cuVKFoulkBn/9evXPB4P1bvE4XA2Njbz589XoMpCEOTl5eXj4yPn7tTbZGRkqPPyGYIgX1/fTZs2GRkZYXhi7e3t33///YsXL1D1ccSIEV5eXqh+DobhCxcuJCUlKcMDJhKJ0tLSLl68CAwdDONn48aN06dPp9FoGCbr9PT07777DpWflkb7/9g787Cmru3vezICCUMYAomBAAECAURaBgsyVCuCBepQ0P4eOjhUvGit0AG1lNJW7SPe28e2t7S19d4L1t46FCpt1dYyKFilImoVIYxhDvMQyECG8z6v53n9+d5rJeeQQND1+VM5OXufs8/+7rXX2msxfXx88Fbea2xsPHHiBOEQmAcjk8lee+01EzR0Zlp17o4JMpkcFRX1zTffVFZW7tixw9/f39bW1sLCYjpen7uWDYvF8vT0fP7550+cOPHjjz9u3LjRUCnxMerr6/GOEisrq9DQUFxRUnp2OS4ujkAyaQJdmPlBsnHjxmeffZZA0gGdTtfe3p6RkSGVSvXvJo/Hww6r4rqXVCrNy8urrq427IpVq9U2NDS88cYb4NEhBoPBeOutt8LCwggkHdBoNEePHj18+LD+Z04RBOHxeFFRUXhXLcXFxd99951B0sHdi0Kh+Oqrr86ePWuanzlpFqcVMpns7e29d+/eqqqqwsLCV155JTQ01MnJicVi4RorZDLZysqKx+OFhoZu2bIlPz+/oqLi0KFDS5YswaJyDdvy27dv472EzWZHR0cb4zGGhIRwuVwCqjOd/DozA4VCycnJiYiIIDBxqNXq6urqnTt36p+qmU6n+/n54T1piLmFv/jii/r6ekMJD+bOwZIig6FDeHpxdXXNzMwUiUQEvMgqlSorK+vChQv6v1NnZ+elS5fiDZ9TKBR5eXknTpzAu6f34MafPn36nXfeMdnBQ5r1wYEgCJ1Oj4yM/OCDD8rKyi5dunTw4MHHH39c/x9xcnJKT0+vrKwsKyv761//Gh8fj22mGclp1NnZifcSFou1cOFCY7TH0tLS29sbbxoxqVQ6J/JPW1tb5+bmEps45HL5jz/++Mknn+iZ3hFBEB8fn6ioKLxRDCiKfvPNN3l5eQ0NDdN/qhqNRiKR7Nq1C6Klpz+3REdHb9myxdnZGe8ePoqiY2Nj27ZtE4vFer4FMzMzX1/f4OBgvJ95f3//gQMHTpw4MTo6Os0jDViqhZKSkrS0NLlcbrKvhmQ6QwQLdXNxcYmJifH398c183p5eTk7O2PhCcaOzMZbCJZMJtva2vJ4PCO1x8vLC1fKW4w5kcMYQRChULhnzx4XFxcCzj/MG3/69Gk9t0ocHBzCwsK8vLzw3kir1X7xxRfvv//+tWvXsIQFxKYMhUJx48aNl19++dixYyA5Bhk/GzduXLVqlY2NDYF92ubm5oyMDP3DzAQCQXx8PF7THEVRiUSSk5OTn58/neUgiqKDg4PHjh1LTk7u7+835fFDMsGBcleE8F4yMy3UaDS43iidTjdqcmJ7e3tcdj3WeLx5EmdxPMTFxRFOQNfT05OTk1NTU6PnKnLhwoWxsbEE9vS0Wu2333776quv/vTTT729vbiq3KIoitUyKC4uXrt2bVlZGUiOoaBQKLt3737yySfxeuywb+TChQvvvfeenj55LHyJQDo4bC2bnZ29d+/e69evy2QyXEYPiqIymay+vj4rKys1NRVvrBOozhxgcHAQ199TqVQCtoj+4HWDYcyh0qIIgqSnpyckJFhYWOC9VqfTNTQ0vP3223qm6+ZyuXhN7Xs//suXL2/atOm9996rqqqSSqVT2j06nU4mk3V0dFRWVqanp6ekpDQ3N4PkGBY7O7vs7OyFCxcSyEquUCiOHj1aUFCgzz4tgiB+fn7PPfccgVN02J7eZ599tmXLloKCgrq6uuHh4SntnsnJyf7+/sbGxoKCgvj4+EOHDs2J1SQFBiUxawzXeDJqBpoZKAI069BotH379rW3t1+4cAHvdzU5OXn58uU9e/bk5uba2dlN+XJDQ0NXr17d2NhIIOoURdGRkZHPP/+8sLAwLi7u6aefxvY/sYTiWBI/LKXs5OSkUqkcGRm5cuVKcXFxeXm5SqUCvTHSB+vv7//qq69mZWW1tLTgDfoYGxvbv3+/u7t7TEzMlD4/KyurqKioZcuW/fDDDwSiS1AUvXr16vXr1wMDAxMSEqKiojgcjrm5OZ1OJ98By8upVquVSqVCoZBIJOfOnSsuLpZIJCabcARUxwCw2Wy8dvrIyIjx2jMyMkIgvnZuFRpHEMTR0fGDDz5Yv359XV0dXhWXyWQ//vijQCB49dVXp1yH2tjYLF++/MqVKz/99BOxlSNWbi7/DlwuVyQSubu7Ozg4mJmZUSgUTGx6enoaGhrq6upAbGZm/CQlJYnF4r///e94fR7Y0dHdu3dzOBx9YoJEIlFKSsr169clEgnhdWR1dfXVq1fpdLqnp6dQKHRxcWEymVZWVnK5fHJysq+vr62trb6+vrOzE9OhufU6QHWIrLtxFS7ErGC1Wj2deoUPoLu7G1e8CvbZGKkxRp04goKCMjMzd+7c2dPTg/dL6+vrO3z4sJeXV0JCwpSZbwICAp577jmxWDydg03YhV1dXd3d3Q/4A2DGxk9GRkZLS8vJkyfxej60Wq1YLM7Ozv7000+nPB5HpVLDw8Ox3PDTOaSJoqhSqbx58+atW7cesvEDfh3ccLlcvCuXgYEBwgufB6PT6ZqammQyGa6rqFQqXovNRCaOlJSUl156ydLSkkBkQVtbW25ubnV19ZSmEoVCWbZs2QsvvODg4DD9Zv9ZlRH4lGYYBoPxzjvvLFq0iICDR6lUnj9//sCBA/rUkHVyclq9evWKFSsIp5Z/uMcPqA5u8Oa9wGrWVldXG2OgYL5EvKEBXC7XgEXqZlh4du7cGRsbS2Di0Gq1N2/e3L9/f1NT05TvgsViJSUlJScnE0g4BJgsfD4/KyvLy8uLwAkwmUx2/Pjxb775Rp+tBT8/v82bN4eEhBAurP4QA6qDG29vbwLagLmLDd6YysrKjo4OvH4O7EiKKRcXfwCWlpb79u0jlkdVqVRWVlZ+9NFHvb29U/6xu7v7hg0biKXzAkx21RIZGblt2zYnJycCJ8AGBgY+/vjjkpKSKR1+JBIpLCxs+/btvr6+c3SFB6pjQgQGBpLJZFxT3vj4eHV19Z/tzxJGJpP98ssveE+tYqdS5qjk3NWDvXv3urq6EssNeurUqfz8/NHR0SlnqMDAwL/85S/Lli2breALKpU6f/58XCUYgClf6/r169etW0dgn1an00kkkn379l2/fn3KpR6dTo+JicnIyJhF4SGTyR4eHqb2sYPqEJny8Ba7RFG0ra3t2LFj+qcF0+c3KyoqLl++TOA38SZXNsGJIzo6+s033yRQrAhF0e7u7vz8/LNnzyqVyin/PiwsLCMjIzY2dua32qhUqr+/f1paGoHiqsADoNFomZmZTz31FLEUf3/88cf+/ftbW1v1sctXrVr1+uuvL1iwYOaXDhQK5bHHHsvKygJbZ84vlGg0WlhYGN4Lh4eHz549W15ebqiw+o6Ojq+//rq5uRnvhQwGY66rDvYiNm3alJKSQqxccWNj4yeffFJVVTXl6yCRSOHh4W+++eaaNWsMm7z8wb2j0+mLFi3KzMxMSkqC787g2NvbY0dHiaX4Kysr+/TTT/VJlsNkMletWrV79+4nnnhixrZqEQQxMzOLjIzcu3dvbGws2DoPA3FxcQRmuqamps8//7y2tnb6YQVDQ0P5+fnnz58nkOMvICBgLgaw3Xf34N13342JiSGwQa/RaGpqaj766CMs/faU33BQUNDOnTs3bdrk6elp7KBzBEGsrKzi4uL27NmTlJQ019cHJrtq8ff3z8zMJFAoBPsAjx8//u233+qz08BgMBITE7OzsxMSEmZm4cJisZ555pkPP/zwqaeeMsGHb6Kqg/cY1wyP1yVLlhDY6FcqlRcvXjx48CCBc473Mjg4ePLkya+//vrPDoI8uPEJCQkGL6M3WxOHjY3N+++/HxAQQOBLVigU58+f/+KLL/R8jJ6enunp6ZmZmVFRUSwWy0hzB5lM9vLyevHFFw8cOBAREQGSY9Txk5iY+PLLLxPIDYql+Dt06NAvv/yizxltKpUaHR2dnZ29adMmPz8/Aknh9IRCofj7+6emph48eHDBggWm+eRNLrhCrVYPDg6OjY3pryVarValUmm1WgLGMjFcXV3Dw8MJFE0aGRn5/vvvsVqHIpGIgI9RKpUWFhZ+8sknjY2NBFpubW2dkJAwYw9qBiYOPz+/t99+e8eOHe3t7QRWrMXFxXw+f+PGjfq4iOzs7F588UVfX99jx46VlpY2NjYaMJ88giBYIeTk5ORnn32WQNI5gIDGv/LKKy0tLUeOHMGb4ANL8Xfw4EEnJ6dFixZNuZJDEMTb2/v1119/7LHHTp48eenSpe7ubsNW7XN2dg4ODn7++efvfuOmeayHYiKWjVar7enpaWlpaW1tvXHjxrVr13DNHaWlpWZmZnw+383NzcHBwdgRI1gYzLlz5wikJR8eHi4sLJyYmNiwYUNQUJCeq2YURScnJxsaGoqKigoKClpaWgiMJyxsVCAQGG8FPfNrcxKJFB8f39zcvHfv3tHRUVyPBUGQjo6OgoICHo/3zDPP6OMiIpPJISEhQqEwMjLy9OnT1dXVzc3N4+PjhI1X7IlxOBwfH58lS5YkJyff9wXpnw5jOtV4Z/0tI/8PfTprkGYwmcysrKy2trbS0lK8py/VavW1a9c+/vhje3t7PQtk2NjYrFq1KjAw8OzZs6WlpTdu3Ojs7CRcHeNueUxnZ2eRSLRs2bLk5GQnJ6d7n8zdlPzGHj9zSXVUKlV9ff2tW7d+//33y5cv19bW4j3zODg4ePTo0dOnT/v5+S1atCgoKMjf35/P5xvPjJ03b97SpUt9fX3/+OMPAsNlZGSkqKioqalp7dq1ERER3t7eD15oq1Sqtra2q1evFhYWlpSU6HM6+r6YmZlt2LDBqJLMZDL5fL7+A9cgSwQqlbp58+aWlpZff/2VmHldUlISEBCg50ksbGdv5cqVERERv/3224ULF27evNnc3Nzd3a1QKHCNBysrKzc3N3d39/Dw8KVLl953q5BKpbq5uelv+nA4HGInEzkcjoeHh/6TnTGCshgMhpubm/6hifb29tM03BEE4fP52dnZo6OjxPIltre3//rrry4uLnoGtiAI4ubmlpqaGhsbW15e/ttvv9XX17e2tvb39+M1fRwcHPh8vre3d3h4+PLly+97lgALntZ/WDo5ORl9i2K2TDAURTUaza1bt6qqqn7++efKysrBwcFpNgZBEBKJxOPxFi9e/OSTTz7xxBNubm5G0h6tVnvo0KHt27cTrsKEOY2DgoKWLFni5+fn4uLCZrOtra3NzMxIJNLk5KRMJhscHOzu7m5oaLh06VJ5eXlnZyfhEDjMHfXdd98ZNQJYIpFcvXpVz/RT2J6Dv78/gczw/73d0dXVVVJSQswEtLCw8PPzE4lEBIaxSqVqbGy8cuVKbW1te3t7b29vf3//yMiIXC6fmJj4DxvI3NycyWTa2to6ODhwuVyBQBAUFBQcHIwlvLivWo+NjZ09e1b/pZiLi0twcDDe4hooipaVlbW3t+tvZCQmJhrcv9XW1vbbb7/pE9GO4XeH6X/jKIqeOXOmr68P7/jBuu/o6BgREUEgRA1F0eHh4dra2pqamvr6+q6urt7e3qGhobGxsYmJCaVSee/4QRCEwWBYWVmxWCxHR0cul+vt7f3YY4+FhoZaW1v/2RafQqE4duyYnrttmAZHR0cb1eKZHdXByueVlZUVFxeXlpbiTSOm58ItOjp6xYoVERERPB7P4J4MLBNtQkJCTU3NNH+KTqc7Ozv7+flh24OWlpYkEkmpVA4MDHR2djY0NNTX1095pFEfK6SgoCAhIQFOShsJjUbT09PTdgepVIqtndVqtUKh0Ol0VCqVTqdbWlpihWX5fL6npyebzYZ4AeCuPHR2dra0tHR1dQ0MDAwPD4+Pj6vugKKoubk5jUazsbGxt7fncDju7u5eXl7EEhLOOrOgOiqVqqysrLCwsKioaPr2zQMgkUhubm7x8fGrV68ODAw0+PFyjUZz9OjRrVu3GqRC2p+NHoM8HwRBVq5cefjwYWLhOgCu5ch/GGFjY2M6nY5Op1tYWPz3hjsAPGD8qFQqbNXCZDKxCv0PweCZadXp6+s7fvx4fn5+dXX1zNzR3Nw8LCxs3bp1K1as4HA4BnxbmHW8ZcuWkydPmngKWD6f/69//Wvx4sVg6AAAMLuQc3JyZkzD6+vrP/vssw8//LClpWUm9z0kEkldXZ1SqeTxeDY2NoY6rYLlKXBxcamoqBgaGjLZd2xubp6enr5mzRpI5wUAwKOiOlhl1tzc3H/+858GzEWmP0NDQ3V1dSMjI3w+397e3lDCQyKR2Gw2nU6/ePGi/i7QmYREIq1evfqNN94w3sFGAAAA01IdFEWrq6v37NlTWFhIOOJr+sjl8oaGBplM5ubmZkDhwQITR0dHa2pqTK10OYIgTzzxRE5ODrGCIgAAAHNPdVAUvXLlyp49e06fPj2dNDAGYXJysrm5eWxsTCAQGEp4sIML3t7ePT09t2/fNikHj6+vb1ZW1uLFi+dcvWoAAEB1CErO7du3c3Jyzpw5YyJ2ACY8SqXSx8fHUJtOCIJYWlp6enpKpdLGxkZTEB4EQTw9Pd98883ExETIrQIAwKOiOr29ve+//35RUdGUpfdmWHhaW1tpNJqPj4+hwqlJJJKdnZ1AIBgYGGhoaJh14REKhRkZGcnJybNVjgwAAGCmVUelUn344Yf5+fkKhcLUuq1UKiUSyfz58wUCAYECLfd/lGSyo6Ojh4cHdlh9toQWQZCQkJD09PSkpCQrKyuIIAAA4JFQHRRFi4qKcnNz+/v7TfMsy+joaG9v74IFC7hcrqE87Zjw+Pj4kMnk5uZmg5wexQWNRlu+fPmOHTsSEhLm6LllAABAdYjQ3Ny8e/fu+vr6WY8geAB9fX1YbXwChZD/DBKJZGtr6+vra29v39fXJ5VKZ8zEYbPZKSkpaWlpERER4MsBAOARUh2tVrt///4ffvhBpVKZcud1Ol1HR4ePj49AIDBglBeJRLKyshKJRO7u7lQqtaOjw9h7jBQKJSwsLC0t7aWXXhKJRBCxBgCAyWL4jDgoilZWVm7YsKGlpWU6hg5WN8LOzk4oFLq4uNja2tLpdBRFlUqlVCqVSCRNTU1466nc9y5Lly796KOPfHx8DL4fhYUtlJaWFhUVVVRUYFn8DG7iiESip59+OjY2NigoiMlkwq4aAACmjOGzcmk0msOHD3d1dU1HciwsLIKDgyMjIzG/i62tLYPBoFKpKIqq1erR0dGBgQGs5Mz58+fFYjHhknwoimJFBObPn2/wEgA0Gs3Ly4vH4y1cuLCiouLcuXNVVVWGSrBNoVCEQuHSOwQHB7PZbDgHCgDAI2froChaUVGxfv16iURCTHVoNJpIJEpJSQkPDxcIBHZ2dlhtwf+4C1aMSyqV1tbWlpSUnDp1qrm5mVhfEAR58skn8/LyhEKhkZ4ylni4oaHh+vXrFy9evHTpkkQi0Wg0xIp52NvbBwYGLl68OCgoyM/Pz8nJiVgVLwAAgIdBddLS0o4cOUIsfIvJZK5Zs+bFF1/U38Ov0WikUumFCxeOHDlSXl5OLBmapaXll19+mZiYaNTyo9j2YEdHR2trq1gsvnbt2u3bt1taWoaGhqZUaAaDwePxvL29AwICfH19BQKBq6urjY0N2DcAADzSqtPS0rJy5cra2lq8hg6CICwWa+vWrSkpKR4eHnhz1UxMTNTU1Hz++eenTp0iIHgIgqxfv/7dd9/l8Xgz8NB1Ot3ExARWdHJwcLC3t7erq6uvr290dHTiDhqNhsFgWFhYMBgMNpvN5XI5HI6dnZ29vb2joyOLxaJQKOC/AQBgLkIx7Fr+559/lkqlBPbWLC0tt2/fvnnzZg6HQ+DWDAYjNDTUzMwMRdHvv/8eb8wYiqIlJSVpaWlcLtdQWUEfAIlEsrwDVs9cpVKNj4/L5XKlUqm+A1Z6kkql0mg0CwsLJpNpbm4OZg0AAKA6/8mvv/5KwFtuYWGxdu3azZs3Ozk5Eb41jUYLCAjYunXr2NjYmTNn8CpfV1fXzZs3vb29p1/DH6+ZZXaHu/p373/BAAUA4CHDkOv6trY2AuFkZDLZ19f3jTfemH6hTxqN9vjjj//P//yPr68v3mu1Wu3ly5fHxsZm930g9wCjEwAAUJ0/BUXRmpqakZERvI4iJpP52muvCQQCgzTDzMxs2bJlsbGxeLNeYkWADBXWDAAAABjd1qmpqZmYmMClOlQqNTw8PC4uzoDeFDs7u+XLly9cuBDvhXV1dfqEkwEAAAAmoTpNTU14U+DQ6fTnnnvOsNn4SSRSUFBQcHAwnU7HdaFCoejo6CB84BQAAACYOdVRq9Wtra24VAdBEFtb27i4OIP7MKysrAICAlxcXPBeKJFITDx3HAAAAKjO/2VwcHB8fBzX9hSFQgkODmaxWAbvFYIgQqHQ1dUVr551dXWB6gAAAMwB1enr68Nbx4xMJoeEhBgpWIvH4xGIw+7v7zepsqcAAACgOvdHLpfj9cOTyWR3d3cjdYzNZtvZ2eG9amJiAqIJAAAATF11UBQdHh7WaDS4rkIQxMHBwUgdo1AoNjY2uIqboSiq0+nQO8DIAAAAMGlbR6vVEpisjZrlhUqlUigUeMcAAAAPoeowGAwCEiKXy43XN5lMRiz1NQAAAGDSqoMgiKWlJV7V0el0XV1dRuqYXC4fHx/XarW4ekEmkyEbDQAAwBywdQjUetFqtfX19UbqmFQq7e/vx3uVvb09VEgDAACYA6rDZrPxztcajaaystJIHWttbe3o6CCgOuAKAgAAmAOqY2lpaWtri8vc0Wq1YrHYSObOzZs3xWIx3gAHPp9/t+gAAAAAYLqqgyCIl5cX3ilbLpd/++23Bo9UlkgkNTU1Q0NDeC/08PAA1QEAAJgDqjNv3jyhUGhubo7rEpVKdeTIkf7+fgMKD4qi5eXlFy9exPubTk5Ojo6OsMMGAAAwN2ydwMBACwsLXAFgOp1OKpXu27fPgF1qbGz8+eef29raCLTfsNmvAQAAACPaOqGhodbW1nivUigUR48ePXfunEHMHblcfuLECQIVrOfNmxcSEgKqAwAAMGdUh8FghIaG4kpCgzE0NLRt27ampqZpCo9Gozl+/PhXX301OjqK91oKhRIWFmZlZQVjAgAAYG6ozrx58+Li4giYOzqdrrW1dd26dQ0NDcSSb6Ioqlarv/vuuwMHDuDdW8MIDg52cXEBpw4AAMCcUR0EQWJjY7lcLoFy1BqN5o8//li3bl1lZaVarcZl9Oh0urGxscOHD+/atev27dsEDCYEQVasWOHg4ABZCQAAAOaSrWNubr5y5Upi+1QajebGjRvJycl/+9vfhoeH9dEenU6nUqlqa2t33kEikRBrNpvNfuqpp4xRXw4AAAD4/1b5Bj8r097eHhsbKxaLCReqodFo/v7+27Zti4uLYzKZWOrou/YTVo9AfYf29vbjx49//fXXra2thDtCIpFSU1Pfeuut+fPnw4AAAACYY6qDoui777578OBBAi79/20WgpBIJC6Xu3z58sjISD8/Pw6HgzldFApFW1vb1atXz58/X1lZOTAwMM0uODg4/Pvf/46KigKnDgAAwNxTnXnz5nV0dDz99NO1tbXTrMt5r5eFQqFgYc3Dw8P3Ktw0m0omk9PT0zMyMjgcDowGAAAAY0Myxo/yeLzU1FQWizVN5zx6D2q1eugO9/7jdCUXQYRCYVJSkpOTEwwFAACAuao6CIJs2rRp0aJFJl41gMFgbN++3dvbG0LXAAAA5rDqYBEB+/btc3d3JxBFPTPQaLS1a9fGxMRAPgIAAIA5rzoIgvj7++/cuZPNZpugJUEmkx9//PHU1FRXV1cwdAAAAOa86mDC88ILL7z00ks2NjYmNbOTSCQPD49du3YtWLAAJAcAAOAhUR1MeN5+++2kpCQGg2Ei8zuJROLz+ZmZmVFRUXQ6HUYAAADATGKUyOl7QVF0aGho69atZ86ckclkxr7dlJLj6uq6a9euZ5991sbGBl4/AADAQ2XrYOaOnZ3dp59+mpSUNLsTPYVCEQgEIDkAAAAPs61z1+JRKBRvvfXWyZMnu7q6Zt7iMTMzE4lEO3bsSExMJJAVGwAAAJhLqoOh0Wi+/PLLvLw8sVisVqtnqIcIwmKxQkNDt2/fHh0dbWZmBm8dAADgkVAdzOiprKzMzc29cuVKX1+fse9Op9NdXFzi4+M3btzo4+NjsoeHAAAAQHWMKDzDw8N5eXmnTp0Si8UymcwYdyGTyWw2OzAwMCUlJTY2FqoYAAAAPKKqg6HVaq9du/aPf/yjqqqqtbV1ZGTEUC2hUChsNlsoFMbExKxZs0YgEICJAwAA8KirDoZarb506VJxcXFVVVVbW1tvb+/k5CTBniAIg8Hgcrmenp6RkZErVqwQCoUmnggOAAAAVGemQVFUo9GIxeLS0tLff/9dIpH09vYODAyMjY3dbdt/N/LumVMqlWptbe3g4MDhcIRCYfgdnJ2dkTvACwYAAADV+VP5USqVdXV1N27cqKurk0gkw8PDMplMLperVKq7MW8IglCpVHNzcyaTaWlpyWaz3dzcRCJRQECAq6srjUaDlwoAAACqg09+UBSVy+Xd3d1SqXRwcFAmkykUCux/SSSSmZmZra0tZt+w2WxMacCyAQAAANUBAAAAgP8FgrsAAAAAUB0AAAAAVAcAAAAAQHUAAAAAUB0AAAAAANUBAAAAQHUAAAAAUB0AAAAAANUBAAAAQHUAAAAAAFQHAAAAANUBAAAAQHUAAAAAwFj8nwAAAP//OFIoD1MnXtMAAAAASUVORK5CYII=;" vertex="1" parent="1">
          <mxGeometry x="330" y="375.8" width="138.94" height="68.4" as="geometry" />
        </mxCell>
        <mxCell id="vPaj5wobRW8Uo8GPUC8b-36" style="edgeStyle=orthogonalEdgeStyle;rounded=0;orthogonalLoop=1;jettySize=auto;html=1;" edge="1" parent="1" source="vPaj5wobRW8Uo8GPUC8b-14" target="vPaj5wobRW8Uo8GPUC8b-4">
          <mxGeometry relative="1" as="geometry" />
        </mxCell>
        <mxCell id="vPaj5wobRW8Uo8GPUC8b-14" value="" style="shape=image;imageAspect=0;aspect=fixed;verticalLabelPosition=bottom;verticalAlign=top;image=data:image/png,iVBORw0KGgoAAAANSUhEUgAAB9AAAAQTCAYAAAA8rLL+AAAABGdBTUEAALGPC/xhBQAAACBjSFJNAAB6JgAAgIQAAPoAAACA6AAAdTAAAOpgAAA6mAAAF3CculE8AAC/ZElEQVR42uzdebgkV1kw8DuTlT1AQsjt6skAYR0I4JXcqe10k4ToyCbLNdN1JzEijoogLkgEFAKKBFEQUTSAiiCirAKyu7AvGtnDlmWmqycLJBAg+zbzPTW58CUhQ27P9Fbdv9/zvP98n5lbdc57ThX91jlnbg4AAAAAAAAAAAAAAAAAAAAAAAAAAAAAAAAAAAAAAAAAAAAAAAAAAAAAAAAAAAAAAAAAAAAAAAAAAAAAAAAAAAAAAAAAAAAAAAAAAAAAAAAAAAAAAAAAAAAAAAAAAAAAAAAAAAAAAAAAAAAAAAAAAAAAAAAAAAAAAAAAAAAAAAAAAAAAAAAAAAAAAAAAAAAAAAAAAAAAAAAAAAAAAAAAAAAAAAAAAAAAAAAAAAAAAAAAAAAAAAAAAAAAAAAAAAAAAAAAAAAAAAAAAAAAAAAAAAAAAAAAAAAAAAAAAAAAAAAAAAAAAAAAAAAAAAAAAAAAAAAAAAAAAAAAAAAAAAAAAAAAAAAAAAAAAAAAAAAAAAAAAAAAAAAAAAAAAAAAAAAAAAAAAAAAAAAAAAAAAAAAAAAAAAAAAAAAAAAAAAAAAAAAAAAAAAAAAAAAAAAAAAAAAAAAAAAAAAAAAAAAAAAAAAAAAAAAAAAAAAAAAAAAAAAAAAAAAAAAAAAAAAAAAAAAAAAAAAAAAAAAAAAAAAAAAAAAAAAAAAAAAAAAAAAAAAAAAAAAAAAAAAAAAAAAAAAAAAAAAAAAAAAAAAAAAAAAAAAAAAAAAAAAAAAAAAAAAAAAAAAAAAAAAAAAAAAAAAAAAAAAAAAAAAAAAAAAAAAAAAAAAAAAAAAAAAAAAAAAAAAAAAAAAAAAAAAAAAAAAAAAAAAAAAAAAAAAAAAAAAAAAAAAAAAAAAAAAAAAAAAAAAAAAAAAAAAAAAAAAAAAAAAAAAAAAAAAAAAAAAAAAAAAAAAAAAAAAAAAAAAAAAAAAAAAAAAAAAAAAAAAAAAAAAAAAAAAAAAAAAAAAAAAAAAAAAAAAAAAAAAAAAAAAAAAAAAAAAAAAAAAAAAAAAAAAAAAAAAAAAAAAAAAAAAAAAAAAAAAAAAAAAAAAAAAAAAAAAAAAAAAAAAAAAAAAAAAAAAAAAAAAAAAAAAAAAAAAAAAAAAAAAAAAAAAAAAAAAAAAAAAAAAAAAAAAAAAAAAAAAAAAAAAAAAAAAAAAAAAAAAAAAAAAAAAAAAAAAAAAAAAAAAAAAAAAAAAAAAAAAAAAAAAAAAAAAAAAAAAAAAAAAAAAAAAAAAAAAAAAAAAAAAAAAAAAAAAAAAAAAAAAAAAAAAAAAAAAAAAAAAAAAAAAAAAAAAAAAAAAAAAAAAAAAAAAAAAAAAAAAAAAAAAAAAAAAAAAAAAAAAAAAAAAAAAAAAAAAAAAAAAAAAAAAAAAAAAAAAAAAAAAAAAAAAAAAAAAAAAAAAAAAAAAAAAAAAAAAAAAAAAAAAAAAAAAAAAAAAAAAAAAAAAAAAAAAAAAAAAAAAAAAAAAAAAAAAAAAAAAAAAAAAAAAAAAAAAAAAAAAAAAAAAAAAAAAAAAAAAAAAAAAAAAAAAAAAAAAAAAAAAAAAAAAAAAAAAAAAAAAAAAAAAAAAAAAAAAAAAAAAAAAAAAAAAAAAAAAAAAAAAAAAAAAAAAAAAAAAAAAAAAAAAAAAAAAAAAGCfnbl14YDtncax3eXGc7pF9LayiL5UFtEFZRFdVxbR1WURfbcsovPKovGhcrnx12Wn2dm2tP6eWg4AAAAAAACAqbCjaDyyW0T/VBbRpWUR7dqL+J9eET19x8mNu2tNAAAAAAAAAGpl19zcmt5yVJSd6At7WTS/tbiyV0R/UW5uzmthAAAAAAAAACZed3k+rVaND7Bwfsu4qiwaL9p2yvqDtTYAAAAAAAAAE+fsTUcdVBaNPy+LaOcQi+c3jW/2OlFLywMAAAAAAAAwMXpboqPKIvriiArnN43ry6Lx3GrLeL0AAAAAAAAAwFiVW5p5WUSXjKF4fpNovvuikw6/g94AAAAAAAAAYCx6nehJZRFdPd7i+Y/i072l6G56BQAAAAAAAICRKovm48siunZCiuc/jK+cc9Lh99A7AAAAAAAAAIxEWTR/piyiayaseP7D7dz/7+zlo+6slwAAAAAAAAAYqu0nHvHAsogunczi+Y3RLaJPORMdAAAAAAAAgKG5oDN/aFlE505y8fxH0Wm8a9dpc2v1GgAAAAAAAAADVRWje0X0H7Uonq9Ebzl6iZ4DAAAAAAAAYKC6nej361Q8X4mdZdHcrPcAAAAAAAAAGIhyufmIsoiurWEBvYrLd2xpPFQvAgAAAAAAALBPzlracGBZRGfVtHj+wzj74qcceie9CQAAAAAAAMBe6xXRC2pePN8d3U70Gr0JAAAAAAAAwF45f8v8/csiunoaCuhV9IroiXoVAAAAAAAAgL6Vy9H7p6V4vhKXbFtaf089CwAAAAAAAMCqbe80jp2y4vnKKvTmW/QuAAAAAAAAAKuya2luv7KIvjSNBfQbo/l4vQwAAAAAAADAbSo7zc70Fs+jXWUn2nHu0r3voqcBAAAAAAAA2KNdc3NrekX0uakuoBfRru5y9Jd6GwAAAAAAAIA96nbmHzvtxfOVuKFXRMfocQAAAAAAAABuVW85+uSMFNCr+PSu0+bW6nUAAAAAAAAAbmb7lvmfmqHi+e7odaKn6nkAAAAAAAAAbqZXRK+ctQJ6WUTfuXDpnofpfQAAAAAAAAB2O2tpw4FlEX17Bgvou7pF9FoZAAAAAAAAAMBuvSJ64iwWz1fihh2dRiwLAAAAAAAAAJgrl5v/OsMF9GoV+ud3Lc3tJxMAAAAAAAAAZtiZWxcOKIvo0lkuoFfR60TPkA0AAAAAAAAAM6y73Dhu1ovnK/H9cnNzXkYAAAAAAAAAzKiy03yF4vmPtnL/JxkBAAAAAAAAMKPK5cZXFc9/FDt7W6K2rAAAAAAAAACYMRd05g+tisYK5zeLs6pz4WUHAAAAAAAAwAzpFdETFcx/PHrL0bNlBwAAAAAAAMAMcf75HuOKbZvXr5chAAAAAAAAADOiLKLPKpbvMd4uQwAAAAAAAABmwK723P5lEV2lUL7n2L658WiZAgAAAAAAADDlypOaD1Ykv804Z9sp6w+WLQAAAAAAAABTrNeJtiiQ33b0iugFsgUAAAAAAABgipVF9DIF8lXF1TtObNxPxgAAAAAAAABMqbJoflhxfNXxARkDAAAAAAAAMKW6RfQthfE+tnJfjp4gawAAAAAAAACmTO/kqKEo3neU31467I6yBwAAAAAAAGCKbN/ceLSC+F6tQn+J7AEAAAAAAACYIt1O9PsK4nsV12w/8YgHyiAAAAAAAACAKdFdjt6oGL7X8dFdc3NrZBEAAAAAAADAFOgV0ecUwvchOs2OLAIAAAAAAACouV2nza0ti+hKhfB9iOXowm2nrD9ENgEAAAAAAADUWG9LdJQi+L5Hr4j+QjYBAAAAAAAA1FhZNB+vAD6QuH5H0XiYjAIAAAAAAACoqbJoPFfxe2Dx2WpLfFkFAAAAAAAAUEPdIvonhe9BnofefIqsAgAAAAAAAKihbhF9XuF7oPHtbrHurjILAAAAAAAAoEZ2tef2L4voakXvgcdfyS4AAAAAAACAGilPaj5YsXsocUO53HyEDAMAAAAAAACoid5yVCh2Dyd6y9End83NrZFlAAAAAAAAADVQdpp/MsFF6P+pfyG9eYosAwAAAAAAAKiB3nL075NafL5w6Z6HlUXzD+tdQG9ctO2U9YfINAAAAAAAAIAJVxZROaHF5wt+eI3d5eiNdS6id5ejv5RpAAAAAAAAABOsW6y76wQXnj/ww+usVnCXRdSrcRH9uh1bGg+VcdOl3Nyc7xXRz5Wd5tN6RXR6uRz9c1k0P1EW0bm3El8pO9F/Vx+D9DrR88vl5om9LdFRWhEAAAAAAAAmRFk0w8Su2u5EL73ptfY60ZNqvpX7x3fNza2RdfW0qz23f29ztNhdbvxWWTT+pSyi7kDyYjm6sFc031J2mp2Ln3LonbQ0AAAAAAAAjEmviJ4+qQXnXhEt3/J6yyL6YK23ci8aJ8m6+th+4hEP7HWiZ5SdxrvKIvr+CHLkqrLTfP32zfMP1/oAAAAAAAAwYt1O9JqJLaAvRw+55fXuOLFxv7KIrq5tEX05uvDcpXvfReZNpu1bjjyi+sihLJr/WBbR+WP+gOQ952+Zv79eAQAAAAAAgBEpi+jTE1psvvrMrQsH3Po1N19c663cO81XyLzJcPbyUXfuduYf2yuiV5ZFdNYE5su13SI6rdo+Xm8BAAAAAADAEO06bW5tWUSXTWaROfrCnq77gq3ztx/Y+dPjievKk5oPloGjV32UUW5p5t3l6IW95eiTu/uiFjnT/MQ5Jx1+Dz0IAAAAAAAAQ9LbEh01wQXDf/yJ115ET6z1KvQi+siuubk1snC4qjbudaKjy6Lx290ieu/EfjCyuvjGts3r1+tVAAAAAAAAGIJeJ3rSBG9z/ju3df0rBdE6b+XekYWDt21p/T27RWOpV0RnlEXUq/mHFreMcy9cuudhehkAAAAAAAAGrFdEL5jUQmG3s+5Rq7j++1Znpde4GHr+xU859E4ycd90i3V33b0jwXLjr6tV2lNWML+1+Oiupbn99DwAAAAAAAAMUNmJ3jGpRcLVnvdcLjf+uObF0JfJxP7sas/t3y3WLXSL6NSyaH64LKJrZ6BofrPodaLfkwkAAAAAAAAwQGURnT2RBcLl6MLV3sMFW+dv3yui7TUuhl7bXV73INm4Z7tOm1u7fcv8T/WWo2eXReNDZRFdOWsF81uJq3YsNyLZAQAAAAAAAANw0UmH36EsohsmtDj4gX7upbccPaHeZ6FHH9s1N7dGVv5/3WLdvbtF4+SVc8zPVzC/lVXoRfRKmQIAAAAAAAAD0NscLU7TtuZlEb2v1gXR5eaJs5yPF3TmD+12Gr/Q7USvKYvoPAXyVcUVFz/l0DuZzQAAAAAAAGAfdYto6wSf77yl3/spT2zep9rWusar0Hd8e+mwO85K/vWWott1i/nje0V0ellEZ07wbgiTvgp92WwGAAAAAAAA+6gsoldNcAH96L27p8Yf1bkY2u1EL53WfNu1NLffjbseNJ7bLaL/KovoagXwQUTjzWYzAAAAAAAA2EdlEX1kQouC15y1tOHAvbmnalVzWTS21bgges22zvwDpiXHzt8yf/9yufkbZSd6R1lElyp2DyXOM5sBAAAAAADAPiqL6LsTWhD84r7dV/Px9S6INj9c15zatrT+ntWW4mXR+IeyiErF7dGE2QwAAAAAAAD2wQUnz6+b2G3Ml6M37uv99Zajf6/1Vu7LjSfXIo+2zt/+FueY71TQVkAHAAAAAACAWtm+ufHoiS0eF9Gp+3p/5YnN+5RFdFWNi6LlRScdfodJy5td7bn9u8vzaa+IXlAWjY+XRXStArYCOgAAAAAAANRaWTSeO6nFwN5ytGkQ99hdjl5Y68Jop/knk5Ar3WLdvbtFtLVXNN/iHHMFdAAAAAAAAJg65XL0z5NaDDx/83xzEPfYW4puVxbReTUujF6z48TG/UadGzuWG1F3ufGL1Vb6ZRFdoECtgA4AAAAAAABTrSyisya0GPidwd5n8/H1Lo42PjTsXKi2ineOuQI6AAAAAAAAzKSzNx110ASfXf3RQd9vbzn69zoXR3vL0RMG3f+9LVG7LBp/VBbRp8siul4Rutax06wGAAAAAAAAe2lH0XjYBBcDXzXo+y1PbN6nLKKraltAL6LtF2ydv/3e3v+uubk1N/Z581nlcvT+soiuUHSepmhsM6sBAAAAAADAXuoWjZMntRjY7TR+dTj3HJ1W80Lpy/q5322b16/vdaKnlkXjzWURfVuReXqjVzTfYlYDAAAAAACAvVR2Gn82qcXAHZ1GPIx77i1FtyuL6Nw6b9PdW4427en+dpzcuHt3ufHkcrn5t2URna2wPEOx3PxdsxoAAAAAAADspbKIPjipReKLn3LonYZ1393O/GNrXiy9srccPXv7iUc8cFtn/gG9Inpir4hOL4vozLKIblBMns3odtZtMKsBAAAAAADAXiqL6IIJLQaeO+x77xXRexRdxRTFuWY0AAAAAAAA2EvVVt8TXAz8t2Hff7dYd+9qJbfCq5iO1efRS81qAAAAAAAAsJd6W6L25BYEGy8aRRt0i+g0xVcxDVFt529WAwAAAAAAgL3U60TPmNzVtI1fGEUbbDtl/cFlEZ2jACtqHZ3ov81oAAAAAAAAsA+6neg1k1oQPH/L/P1H1Q5l0fwZRVhR69XnmxuPNqMBAAAAAADAPugW0acmtCB41a6luf1G2RZlp/EuhVhR09XnX941N7fGjAYAAAAAAAB7qSq4lUX0/QktCp456va44OT5dWURXa4gK+oWvSL6OTMaAAAAAAAA7IPtJx15r8ktCjb+YRxt0utEz1eQFTUrnv+H2QwAAAAAAAD2Ubml+bjJ3ZK6+TvjaJOzNx11UFlE31CYFTWJ68uTmg82mwEAAAAAAMA+KjvN501qYbBbzB8/tnYpmj+jMCtqEq8ykwEAAAAAAMAAlMvRP09qYXDb0vp7jrVtiujfFGfFhEe57ZT1h5jJAAAAAAAAYADKIvrKhBYGvz3utrng5Pl1ZRFdrkgrJjRu2N5pHGsWAwAAAAAAgAE4a2nDgWURXTOZxcHmhyehjcqi+YcKtWIijzhYjv7ULAYAAAAAAAAD0utER09ugbD58kloo+ojg24RfV3BVkxYfGXbKesPNosBAAAAAADAgPSKaHliC4TLzadMTDstR5sUbMUExffO3zJ/fzMYAAAAAAAADFCviE6f2CLh5uZPT1JblUX0ToVbMQnnnneXG48xewEAAAAAAMCAdYvovRNaJLz+gq3zt5+ktrrg5Pl1ZRFdroArxhuN55q5AAAAAAAAYAh6RbR9QguF35jE9io7zecp4IpxRa8TvXXX3NwaMxcAAAAAAAAM2LlL975LWUQ7J7VQOIltdtbShgO7RfR1xVwx+mj+30UnHX4HMxcAAAAAAAAMQXd5Pp3glbbPn9h266x7lGKuGHGcv2O5EZm1AAAAAAAAYEjK5cavTWwBvYieONFtV0RvV9Sd+PjO7n7qRF+o+X1ctqNoPMyMBQAAAAAAAENUFtFfTWwBfUt01CS33QUnz68ri+gKReqJiqo/Pthbjp7dLdYt7Dptbm0VZRGdW+N7ur7bmX+s2QoAAAAAAACGrCyij05o0fDyqvA5+e3XeK6i9VjjurJofqIsGi/qdaLW2ZuOOujH+qjT/KU632N3ufFbZioAAAAAAAAYgbKIvjuRhcPl6DN1aL+qYFsW0TcUskcWO8si+mJZNF++fXPj0Rc/5dA7/aT+2XFi437dIvpBfe+38WqzFAAAAAAAAIzAjuVGNLGrbjvRa+rSjt3OukcpbA81zu0V0Ru6RbS1d3LUWG2/9Jaiu9X844YP7mrP7W+mAgAAAAAAgBHoLUebJvb88070jDq1ZbeI3qbQPbC4uFc031IVzLefdOS99qY/zty6cECviP6ztm2w3PjqtlPWH2KWAgAAAAAAgBHpdaLfm9gC+paoXae2PH/zfLMsossUv/cqriyL5oe7RXRqt1i3sOu0ubX7nNtFdEadPyAoT2zexwwFAAAAAAAAI1Rtiz2pRcQdJzfuXrf27C43nqMYvqq4oSyiM3tFdHq3mD9+2ynrDx5kP5Sd5vNq3DZX7eg0YrMTAAAAAAAAjFi3iD4/kUXETrSjju151tKGA3tF9DUF8j2eY35Gt2gsVWeTD6sPep3oSSsF+jq20c7eclSYmQAAAAAAAGDEdrXn9q9Wu07m+c/R++vartWKasXy3fHtH55jvm3z+vWjaft1C2URXVHfNmv+gZkJAAAAAAAAxmD7iUc8cFILid3l6E/r3La9TvRW55jv+znm/TivOOLIsmhcVN/2a7x519zcGjMTAAAAAAAAjEGvE22Z2AJ60Ti5zm17/ub5ZllEl015wfz6cjn6TLnc+OPelqh99qajDhpXe5+9fNSdy0705Rq35UfH2X4AAAAAAAAw83pF9IZJLSjuKBoPq3v7Viuxp61o3i2ir5dF9Fdlp/nz205Zf8gktPPuowiWo/fXuF3P3nFy4+5mJAAAAAAAABiT3pboqBu33J7IguJ107Aa96ylDQeWy42vTss55tUW6ZPYzrsL+vVt3++cv2X+/mYkAAAAAAAAGJMdJzbuVxbRVya4qHjWtLR1t5g/vmYF3cu7RfTesmj8dq8THT3pZ3J3i+g3a1w8v2ZH0XikGQkAAAAAAABGbNfS3H5VsW5l2/arJruw2HjzNLV9udz81wlu7+u6RfSpsmi8qCyaoVo1X5d23b658ejd57DXtYC+3HyKmQkAAAAAAABGZNsp6w+uVkD3iuiV5XJ0YW3O2V5uPGea+mHHciMqi+iyCWrjc3tFdEa3aCx1i3V3rWObdjvrNpRF9L26Fs97y9FLzFAAAAAAAAAwZFVBtCqMVivNu0X0gzoWF7vLjcdMW7/0lqNnj609i+hbk36OeT+2La2/Z1lE3Rpv3f72XafNrTVbAQAAAAAAwBBcuHTPw7pF4+ReEb2nOle5xoXF3XHByfPrpq2Pqq3Ry+XGV0fUhleURfPD3SI6tVusW5j0c8z70VuKblcuR5+pcX6fedFJh9/BrAUAAAAAAAAD1C3W3btbRM8si+YnyiLaWfei+U3ie9NU8L2p6ozxIfVVdQ74mb0iOr3asv/sTUcdNI3tV+VFWTTeXNvc7kQ7eidHDbMXAAAAAAAADEB17nO3iE4ri+isKSqY3yIaH5/mPiyLxr8M+hzzbaesP2Q28j96aV3zujpOYceWxkPNYgAAAAAAALCXdi3N7dftrMt6RfTKsoh601s0v1kB/dXT3Kcr53d/fy/a5aIfnmM+jVvc35ay0/ylGuf19eWW5uPMaAAAAAAAANCn6nzk7nLjyd0i+qeyiC6djaL5Tbe5bj5t2vu414mesZoVy2XRfHe3iH6zu7zuQbM8JrZ3GseWRXRtXXO66m8zGwAAAAAAAKzSBZ35Q8vl5lOqgmlZRFfNXNH8poXjzrps2vv7xrO8m/94i3u/tuxEH+sV0Qu6y/Pprvbc/kbG3Ny2zvwDyiL6bo1z+lV6EQAAAAAAAG7Dts3r13eXG79VFtFHdm/xPMNF85vEzlk5z3vuxjPts2pr8mqF9beXDrujUXFzuz8sKaJzapzP76uOYdCTAAAAAAAAcCu6nXUbukV0alk0P1EVixXMb7HVdRFtlyVUzlracGC3iP6rxvl81rlL976LngQAAAAAAIAVu06bW9st1i10i+i0XhF9TZH8tqL5bllDtcV9r4jeUNs8Xo4uPK844kg9CQAAAAAAwMyrzq6utubuFdEryyI6X1G8rwL6i2UQvU70/Brn8ZU7lhsb9SIAAAAAAAAz6+zlo+5cFs3NZdH4l24R/UAhfC+j0+zIptl24ziq7fEGN3SXG0/WiwAAAAAAAMyc3lJ0t27ROLlXRO8pi+hqBfB9j+qMeJk1u8rl5iPKIrqitvm73HiOXgQAAAAAAGBmXLh0z8NuUjS/VtF7oHH1mVsXDpBls2nb5vXry6JxUX3zt/EPehEAAAAAAICpVxX2ukX0zLJofqLaolmhe0ird4vo87JtNt14BEL0pfoePRB97OxNRx2kJwEAAAAAAJhK1Vbi3SI6daVovlOBe/jRK6I3yLzZs6s9t39ZND5U49w994LO/KF6EgAAAAAAgKmxa25uTa+IjukV0ellEX1TQXsc0XyWTJw95XLzb2uct5f0iui+ehEAAAAAAIDa23Xa3NpuZ122UjQ/RwF7vLG90zhWVs6Wcrn5uzXO2WvlLAAAAAAAALW2a2luv5Wi+SvL5ehCheuJiZ29pehuMnR29Iro58oiur62Rw4sR7+iFwEAAAAAAKidC7bO377XiZ5UFtGbyiL6nmL1JEZjm0ydHds3zz+8LKLLapuvy40/1osAAAAAAADUxrZT1h/SLRpLvSJ6Q60LdbMT75O1s2H7liOPKIuorO3K80701ur4Bz0JAAAAAADARNtxcuPu3aJxcq+I3lMW0TWK0jUqShbRK2Xw9OstRbcri+izNc7V/612tNCTAAAAAAAATKTzN883u0W0daVofp1idG0L6E+XzdOtWrVdFtE7a5yj28/r3OtwPQkAAAAAAMBEOX/L/P27y43nVKtByyLaqQBd/9hRNB4ps6dbWTT+vMY5+v3ypOaD9SIAAAAAAAATYfvm+YeXReNFZRF9RcF56uKKi046/A6yfHpVu0TUOD+v63Win9WLAAAAAAAAjFVvOXpI2Wn+SVlE5yoyT23sLIvmr8v26dXtrHtUrY9X6DSfphcBAAAAAAAYiwtOnl+3sj37lxSXpzquL5ej99u6fbp1l9c9qCyiS2t87vlf6EUAAAAAAABGatdpc2u7xfzxvaL5llqvVBW3uRV2WTQ/0S2iZ27fcuQRMn+6XdCZP7QsorNrnK/v27U0t5+eBAAAAAAAYCS2nbL+kN5y9GxbtE91fL8sGv9SLjdPPHv5qDvL+pkZ2wf3lqNP1nfb9ugLFz/l0DvpSQAAAAAAAIZux8mNu3eL6LSyiL6rwDyVcUmviN7Q7cw/9uxNRx0k42fLrrm5Nd3l6I01zt8LqqMk9CQAAAAAAABDdc5Jh9+j7DT+rCyiyxSZpy7OK4vmy8stzdy217Otuxy9sMZ5fEW5ufnTehEAAAAAAIChOXPrwgHVuddlEX1PoXmq4qxeEZ3e7azLqlXHMp1qq/6yiHbWNJ9v6C1HT9CLAAAAAAAADE13uXFcWURfUWyeirihLKIzq+33t3XmHyC7udlY76zLyiK6uq753etEv6cXAQAAAAAAGIoLOvOH9jrRWxWdax/XlEX0gW6n8avbltbfU2Zza8oTm/cpi+jiGuf56/QiAAAAAAAAQ9HtrHtU2Yl2KD7XNq7sFdF7ukXj5G2nrD9ERvOTnL181J3LTvTlGuf7R89a2nCgngQAAAAAAGCgdp02t7YsopfV+AzkWY6Ly070d93O/GO3nbL+YNnMapy5deGAXhH9Z223bS+ir3WLdXfVkwAAAAAAAAzURScdfoeyiP5NIbpW0e0V0RlV0bwqhMpi+lUWzb+pcf5f0iui++pFAAAAAAAABurCpXse1iuizylI1yK+UhaNP+oW6xZkLvuitxw9u8bj4OpuZ12mFwEAAAAAABio6ozssojOVJie6DirW0SnbT/xiAfKWAahV0RPLIvohpqOh53donGSXgQAAAAAAGCgzl4+6s6K5xMZ15ZF40Nl0fz1cnNzXqYySOXm5k+XRXRFXcdHdzl6oV4EAAAAAABgoHbNza0pi+jtitUTE1f2iug93SLaes5Jh99DhjIM1QcZZRH16jpOekXzLdXcpScBAAAAAAAYqLJo/qGi9djju1VBsFs0Tv720mF3lJUMU5VjZSf6Qo3Hy/9csHX+9noSAAAAAACAgeouz6c1Pv+47lGt/n3V9k7j2F3tuf1lI6Owa2luv2qHgxqPm/PszAAAAAAAAMDAnbW04cCyiL6ikD3SOLdXRK/sdtZltp9mHHpF9Bc1Hj/f7y1HD9GLAAAAAAAADFxZNJ6roD302FltN91dbjxnW2f+AbKOsY75TvNpNR5L13U76x6lFwEAAAAAABi4s5ePunNZRJcqcA8lri+L5ie6RfTMHcuNSLYxCcqi+TNVEbq246rTfJpeBAAAAAAAYCisPh94XFWdK90toq3nde51uAxjknSX1z2o1h/MdBp/phcBAAAAAAAYil3tuf3LonGRovc+x3d7RfSGXhE98YKt87eXWUyi6oOOXhFtr3Hx/F27TptbqycBAAAAAAAYipWtnBXA9y6+XRXNu535x561tOFA2cQk23bK+oO7RfSpuo63XhF97ttLh91RTwIAAAAAADA0ZdH4e4XwvuK8XhG9sttZl1kJS13smptbUxbRm2o87i44f/N8U08CAAAAAAAwVFVhSlH8NuPMstN8XrezboOMoZ7jvPniGo+/y7dvmf8pvQgAAAAAAMBQVSs6FcdvNa4vi+YnukV0aq+I7itTqLPucuMXazwWbyg7zZ/XiwAAAAAAAAxdr4ieqFj+o7iqLJrvLpebT7mgM3+o7GAqxngnapVFdE1tx2Wn+Tt6EQAAAAAAgJEoi+azZrlo3i2iH1TnQneXG0/+9tJhd5QRTJNq94SyiC6p6/jsFdEZehEAAAAAAICRKYvoZTNaPD+n14meqmjOtOotRXcri+gb9R2jjQ+duXXhAD0JAAAAAADAyJRF8x9nr3je+PveUnQ7vc+0Omtpw4FlEX2kxuP0rG2nrD9ETwIAAAAAADBSs1lAj87tLjees21p/T1lAFM5rjvR39X4WIVvbT/pyHvpRQAAAAAAAEauOmN4hs9Av7Ysorf3OtHP7jptbq1sYErG9HKdx+T2zfOJXgQAAAAAAGAsyqL58hkuoN90W/dtZdH8g3Jzc15WUFfVhyBlEZ1f33HY/EO9CAAAAAAAwNh0i+g3Fc9vFteVRfRv2zc3Hr1raW4/GUKdbD/xiAfWeOxddvamow7SiwAAAAAAMOHiOL5bkrTiNA2/nCXhD7IknJ4l4YyVOD1N8+fkSb4lxOEhCwsLB2gx6qTavlzRfI9R9oroBTuWG5FMoRbj+eSoUePx9hE9CAAAAABMpCzL7p0l4X+zpHXmaiNJjj2yRre4JkvDJ/q5vx+P8NksDu9Lk9Yb8zS8IotDkabpVGz7m6atR/XZFp+s2nSaxsDCwsLt8yR/Upbkr86S8I0sCbv6iKuzJHwgjcOvLi4ed3id+rO65+FcQ3r/VV9Dmv/2ONurmsv2bW7oP9I0PG6c93xeccSRCuW3Gdf3iug93c78Y61KZ9L1iuhzNR1nX9J7AAAAAMBEytLwpj4LhruyuPWEutxfe2N7fd/3t+pofSVLWlvb7fbBNe3+tWkSPtfvfSfJsfeZhtyvVplncXhdloTvDygnrsmS8Hdx3H7A2MZzEk5b7fWGJIRhXEOahuXVXkOe5k8dZw7kcf7zw5sfbj3StL1x3LlfFtF5iuSrjE60oywaL6o+PPDGwCTqLjd+sabj64Zuse7eehAAAAAAmCj5Yn50loQb9qII9IK63GOWtR479KJYGi7Mk3xz3fq/n0JnXT+guPWcaGdZ0nrPED+s+MLY7i0Ob1/tdR5zzHF3H8o13Ljl/eoK6HF+zFjHQJz/4YgL6DsXFxfvPO4x0C2i1yqO91/sK4vofWWn+fO72nP7e4NgUlT52C2ir9fzA5XmK/QgAAAAADBRsjR//94VUMPb63KPedp67uiKY/lr4ji+XR3apTq7O0vyc/byXk+rZb5n2f2yJPzHsPMgT8K7xnaPSfjmKq+zHNo1xOF9q7yGG9rt9h3HOweGt4x09XkStk3CWOh1oicpiO9TXFAWzRdvP+nIe3mTYBJ0i8ZSTcfSlTuWG5EeBAAAAAAmQrV98z4Uis+py33mSfiXEa8w/felpaX9Jr9d8mfsw4r7d9Qp19vt9v4rW5tfPZoiaf6X47jP6uONLAnXr7LI/95hXUeWhB11mUeyJHxtpPNDHN49CWPirKUNB5ZFdLFC+CBWpTc/XBUvz9y6cIA3C8Zl19zcmrKIPlvHcdQrojP0IAAAAAAwEfIkfKru2xCvxo3nlI/2jOMsCX8xyW1SrfrNknDRPtzfuXXJ8zg+tpEl+cdH2/+t3xnHvaZp+6f7+AjiJcNp7/hufbTTO8eZG5s2bTooS8J1o12Bnr94UsZGWUR/pQA+yGhc1Cui03tboqO8YTCeMd38mZqOn+u3deYfoAcBAAAAgLFK0/DEfS0EhTgkk36fKwWya8dQQN+VpuHnJrVdqjPsp+Ec59uSb8zTLAkXj7rv8yR/0nj6tfVLfayELobS5nHeWnU7pa0XjTM/QhwePobc2Dwp46O3HD2kLKKdCt8Dj529IvqPbqfxC9VKf28cjFLZif67ph+gvFnvAQAAAABjU20vnsXhrH0vEOe/Nun3mmXZQ8dRPF+JL83Nza2ZtDZpt9uHZkn4/rR/QJEn+aOzJFwxlr7PsoVx3HMat17eR/89ZEjtvvqjAeLW0ljnhzicPPoPa9INkzROyk70DgXvocZ3q+2py5OaD/b2wSj0iuiYmn4Ys3P75vmH60EAAAAAYCzyNH/qQFZSxuFvJv5ek3zLGAvou7KN7eMnrU2yJLxyMCtpW78+wf3+pFFvzX2ztsnzw8bSt2n+4VVe4zUbNgxnZWyW5K9ZbTvFcfsB450Lw8tGnBvXDqvd91ZV2L3xHG/F7hHEmd0i2nrB1vnbexNhmHpF9J46jpFuEb1X7wEAAAAAI9dutw/OklAOqBj0yUm/3ywJp4+zgJ4mrddOVP9vbK/PknD1NH9AkaatR2ZJuGps/R6Hy8eY7xet8vzzLw7tGuLwmVW21dXtdnv/Mc8PHxjDrhQTpyyiNylujzQuKYvmy7efeMQDvZUwDL1OdHRtP4zZ0sz1IAAAAAAwUnnSevYAi0E/mJubWzvZ9xveu9ozvVdWzp5xq5Hm78+ScFn/bZSfM0ntkSatNw7uLOfwqUnr7yRpP3gA29NfX91bloQ/StPwC0nSekSapvevVktnWbZYnWGdpeElWRI+e2Pe/FgB/ayx5HqeH9bHhx1vHNJlrO1jnPzfuPMlS8KOVeb6JXucG/qISd214bzOvQ6vthpX2LYqnelR3w9jmp/QewAAAADAyLTb7UOyJHxnkCsqk+TY+0zyPfex2v7c2/q3jl84/i5p0vqHfttoYWFhIgoj1ZnXWRJuGPBK67UTlN93zJLwtX24p29lSfiDNE3nV/s3q/xfKY5ef5N2ed847j+P8+P62H7/2cO4hpX2WO0OBq8fZ77EcXy3PnL97dP+fCiL5q8rZo81vledlb5jS+Oh3lYYhO0nHXmvsoiuqeN46BXRz+lBAAAAAGAkhrKdedx6wqTe78oHA6tckRv+bZX/7JosCR/qp41CCPeahPboYzX+rj7OsD5qcvI7f8Ne3sfVedp6/glHn3CHvf3baZpuyOL8v1d2HXj1OO4/jfPfWnW+p61NQ+mDuPWEPtr9d8eaL1m73ce1vmDanw+7TptbWxbNDytkT0DxcDn6ZHe58YtWpbOvyqLx6lqOg070hWpO0oMAAAAAwFBVq2qzJFwxhDN9T5vUew5JCKteDZu2XrT6tmw9qq82yrLF8fd/Kx/KGe9peOJk5Hf4ub09kzpsDAM5h3hhYeGALMn/PkvCqeNogywJf7f6Dx+ObQzpGl6w+t0rwgnjzJk8yZ8xDR8KDdI5Jx1+j7KIzlfEnpj4frUqffvm+Yd7i2FvbN9y5BFlEV1R063cN+tBAAAAAGCosjT8bT9bWa+c+Xvb/7dpeMfE3nMcfqOPAtnSav/daiv3voq0G9vHj70tkvDJPq75q6suoMf5C8d9b9UW+Vkczuu/eN56576sOt+DNUmS3GMc7ZAn4X9Wee/fGdY1pEl426o/WsnzI8Y7JvLX9PERzL1n5VnR60StsoiuV7yezLPSv7102B290dCPbid6aU1z/ptnbl04QA8CAAAAAEORZdn9siRc28/WymkSPjqos8PHJY/D3/SxFfkDVvvv3rjSuJ9z4lvxeNsh//n+rjecUBVZV1uEHnc/p3H+h/0Xz/N/brfb+0/RMF9bnUm/uo9F8v8e2lyThG+Mu4jfx7V+epXX+oPqw4hZemZ0O41fVbCe8FXpW+Z/ytsNq7HtlPWHlEX03Trme/XRiB4EAAAAAIYiS1pv7aO4eNHuFb1JOGOV//c7FxcX7zyR952GT6zyHq5cWlrab7X/brVytr9tztP7j6sNqvvKktZXVr0qOAmfmrtxNfOnVleMDeeNs4/TNL3T6ov9P4oPVB9BTNMYD4vhvqvOxyT/y2FcQxzHt8uScP24i/irtCZLwvdX2WafnMXnRllEL1Osrseq9IufcuidvOnwE8dzp/m8mub4+Rdsnb+9HgQAAAAABipN2z9dFblXfxZ4/ttzNxbdf2fV/83GPJ3AW++nQPa//bVpX+dt37Bp06aDxtUIWRyesjfbza+c5b2qDyiqLe3HeH+/3+fK8+1Zlt11+sZ5eOLqP5Jo/cowriFJWo8YdxF/1XmTZffuI2dePYvPjl2nza3tFdEbFKlrsUr3B9Wq9HJz86e99XBrLjrp8DuUReOimp6F/iw9CAAAAAAMVJaE/1h1oSgNF1arz+f6LBLnSevXJ+2+k+TYI/sokP19f23ax9nJSevr42qDdrt9cJaEbh/9/4mb5M2pqz8fup2N6RbX9nV/SdgZkhCmdJy/oI/zvBeHcQ1pGn553EX81cqT/PF1nt9GpSqil53m6xWpaxVndYvo1N5SdDdvQNxUrxM9o6Y5fcnZy0fdWQ8CAAAAAAOxcpb16lfnxuGZP/xv+1mhWZ01Pmn3nsXZY/pddb8aK1tlX9NHm75ubG2QhN/tb6v51iN/+N/2U2DMktbTxnJ/G9vH93V/SesfpnWsp0l422p3RGi323ccUr79xepzrb1xrPNDEv5gtdca4pDM8nNkdxG9iF6nMF27uLzqt97maHEO5ubmzlracGBZNLbVcpeF5eiFehAAAACAsTjh6BPuUG1tvKeotsTWSrWyJktaZ/ZRYLygOsP4Jv99tbr3yn7OzZ4kaZo/p99ty29Lu90+NEvCl/op2uZJ/uRx3H+1rXqehEv2ZvX5je2X3r+P+zxjHPeYJfkb+rjGa6tdCaZ1sGdJ+Noq2+HSLGltHU6semzsrM6uH2d75Un4lz5y53f3qV2y7N7TkGPdInpmWUQ3KEzXMJYbX61Wpe84uXF3r0azrSyap9Q0jy87r3Ovw/UgAAAAAAMRx/HdkqT9sDQNj8uS1m9mSfizLA1vqYplWRq+mMXhvCwJ361WJa6ykPC93WcIJ60vZEnrPVka/ipP89/Lk/xJcdw+qiq6avXJkCf55v5WH+dPv+W/seqCWBwun7S+z5L8n1d770mS3OM2/rk1N67IrnK/n/O2ww9u8VHCyKRJ/uK+rjVrt2/637fb7f2rovMq//tPj+EWqzPuv9XH6vM3TvE8f7ssCdf3mZvjjHPHPz+Er47qfvM4P2Zacq1XRMtlEV2lKF3buKIsGv+wffP8TO+qMMt2Lc3tV23zX8v87TRfoQcBAAAA6NfaLMvul6bhF7I0vCRL8/dX51mPvDASh8uzOHwmT8Mr8jj/+WrFrq4ZvYWFhQPyJJy9D6vPd9v9scUq/42VDygmRpaEL692ZXKWhNNvPfI/z9LwpiwJO/aqcJaGsfzYm+f5EbvH4uqv9b/20IZfm9QPKPLF/Oi93Z5+2mRZtlCj4vmuNAn/Ns722rRp00FZEq4b0f2OfbX9oO0oGg8ri+ibitE1j0705XK58WvemGZPr4ieWNO8vfqCk+fX6UEAAAAAfpK1+cb8p9I4PCuLw/uqla4TWizZmSbhc3naelGatn/aNvCjUZ1J3V8/3foZ1lW/rb5AGZ44Kfe/YcOGA/tYPT2suDKE0BzH/Vdn0ve5Qra1hzx656rPiV4M9x1xjv9mH/d48TTvjpEn+Sl1KqBnSfijcbZXtSvLLK22H4azl4+6c1k03qwQXes430r02bRrbm5NWUSfremHH3+nBwEAAAC4mRvPX25tzeLw9iwJ36lZweSHUeZx60/iuP0APTocu8+y72/3gbJakXlr/1aahuVVF9Dj/IWT0gZZlj103Lmep63nj+Peq0J2Xx8PpPmH99iO1W4Wqz/r/Ukj7eMkf00fH4i8dZrH/O6dEuq0Aj0NvzDW9orDybOy2n7YusuNJ3eL6FuK0XU7Ez16//YtRx7hjWl2dYv542uav9dv68z73xAAAAAAs646wzxNwy/nSfjgCLecHVV8uirQVquF9fTgZEn4gz7PPt/jFq79bQ3deuektEGe5FvGnNv/u6ePEobe/3H41z63Ns9/Qjue0scHAy8acZ5/rI8cf85Uj/k0/3Cd5v6wMTxwrPNDGl42wvv942l/5ly4dM/Dyk7z9WUR7VScnvi4pFs0TvKmxNyNW7n/Rx3zuNeJ3qr3AAAAAGbQ0tLSfnmSPz5Lwr9PwDbUo4jz87T13OMXjr+L3t83WZbdNUvCd/to++5PKvTuXs2ehJ2rPAf7vIlphz5WTg8hvhVCuNeY+r9aeX/D6leNhw/+pH8vTdsbJ3WlbZaEC/pYHf/kqR73SbioRvP91e12e/8xt9cHRrja/sRZef5U24GXRfP/FKknddV581/POenwe3hT4od6RXRMTT982Vlubv60HgQAAACYEe12+5AsDs9Mk7BtBormtxbVOe6nK6Tvvf63cm5tve1/M5SrPe9+cXHxzpPRDrs/PhlHDn83xOHhY7vvflciZ+3sNuek1RfQt424j6/qY5X9I6f4uXFozeb5z0/A/HD+6Aro6YZZegZVZyt3O/OPVUifqO3aL+x1oifNwa0oi+idNc3tD+o9AAAAgCmXJO0H53F4fT8FoSmPb6dx+NVqJb7sWL04PraRJeHKflafr2b7/H6KsvnGPJ2Etuij6D+4iMN549yaOsva7b6uN83fv8q2XO3q5p1VwX0U97qwsHBAP/eaJK14Wsd9SMKxtZrf0/CP450n47uN8H6vmdUjShTSJ2OVbq+I3tBbiu42uHeM/KVp2trkjWt6nL9l/v5lEV1Xxxzf3mkcqwcBAAAAplActx+QJa0397Pl8ozF53/S+czcXJq0/qGf9s3T/Kmr+XfzOLyqjxXtTxt3O/SzanqARcE3jap4vAdrsjh8pr/V59niav7hLAkfGcR56oNU7VLR5znvU1vwqXYtqdO8nsbhWeNsrzzOWyOcF74468+lXafNre0WjaWyiL6ooD3SOGdH0XjkAJ8vJ2dJ+M7ud4c4P84b13QpO83X1zTPP633AAAAAKZIe2N7fZaEM7IkXKdIfturWqu2mpStwSdVtU1wloTr+9y+/Z1ZGt5ym5GEL/VRMPrb8bdFKx9hfv7vJGwPnsWtpT6v+4pV9f2N/d/tYxX+b4xkDm23D+4z10+a2rGftF7bR1tcWh0zMIS4ui4fM6Rp/vQ+jxXZ63ap+sbT6f/rdtZlvSJ6T03PXK5L3NArojO+vXTYHQfybMmye//YLjRZdm/ZPF3OK444siyiq2uZ81uaj9ODAAAAADVXrVBdWc2rcN5/dJMknCCLbl2ehHdNSD+NfTVQtQp+yPd4aZbkb6hWsk7IvLJ/loSvTUb/568ZXT/39cHIadM69rMkfHa1eVutJB3KNdz4ocVqzwSfH3N7ndHHLg3rPF0Gr1dE9+0V0SvLIrpSwXuA0Ym+3CuiYwbUTWuzpLU1S8JltxgX11VHaMji6VMW0avqmvfVThd6EAAAAKCefrj95UUK4fu8Gv2Vs3qm7J5UW3GvtM34+ygOl1c/vI+1PZL81X0UfLdnSTh3D/G1LGmdmSfhg1XRLU/z367O0p604kGa5r82MWM0Dp8ZXT+H81d/Xfl/T+nwX3srBa49xceG2Ber/YDjO+NusDwJn1rltX5vWB8ccKMLl+55WLeITi2L6HwF8H2Ka3tFdPrZm446aBD9EuLwkD1+mBOH82TuVI/HH9RxDPSKaFkPAgAAANRMlmUPzdLwCcXvwRbpqm3wZddKjsX5f09S/4TFcN+xtkcSPrnKa71qaWlpvzr3fRzHt8uS0JugsTmyDyiyJP94H9d21QlHn3CHaRv7cdw+qo82+OthXMOmTZsO6mNXlY+MucnWZEn4/iqPo/iEp8toVIXfbtE4uVpJqhje/xnQ3c66DYPoh+rjsCwJp2ZJuOYnjI3/kLHTqyyaL67nOGhsO2vJx7UAAAAAtVBtq5ynrRfZrn1ocfGkbKE9TlmcPWbS+iZP8ieNsUnWrJzzvJpr/b+693+etp47cWMzy+43invv8+zv6hz0p03f+G89YfVbp+e/NoxrCHF4+Krnhji8apztFUK4Vx/X+jfeZEbPOemrjiur1fu7luYG8hFYtbtKFoezbnMeSVqvlaXTa9sp6w8pi+g79RwTzV/XgwAAAAATbveP9FadjyKuy5P8GTOcatX2zZ+ftH5J4/yF42qQJDn2yD4KZK+vc+dnWXbXLAnfnbwdIlpLo7j/PM2f2ue1fXPcxwsMvg1az191vm/M06HkYdI6qY+PGLaOs73SNDyuj90UfsPbzPj0OtHRvSI6wznptxofrc6RH0Q7Lyws3D5LwulZEq5f1TyStp4rO6dbtxP9fk3HxQUXbJ2/vR4EAAAAmFB50vqVPs6kFQOJ/KWzeFZtFoeTJ7E/0iT82/japK8V+b9b67kmDS+b0DH5R6O4/zhuP6D/jzvCs6ZqDkhab13tvbfb7UOGcQ1p3PrT1V5Dtcp1vO0VnrfqoyiSELzRjN85Jx1+j24RnVYW0cUK59Gl3SLaumtA7zt5nP9MluTb+9xhZrOsnG69peh2ZSfaUccxUu3KoAcBAAAAJkyapnfK0vAOxexxFW1b/1Btmz8r+bZhw4YDsyScO6EF9G3jG4f5c1a/pXXrUXXt/zg+tpEl4YpJ7P88Ce8aVTtkSfhGn9d3TbXl+CCvoTpbvZr/x5EHWdL6+irvuxzaNaT5+1d5DTsXFxfvPM5xkyfhX1abK8ccc9zdvdlMjh+dk15EZ81i8bza1r53ctQYRFtWH9NkSTijGpN7cUTHomycfmWn+bS6fmTSW4rupgcBAAAAJkQct49azdmRYviFu6qwPAs5l8b5b01wX+wc1mrX25Il+T+vekXuI9r3rGv/Z0n4uwneEWL7yMZBkr+47+tLw4VZlj10EH+/2hY9T8LZ48ildrt98Kq3XU7Ce4eYi71Vbol+3tjHzeqf0zu82UymavV1t5g/fnbOSW9c1C0aAzsWI8taj63ye6/fs/L8MFk4/c7cunBAWUTn1PQs9BfrQQAAAIAJkCThhIk8h3hWIw7v27Rp00HTnHPtdvuOWRK+NdH9kLWzcbRNloQvr/IaL65r/6dpev8sCddN8gcU1fnsIxkLG9vrV1tEvkVcWm33v7d/NyyG+6ZJ67VZEm7IknD1OI6QyDfmP9XH/Z4+pLnokNWuYh3lzgS3pnouZEm4dnUfWeTv93Yz+XYUjYetnJN+1XSuOm++ZcfJjYHshFB95JMm4W37OLdfJutmR68Tbanp2Ll829L6e+pBAAAAgDGqzlDey+KNsBJ9X/LutD4/KjgvS/MP73P086FIHH5j1O2ysq39NavcZv4/a9v//R8V8aUB9f91k3h+dBaHt+/DfPHvq12NfuNW7eHnVv7eDTeZb84eRx7kSX7K6o8rCMvDuIY0beV9tPUfj3PcJEn7Yatur7j1p95w6qMqlq2ck37JlKw631YuN08YUPOsyeJwcp6ESwbwfvUl2TY7dp02t7bsRF+o6Th6lR4EAAAAGI81adx6uWL1JEfrzXNzc2unLfGq7VOzJPygn7ZIktYjBvG3szj8ax9/94yRt81ifnQf1/cXtez/OD+mz3NrLxvUlrtZEr62+oJt/vQRjokHDeBDpm/kaXhZmoZfzpP80bvbeWP7+KrwnMb5C7Mk/Fe10nySPsbIkvzPV/1R0WJ+9HCuofW0Por4J4517CT5lj7y4fNZGt6yr5EkyT28Lo3OtlPWH1ydk94roq/VtOi3s1pR/+2lw+44iPYIIdxr5eOngbxXpUn4N1k2W8otzcfVdCxd2y3W3VsPAgAAAIzQ0tLSflmS/70CdS3ir6ct//I4vKrPDwneObC/nbZe1McK9M+Mum2qYmcfxbxfrmP/rxRyV1/wiPMXDqx9k/Bvqy+0tF472nbJXz2ueSZNWv8wplz40Cqv8bphHWuRx+Fv+jg7+UHjHDvVqvIR58bV7XZ7f29No1etnO125h9bFs0P16jg981eJ2oNqAnWZklra/UB1UB390nDK2TX7OktR5+s6Vno/6j3AAAAAEak3W4fXG0PrjBdqzPRf39q8u/G856v7vMs6ocO6u/3tYIzDpePegeA6pznVRcC4vyYuvX/7u3D+8v/7w3yLPIsyV/ax9/+7CjbptpePUvyc8Y0z5w2jnzI0nDhKj+i+crwxlz+8dUWkxcWFg4Y5/ipzjUf7YcV4XPemsZv++b5h/eK6A3VitRJXSnbK6LTz9501EA+ckmS9oOrD9iGtLPPb8qo2VNuaeY1XYV+w44tjYfqQQAAAIAhu7FAs+oVf2JyYmeahl+YhhzM0vCmvu49DW8Z5N+vtoLv5++HxXDfUbZPnoT3rvLabmi323esWfevrQpyfeb+Hww0/+LwlD7+9pXVbh2jbKAQh6TPD0wGtCozf+qok6Hdbh/a53EWw5mTknDpKq/hC2OfP5OwY6S5kQarHyfI9i1HHrFyTvp3JqXA1y2iz2/fMv9Tg7i/6gOVLAmnDnUOjLPHyKTZVBbRB2taRH+n3gMAAAAYojiOb5cm4aOK0bWNK9O0/dN1zsGV871v6OOebwhxeMggr2FxcfHOfRUWk/zJo2yjLAnl6q4rnF27/u/v/ObqHi+p+mug7Zu1s75W4Kbp/UfdTlkcTu7zjPh9jiQJJ4z6PtO09cg+rvF5w7iGEEKzj23u3zjO8VPtxDDyrf3j8CxvT5OnOl+8W0Rbu0X09TEW9a7sFtGpu5bmBvKRUZK04mqniaF/LDTmYxgYn26xbqEsop11LKLvWG5s1IMAAAAAQ7Bhw4YDsyR8QBG69tHN8/ywuuZhv9sP50n4p+Fcx2q3ja5W5rZeNKr2OX7h+LusunCahnfUbw7qe3vyUwd9HdX46a+APp6dH1bO/r1hZIXScXwokLR+s49+eNwwrqGfIwXypPXscY6hkIQw8p0J4vxnvEFNrrGdk96JPnb+lvmBzBkLCwu3Xzm65PpR7OZT/T2ZM7t6neitNV2F/hG9BwAAADBg1RbEWRz+VfF5OiJNwn+OelvpQdiL4s/1cdx+wDCuJUvCR/oo4r9rVG2Upq189StD8xfWqf/7KZauxMVpmt5pSP3/nT6u44/H1WZpGparnSdGMa+Mo6iUJq3XrvoohRDuNaRcOHX1RfzWpnGOoTTNnz7y502aznuLqodqde3KOenXDbGI971uET2zKtwP8L3gmyM8kuBCmTLbdpzYuN+Qx8jwjktYbhynBwEAAAAGZ00Wh9cpPE9dnFa3RMyT8Kn+PhRo/cOwriVLwhmrv5Z8+6jaKEtaT5vUreX3RXVWe5aEi/rL8dbvDLH/P93HdbxnnG0X4vDwLAnfGPJ8cvE47i1LwmdXeX2XVc+yYVxDtS37atspjo9tjDMX+pu3BhLf8QpVP9s2r1/fK6LTyyL67iCLd73l6N/P3zzfHNAz4ZCVfN454pz+pAyhLBp/X9NV6P+7a0jPQgAAAICZkyX5nys2T2XcMI4zi/dWmoYn9nl/1ybJsfcZ3rgIv9vPlq/Vj/2jaKc8Dn8zyVtu70N7n9Zn/18wzBXReRxe38+xCeNuv3a7fXB1lMCwVqPnSfifMdzW2qowvspr/PTwcrP1hVVew3fHnQf9foQ0gLBlcI1d/JRD71StFu8V0fZ9WvVaRN/qFo2TBzbmstZjsyTsGMe707COhaFeLjh5fl1ZRFfXsYjeW46eoAcBAAAA9lGe5KcoNE91fCdJjj1y0vNw5QiBs/q7t/w1w7ymLM4e0982xq18FG2VpeETq7ymK+uyjf/KmePf76+986cP85rSNH9OX/mYZXedhLZsP6J9z5WPoi4dVOE8T1q/Uu0QMOp7qT6QGfd80G6398+ScPUqj8746Ji7f02/42jfzz8Pr/ImVX8/PCe9txx9su9iXdF8ywWd+UMHN3+13jrO96bqQyQZQaVXRH9Ry23ci+jru9pz++tBAAAAgL2UZe1stYUBUeOIw2c2bNhw4CTnYr4xT7M0/3A/MewPA6p/v5/rSdPwcyMZt1VxYTXXk7ReW5u5KGmd1E9bV2fOb9q06aAhz4/tvq4pzx80SW1arUjP4tbSyvbj/azkvDRL8/fnSf6MYe7wsLox2HrEqvsgbi0N4xqq871XfQ1DPFJgNeI4vlu/8+i+Rh7nP+9tarr0cU76+WXRfPzA5ty4tZQn4ZLxvze1fkkWUKk+DOkW0Q9qehb6L+pBAAAAgL3Q3thenyXhWwrMsxFp3Hq5rIfZFUJo5nF+XJa0tmZJODWPW3+yO5LWs6v/t+oDkCzL1mkpoFKe2LxPdzn6y7KILrtFce6astN8RbX9+4DmpntlSfjQxLwzZe223ueHusvRC+t5Fnpj29mbjjpIDwIAAAD0YXFx8c5Z0vqKwvJMxc7qjHHZDwCs1reXDrtjWTQ394roBb1O9IzziiMGtfvL2pUPei6bqPclHxJxE2cvH3XnsoguqelW7r+pBwEAAAD6kCX5Pysoz2RcWq30MgIAgHFJkvaDq+NlJvA96ZqlpaX9ZrlvFhePOzyO49vJ0v+vLJrPqucq9Ojbg9opAgAAAGDqpXH4VYXk2Y08Cf8z6eehAwDTZ2Fh4YDqCIksCVdP6HvSN2f6fyOk6Z2yJPxflmULsvX/23bK+oPLIiprWUTvNJ+nBwEAAABuQ5qmG7IkXKGQPPPxZ0YDADAqIQ4PT5PwuQn/yPCDs9o/Kx83fKBqhzQNvyhjb65bRFtrugr9eztObtxdDwIAAADsQbvdPjhLwxcVj0V1Hnqe5I83KgCAYaq2A8+ScHqWhOsnfpeeOPzNjHbTmiwN//ijdkjDy2Tuze1amtuvV0Rfq+VZ6J3opXoQAAAAYA+yOLxO4VjcJL6bJMceaWQAAMMQkhCyJHyjPsfctJ49k/8bIcn//GZtkebv7+e/722J2mXRfHe53PyNXhHdd1rbqSyam2u6Cv3KcnNz3owEAAAAcAtZnD1GwVjcSny62rLTCAEABmX3duBp+Ntqx5tavRfFraVZ66s8zX/vVtpiRz//RrncPPEWBdvzyqL5N73l6AnnLt37LtPSVrtOm1vbLaLP17OI3vwbMxMAAADATbTb7UOyJJyvWCxuPVq/Y5QAAIOSx60/qeM7UZq2f3qW+ilLWift8SOHLLvrav+d7vJ8+hOKt9eXRXRmr4hO7xbzx5+5td4fbm7f3Hh0TVehX1ue2LyP2QkAAABgRZbkf69ILG498jeccPQJdzBKAIBB2H3meRwur+N7URzHd5uZ/30Qt382S8K1e/6YoJWv9t+qVpmXRbRzlYXcS3pF8y3dItp6wcnz6+rYdmURfaSWZ6EX0T+ZoQAAAABuPHvy2NptnylGEVfmSetXjBAAYJCSpPWImr4bfW/G+uiy29ih6Gn9/JtlEXX3srB7bq+IzugWjaWLn3LonerQft3Ouqymq9Bv2FE0HmaWAgAAAGZatbI4S8K5isXiFvHVJGk/2AgBAAYtT/LNtdy+PQmfm4X+SZJj75Ml4aJVtMlf9/PvdovovQMo8F5VFs0Pd4vo1G6xbmHX3NyaSW3HsojeV9Oz0N9tlgIAAABmWhq3Xq5YLG4RZ1RbqxodAMAw5GnruTUtoL9t2vsmSZJ7ZEn45irb46P9/NvVGedD2HL8Wz/c7r3c3JyfpLbsdaKjqxXddSyib988n5ipAAAAgJm0srrkGgVjsRI/yOJQGBkAwDClSeu1dXxXytPwsmnul8XFxTtXq+z7aJPv9vPv9zrRlhEUf8+qCvXdYv74s5Y2HDjuNi2Lxr/UchV6J/qYmQoAAACYSVnSeucsFIbTJGzL4vD2arVTmoYT8zhvpWm6Icuye1cRx+0H5HF+TJ7kT8qT1rOrFdhZGj6RJeG6WSmeVz+WhsVwX6MCABj+O2j4j3q+M/V35nedbNq06aA0Cf/Zb5vE8bGN1f6N6mztEReCL7/pdu/jaNdeEd23LKJra7qV+8+YrQAAAICZkmXt9hQXhHdmSfh0GodnhRDutbdtdPzC8XepiupZkr+mWmEzte2Vhr+qfjQ1KgCAkbyHxuG8Wr4zxe2fndIuWZvF4V/3pk2SJJyw2j9y9qajDiqL6LoxFoXP7RXRGd2isbTtlPWHjKpxu53oNTVdhf6FXafNrTVjAQAAALNibZ/bM9Ylrs2S/A0hDg8ZdIOdcPQJd0jT/NeyOJw1Re31veoDAcMBABiVdru9f113+UnT9P7T2Cd5Gl6x99va57/dz98qlxtfnZAC8fVlEZ35w+3ed7Xn9h9W+1Zns5dFdEUdi+jVxwZmLQAAAGAmpGl43PQVz1tvzbJs3Qiab02ahidmSb69zu2VJ+F/9mV1PgDA3th9hE5Ndzhqt9sHT1t/VEcc7duq/PC6fv5er2i+ZUKLxZdU19Ytoq3nb55vDrqdy07jz+q5jXv0jWF+XAAAAAAwMbIkfGxqCudxOC9NW5tG3YYLCwu3z5LwR1kSrqrbj7/VKqMNGzYcaCQAACN/D93YPr6m7529aeuLPMm3rBx9tC/v4p/p52/2OtHza1I4/tF2799eOuyO+9rWO05u3L0sou/XsYjeK6JfNnMBAAAAUy1JWo+YopXn/55l2V3H2Z5hY3hgjbZ1/14Wt2zDCACMTZa0ttb0vfNj09QPeZI/ekBb6V9W7dC02r/bW46eUMMi8pVl0fxwt4hO7RbrFnb1cb83u/f6fDxwy7PQd/SWotuZvQAAAICptXur8/oXznfmaev5c3v549WgLS4u3jmLw9snfMv2T41oi3sAgD2/i6bhJbU8/iYOr5+WPsjj/JgsDpcPqm2S5NgjV/u3e0V035puZX6TaFz0w+3et2858ojV3nu1kr36b2t6z79t9gIAAACmUntje32WhOtrXjy/oVq5NIHNu2ZlS/eJ+9ggjVt/urCwcIARAACMWxaHf63pO+gLpqH947h9VJaEbw32Q8380av9+7tOm1tbFtHl9S+i/yhuKIvozF4Rnd4t5o8/a+knH5PU7US/X9P7vPjs5aPubAYDAAAApk6etp47BcXzX5roNk7yZ+zzWZKDi4v7+UETAGD470rhf+r5Hto6qe5tn6bpfJqEbYPf6aj17H6uoyyi/52iAvot4/Ifbfe+vO5Bt7z3qghdFtGltTwLvRM93wwGAAAATJ0saX2l3gX01u/UoZ3zpPXrE1BE/1h7sR3JegBgst6TwiW1fA/N2lmd2333kUNJ+PxQ2iYN/9jPtZRF4x+muIB+yzi3V0RndIvG0rlL977L3I3nwL+kpvdy2TknHX4PsxgAAAAwNbIse2jNi+dvrlV7J+F549qyPUvCK23ZDgBMmpUibi3fRavV23Vt9w0bNhyYpfmHh9g+/9fP9ZSd5u/MUAH9pnFtWUQf6RXRX9T1Hrqd6KVmMgAAAGBqZEn+0voWz/NzTjj6hDvUrs3T8LcjbqtvpWnrUbIdAJhESdJ+WE3fR6+am5tbW9NmX5slrbcOuX2uXFpa2m+1F1QuN0+Y0QL6VGxRf0Fn/lCzGQAAADAV8iScXdcCep7km+vY5tUPiVmav39E7fRfeZ4fIdMBgEmVpuGJNX0f/Vpd27zamWgUbRTH7aNWe03l5ua8QnR9o1tEp5nNAAAAgNrLsmxdjbdv/9+5ubk1dW37Y4457u5Zkm8fYvtcnyXhtH5W/QAAjEMah2fV82PO8N46tneetp4/sjaK85/v59rKIrpEMbq28b1tp6w/xIwGAAAA1Fqahl+s8dnnJ9W9/ZOk9YgsCVcPY8v2JAknyHAAoA6yJPx1Ld9H0/BXdWvrPM2fOuJ2el4/11edBa4QXetV6Kea0QAAAIBay+Pw+poW0K8+fuH4u0xDH6Rx/lsDbpsPJUlyD9kNANRFFof31fSd9Hdr9d6ZhsdlSbhuxB+9vrmfayyXG3+tEF3rOG9XjXcJAwAAAKhW+3Rr+mPlv09RN6zNkvCxAbTJdSsrfNbKbACgXu+kra/X8p00bj2hNm2cZYtZHC4fw65RX+nnOstO82mK0HWPZjCrAQAAALXUfkT7nnXdvj2PW38yTX0RFsN9syRcuQ9t0kvTVi6rAYAaWjukI22GHknSflgdGjjP8wdlSfjOmNrpuk2bNh202mvtdaKWAnTdo/EPpjUAAACglvI4P662BfQkP2Xa+qPaAnTvzt7MP7y4eNzhMhoAqKMQQrOu76R1OFIojo9tZEm+fazv7ov50au93gs684cqQNc+Lr/4KYfeyewGAAAA1E6a5k+v64+V2cb28dPWH0tLS/tlcfhMH+1wbZ7mvzfnjEEAoMZCEkI9P+gMl0x621YF/ixpfWHcbZWmYbmf6y6XowsVoesdveWoMLsBAAAAtZMl+avrWkBP09amaeyTle01r1lFG3STpBXLYgCg9u8/SX5KTQvo/zPJ7RrH8e2yJHxsQtrr9H6uvVdE/6kIXe/oLkdvNLsBAAAAtZMl4SP1PQM9//kp7pc//on3H4d3x3F8Nxk8e5IkuUfYGB6Yb8zTLGs9Nk3DL+ZJ/owsCadmcfj96sfpW8Tzqv+/NM5/q/q/rf6bLGtnaZpuWFxcvLMWZZa12+1Ddn+0lGWL1a4meZI/KYvDyVnSetruMXWLSOPwrDxp/UoWt5bStPWo6r+L4/YDjjnmuLtrTdg3aZy/sJbvpHH410lt05Wdjd4+QR8bvLef6+8V0SsVoWteQC+ib+2yUxYAAABQN1kczqvvCvT86dPaLzeuFsrPuZX7vqYqhNqyfXpt2LDhwKqgl6bhiWmaPydL8r+vzrjPktbXsyRcNYSxdGmWhi9WH2VkSf7naRp+OY/zY9I0dWYlUzCXHtvIsna7KnqncetPq0JXluQfX5lfrxzwWLoiS8JX8yR8MEvC31Ufr+RJ/vgsy+5tzobbliatN9bynTQNL5nUNs3j8KoJa6+yn+vvFtFWRegpiBOb9zHDAQAAALWSJeEHtS2gJ62p3hIwj/OfsWX7dKtWv4YkHFutas2S1ptXiuTXTcgY25kl4dw8Cf+UxeE3kqT9sGolm15jEu3+8GRj/lN5mj9199EkcfhMFofLJ+iZ9YM8CZ/K4/A3eZJvCSE09Rr82DvpJ+v5TtraOontOakr+vvZQam7PJ8qQE9BdJodMxwAAABQGwsLCwesFMl21TS+Oe19dONqyepjgfC2qtgqa+stjttH7T7jNQ6vWymW1238VUXAd+VJ69dDCPfSo4xLu92+48pHRn9844rycHX9PgIL27I0/GMWh6csLh53uF5l1mVJuKCeOyK1HjV5bdnaOsHtla/2Ps5duvddyiLaqQhd92j8kRkOAAAAqI32I9r3rHHx/MbIsoVp7qM0TeerYqVsrekYq85XTvInp0nrtdW2pbUfbz++6q76COD0anW63mbI1lQrzNM4/8MsCZ+eoJ0aBhU3VKtv8zT/vbAY7qu7mTU3Hl1Tz486k+TYidqeOk3D4yZ7jmw9rZ/7KTvRDgXo2sebzHIAAABAbaRpuqH2RYc4vE5PMknai+0oT/JnZHH+31NY5LutYvppWZbdTxYwCLu3ZU/yR698gHL+7Iyl3fHlLAm/myTJPWTCDD5H2u39syy7d4hDksf5z1fHaKxsx3367iMKknBGluR/n6XhLTdG/v4szT88mAjv+P//7q3E7h1UwhlpGn7OO+nuuL6aqybn3b69MUvCFZPcZtVRFv3cU1lEH1CArns0P2FmBwAAAGqjWr09BUWGK2x9y7hVRa4sDs9cWRm7c8YKfT92dnqahP9M0/ALk1RUoDbWZlk7y5LwyiwJ35rxsbS7OLe7qBm3lqpjV6THVFqTL+ZH52n+1N3F8Th8JkvClTX4aOqXBvpOGmePqeX27UnYNimJtPIRwncnvt3S0FcxtSwaf64AXfcz0KMvm+oBAACA2ghxePiUrHx9s95k1FZWxz45i8O7syRcq9B3q3FRdUa1j1y4LdXOBWnc+tOVnDF2bj261Yc6Jxx9wh1kTL0tLCzcPtvYPn7lQ5FeHfMxj/PWQOeApPWbNR2X/zUJOVXtfrN7jqhHm32v+nBktfdWLjefoghd++ia+QEAAIDaCHF4yLQUFqrzHvUooxDHxzayJJxa16LHmOLqLMnfYHt3bqrdbh+cpmE5S8JH7NzQR+EyCZdU23nneX6YLKqVtVnc/tksDm+/cU6seS5m2bpBNk6ehlc4SmjvHHPMcXfPkvDVac2f3uZoUQFaAR0AAABgZPI8f9AUFRXObz+ifU+9yrCEJBybJeHfsyTcoIi313FdmrTemCTH3kdGza5qR4KV85y/bUzs2xEmu1ftZ9ldZdXkqj66ytPW87Mk3z5FuXfN0tLSfgN9J03Cu2raFs8bb37Ft6u2RK/fhwfZY1Z7j99eOuyOZRHtVISub3SL6OueBgAAAEBtpGl6/ylblfcpZy4zYGuzrPXYlTNpFewGF9WW92f46GXmnjkbqtWaWRKuMgYGGt/JktbvbNq06SBZNjmS5NgjV7Zon8Z8/8ag2ytLwpdqugK9GFeOtdvt/bOk9Z6a5tDv9nOvvSLarhBd3+gV0ec8FQAAAIDaCCE0p+1H3TTJ/1LPsq8WFhYOyOLwlCwJ5yrODTUuy5LwgmoFnaybXvlifnSahLfZpn3ohbzz8iTfLOPG/m51r5XC+dVTnG8fGHS7rTwPatcWSdKKx5Rqa7Ik/F1tcygNL+nnZrtF9F6F6FoX0N/j6QAAAADUxu4i4VRuR936Jb3L3qhWc6Vp+OWqEKUgN9rCX7XSXwZOl90rzpP8DVkSrpfnI42PZFl2Pxk4WiccfcIdsiScVm1vPv05lr96kG1XHetQ17aorn0s82uSv7jWH7ym+dP7ud9uJ3qpQnStC+iv9JQAAAAAaiVLwsVT+OPuVVmWLehd+hoLG9vHZ0n4suLbWD9+eU97Y3u9bKy3qg+zNLxpOj/Qqs1HKZfnaf7bgz6nmj08P6qjPpJQzkp+5Wn+e4Nsv2oVd13HWbUSfNT5lqb5r9U8h66pdmro5567ReNkhehan4H+m54UAAAAQK1kafjitK5oPeaY4+6uh7kteZwfkyXhY4puExNX5En+jHEUJdg37Xb7kDRu/akzzieo0JmE/6l2ApCdwxEWw31n8fmRJ/mTB/ouGoeiph99fWXk7yxJ/uTaf5wUh9/v977P3zJ/f4XoWq9AP8YTAwAAAKiV6hzLKd5i9OObNm06SC9za6pi38o5tVbJTub5qJ9IkmPvI1MnX7XKudqON0/CJXJ3IuPKLGltlakDfn+Kw8l1Pbd7nwvoG/OfGvC76PNqWgh+90hzLmu3syRcXfPi+ev29gO5soj+RzG6lnHlWUsbDvTUAAAAAGql+iFryn/o/Tu9zC2syZLWSVkSvqWwNvHx/Sxp/ZKUnVxVIS1Lwmflai0+SnlHlmV3lbX75saPr1pvnuVcqtpgoO+iSfi7mrbFX4wq75Kk/eAsCd+tefH87e12e/+9bYMLTp5f1yui/1SQrls0PuTJAQAAANROdUbqtP/Qm8bhWXqaShy3j8qS8CHFtNptQ/1P7Xb7jjJ4clSF2CzJX20Hh9rFuUnSeoQM3jtp2t6YJeH8Gc+h7w58Ponz/65pQfiZo8i7EEIzS0JZ87z5wKB2hdpxYuN+3SI6tbccfbIsohsUqCc8lhu/5ukBAAAA1E4e58fNwI+9N+RJ/ni9Pbva7fbBWRJOq/3WpzMdra+HODxENo9fmoafy5KwQ07WNq6uduGQyX3n/Yk3boc/83PxmYNu2ywJ3Vq2RdZ67AjeXw7NkvC1Wn/ImoT/rN7DhtE+55x0+D3KTvOXyiJ6Z1lElytYT1xcv33LkUd4ggAAAAC1kyTJPWbkR9/Lsix7qB6fPVmWLVTFV0WPKYg4XJ7FoZDV43H8wvF3yZJwhlycitiZJeH0ubm5tTL7Nq1Z+QBrp7zZfRTAWwbZuAsLCwdkSbi+jm1Rbas+zMRbWFi4fZaET9Y8Zz49qh1ktp2y/uBuMX98r4heWRZRT/F6AqITvcMjBAAAAKitLA0XzsgPv+cnybFH6vGZsabaXjVLwjWKHlMXr1T4G62VVefny72pOx7hX+I4vp0Mv3XVltPVuc1y5aaRv3SQbRwWw31rfBb80ArDuz8siMP7ar5bwReq4z7GNX67nXUbqq3ey6L5ibKIdipojz56W6K2JwkAAABQW1nSes8MrWA9K47ju+n16VbtrJAn4b0KHVO9jfBbq9V5sn24NmzYcGAat15u9e1Ux6c9F39cVTzPk/Au+XGL7bjj8KuDbOc8zn+mpm1x0RDTb02W5H9f81z5xuLicYdPynjetnn9+l4nekZZND9cFtG1itsjic96kgAAAAC1lqf5b8/YNtCfUXib4nxO8kdnSfiWQsdsFP6q82Fl/XC0N7bXV20sz2bj47I0Tedl/Y1OOPqEO2Rp/mG5cWvblocTBtnWaZr/Wl2fP8PKv2qVf813KThnkueTi046/A7dzvxje0V0RreIvqXQPZzY3mkc62kCAAAA1Fp1NvgMFgvevbS0tJ/enx7tdvvgamtvK2UV/th3aRpOzJLwAzk2U/G1OD62Meu5v7i4eOcpOHd6aBHH7aMG+g5a12JxGt40lHfypPW0mudIL4Rwr7qM913tuf2rQm/Zab6iLKJzFb4HtHV7Eb3HmxQAAAAwDdZkSfj2zP0QnIa/1fXToVqFnCXhY4obM7qlcBK2Jcmx9zES9l31YVGWhNN9iDKz51tvn+WxVJ07nSfhg/Jgj3F9dazDINu8Oo6jpm3xx4POv5UPl26ocX58O2wMD6zzHNAt1t27W0TPXNnq/TrF8L2K719w8vw6b1QAAADAVMiT8C+z+GNwnraeq/frLcTh4dWKJ4WNmY9emqb3NyL23sqHKP8hl2Y+yiQ59sgZHAJrsjT8o/7/yR9YDLrRsyT8Xy0/3ErDLw+yHdK09cgsCVfXOD8urd7HpmlCOK9zr8N7RfTLZafxrrKIrlAYX+Xq8+XoV7xRAQAAAFNjZdXLLP4gvDOLw1NkQD3lSf6kLA6XK2qIldhRp61jJ8mNR3nk2+WQWIlvJklyj5kaA7U/d3ok8V+Db/dwaT0L6K1HDqoNQhweUtd2WDlK5fJ8Y55O8/yw7ZT1B3eL+eN7RfTKshPtUCi/9egW0T95owIAAACmysLCwu2zJFw2q1uS5kn+eFlQK9WxA6fWfKtTMZwVkufkeX6EIbJ6adp6VJaE78sdcYtjTr6YZdldZ2EM5EnrV/T5quLvBtnu7Xb7kLq2xaB2aciy7N5ZGi6scU5cmWXt9iw9M3edNre2tzlaLIvmi8si+pLC+Q+j+X+9peh23qoAAACAqZMl+T/P8I/CVyRJK5YFk6/dbh8847kqbju+HMfx3YyWVcz7cXhKloRr5Yy41WNOkvCpE44+4Q7TPAbyxfzo3UVA/b2aeN5A558sW6hpO1y7tLS03wDeZw7NktbXa5wP1+RJ/uhZf45u27x+fbeItvaK6D1lEV0zowX0b27fcqSPFwEAAIDpVK3CnvEfhi92hvJkW1mt9klFDHGb2+sm4aMbNmw40KjZozV53PoTuSJWUUR/1yCKhZMoTdM71byAOeqtuotBtn8Wt5bqutPJvt57tfNT9YFKnXdvStPwCx6lN7ftlPWHlJ1mpywaby6L6NIZKZ6fs2O5Eel9AAAAYGpt2rTpoCwJ37L9s+2fJ1G1lXCWhM8qYohVF/7i8Hoj58dVxdAsyV8jR8Sqx1IaXjaFQ2FNmoS36d9+zv1ubxxkB+RJ69k1bYsP7ct9LywsHJCl+ftrnAs70zT8sqfpT7ZraW6/bmdd1iui07tF9PUpLZ7/z3mdex2utwEAAICpl6etF/mROHz5mGOOu7tsmByLi8cdniXhS3JT9F/4y3/PCPr/2u32/lka/lFuiP5Xord+ZZrGQpa0turX/qJ6Fg/0nTMOf1PTtjhjH257TfVxV52L53nS+nVP0/71lqOHlEXjuWURfbYsohvqXjzvFtHbLjrp8DvoWQAAAGAmVKuvqzMN/VAcPltt7Sojxi+E0MyS8A05KfYybkjT1iYjaW4ujuPbZUnrPXJC7PV5xxvzdIredb6rT/vavv3yqvg70H5Iwgdr2ha/v7f3nCXhz2qeC6d6mu67Czrzh3aLxsm9ovmWsoguq1nx/KpuET1z14DnAwAAAICJl6XhTX4s3h3/1W63D5YR49Pe2F5fbasvF8U+xneyLFs302Op3T642nZYLoh9jB15nh82Be8579CXfceXBt0PeRLOrudW9nt39ncah2fVPAdO82Y6eBdsnb99WTQfXxbR67pF9K1JLp73iug/t3XmH6DXAAAAgJmUpu2frrZo9GNxtWVteFe15bGsGL04bj+gKtbIQzGQgkcSPjqrY3nDhg0HWnkuBjiW/nNpaWm/uo6HLM4eox/37n1okP1Q5VBddzxKktYj+s+7VqfaEaXGOfBKb6bDt+u0ubU7Oo24txy9pCyir0xQ8fycsmhu1kMAAADAzKt+KPWD8Y9+NP6nubm5tbJidJLk2CMVz8UQ4o9nbSwtLCwckCbh3/S9GGgRPc7/sI7j4cZjDEJPH+5V/MUQnvO1bItjjjnu7v3ca0jCsVkSrq5v3+d/P2e77rHYftKR9yqXG79WFtG/jWmr9y/2OtGWXe05HxMDAAAAzO3+YbP94JqvlBn0j4evlhWj0W63D82S8DU5J4ZxHvq0nOG8GrtXeKbhLfpdDCGu25tVuOOWJ61n67u9jdZvDrIv0rT1yJq2xQ/6u8/duzpdVt8dJ1pv9BHpZDhracOBO4rGI7ud6KVlEf1vWUTXDado3rioLJp/0yuiY7Q6AAAAwK3Iktab/WB80x8R8xfLiuFaWFi4fZ6ET8k3McT4WnUe+CyMpzTJ/1J/i2GOpWpFd13Gw/ELx98lT8Il+m0vI84eM9D5KQ2/XNO2+Pxq7zFJjr1PloSLanxcw785xmhyVWen9zpRq9eJfq+7HL2x7ERfKIvo6r0ompc3rnBvPLdbrFuotpHXugAAAAA/QVgM963r+ZTD28699WyZMRzVVtNZmr9fnglbue+7PG09Xz+LoT8T0/CKuoyJ6iM4fbYPfZ3nDxpkf1TzcC3bIg3vWNUcnOeHZUn4Zm37PM0/PCsfm02b7VuOPKK3OVrsLUdP6BaNk8qi+evdIjq1V0RP7xbR1u5y4xfLovkz5UnNB287Zf0hWgwAAABgL2RpeIkfjn9sG9PfkRkDtzZL8n+WW2JU209nWfbQaR1MedL6FX0sRnUsQpK04kkfE9WZ1VkcLtdfex07qx1iBvx++aaatsWf3da9pWl6pywJ/1fj/v5ku92+o1dTAAAAANiDanvWLAnn+vH45j8kVwUq2TE4adx6ubwSI15F+Im5ubk10zaWsrj9s1kSrtfHYoTbPH9u0rd5dvb5PscFA5+rkvDpem5lH37jJ91XtZtOnoQP1rivP99ut61KBgAAAIDbslKQ8QPyzeP6LG51ZMe+S9P86fJJjOdIhvzJ0zWW0vtnSbhU34qRF9Hj/LcmeGiszeJwnn7atxXJA3+3TMK3apnrafi5n3Bba7Ikf0ON+/lL1W4N3kwBAAAAYJXSJLzND8g/FtdmWeuxsmPvhTgkWRKukUuriqqdelkcPlOdTXpjhHdkaXjL7kjCh7I0fDFLwvm7c1N7rWbl7LZpOeM1juO75Uk4W7/uVXwvS8K3V3ZbqeIC2333HT9YXDzu8EkcG9VzWv/s61zZeuMg++SEo0+4Q13bIo7bD9jju3KNd9Opnh95nh/hzRQAAAAA+tButw/dXVTwQ/KPFTXTtLVJhuxFTj2ifc+VYq88unl8N0vCf+3+IT4OJ1dndVfjr9/2zfP8sCxrt1dW+J9RrSDMknC19r1l0aD17CmYn/fPkvAf+vNW41tZnP93FofX5WnruWkaTkyS1iOSJLnHpk2bDrqtdq0+TMiy7N55nB+TpuEXVrYC/7uV8419/HOzyF89ieMji8P79M0+zpNp60WD7JMQh4fU9Qif6mijW82zJJxa4z4u2xvb672ZAgAAAMBeSNPWo6ofD/2Y/GNxRUhCkCGrV50RmiX5x+XOjSs38yS8qyp0/6SVbQNq99vfeCRD/ufVVq3afndc3G6371jruTlu/al+/FF8bXexPMlPCYvhvsOex9K0vXF3Uf3GIu1VM9721w17DutXtR11dV3GxT4fd3HKIPslT/LH17Qtzr/19+OwXOP3429N2rgFAAAAgNrJ0/AKPybfany/WtUoQ1YnS8IrZ3yl5vYsDS/JsnZWrXIdVz8kybH3SeP8hc4HDqfWdSylaXjcjH/YVK0C//eqwFftujDOvqg+xMiT/MlZ0nrr7O720HrnRL2zJPkp3k8GUECP89Zg3yXz367ps/vjP/Y+s7F9fI13o7g4TdMN3koBAAAAYB9V5wWvbF3rR+UfPz/ykmpbUlnyk+VJvmVWVzpXWxxXRfO5ubk1E9Yta6oCSZa03pwl4Xqr0OshhHCvlS3/Z62/rs7i8O7qiIN2u33IJPbN7pXPcXjmypnqs9Q3O5Ok/bDJed6Ed3k/2fcIITQH2S9pkv9lLdsiDf940/uoPpzMknBZXT/8TNP2T3srBQAAAIABybJs3e5zZf2ofKtbYYaN4YGy5NYlSfvB1Zb3M7ba/ON5kj+p2u65Dn1UbXu9csbzjJ3v3PqdOo2lDRs2HJgl4X9nbH69IEvCH4x7pXk/lpaW9rtxVXr48qz0U5qEt01C2+8+smLmnjfD2eVhbm5u7UDfI5PWe2raFqf98B7iuH1Ujd+FHT0EAAAAAMMQ4pDMXoFt1dGrVobKkpu78dzzmdm94NosDW+q8+quGz+Uyf9+ZrYHj8N5VbGzNv2ThNNnaHeP/6nOGK4+GqjxFLi2WjFfPR9moM9umIRtodO0tWma2jRLwyeyJPxxHuc/k+f5g1Y+JFlTy+dLHM6q5cchafjF6vrzPD8iTcK2un4QUY0Nb6UAAAAAMCRZ0volxfI9rjo+J03TeVly03wJp81E4TzJXx3Hxzampd+SpBWnSfjcbBRq88fXoU/StJXvLqhNe5+k4RPVvU7TPJim6Z3yNLxi+o9KyP9+Ap45L5iCtvxenoaXJcmx95miYbCmrjsDVPPR4uLinWv8TLy+2hHDGykAAAAADFmWhL9QLN/jitaz6rTV8FDzJMsWsiRcN83n/mZx+Ndq+/Np7L9qZXYWh9+o8Vmvq916+j8nvS+q4k21Wn7K58+v1uVjhr2Vpu2NU96PV7Xb7UPH2cZ5Et5b82Ml3tNebEfTlvvV6u269kmStB+WJeG/6lo8z+JWxxspAAAAAIzG2iwNb1Ew3+MKyi/GcXy3WU6Qdrt9cF23a11lfKT6QGAW+jLLsvtN+2r0OG4/YKL74MZt9af4jPPW1na7vf8sjKfdH0NM8fMzTfPnjHes1PR86jhcnqbhidOa9ytHANX2PPi6fuSXp/lT/U8WAAAAABih6lzaauWmgvkefwz/TLVt76zmR7X97JT27aVZHJ5ZfUQyS/25adOmg7IkvHJaz0ZPk/zFk9r2SRJOmNodHJL8NVVBeQanyDV52nr+lI6nclzzY5Ice2RdPyIJcXj4NCd8lrRO8m444udaHJ7lf60AAAAAwBgcv3D8XbIkfMkPlXs+y/eEo0+4w6zlRb4xT6fxrOY8Cf+yuHjc4bM85tM0nJgl4eopHK/dSfwoYmFh4fZZEs6dwrOyt6dp61Gz/gzN4lBM4zEX4+rbPMkfXcP2umzai+dz03M2fZ3iD/yvFAAAAAAYo+qsziwJPT9W7rHo+sFq9e6s5MPKSuVvTlkfXpKm4XFG+43yOG/tXok/fUW/R05aW2dJ+LPpW3Uezpjl3Tl+rI/j7DHV2eFTNmf+0zjaMo3z36rdeIizx8zGcyO83jvhiMZfGl5hZgUAAACACVCtnsqS8AM/XO5xJfpblpaW9puFXEjj/A+nrBD0qSzL1hnlN5ck7QdP24czadJ67SS1cb4x/6kpW5186awUC/uVxa0nZEm4for6+opxbM2fJfmra/Zu8I+zkuNpEj7qfXAk8ddmVAAAAACYINXqzSwJ1/jxcg+F2Di8vjr3dppzIIRwrywJV07RStk/W1hYOMDovnXtje31WRJ2TNE4vWiCtnFfkyXhk9PTtq2vhMVwX6Nmz/I0f+o0nYmepmF51G2YpfmH6/RBSbvdPnRW8ttORSM5GuMNk3gUCQAAAADMvJXzXHf6EXOP8cop7/93T8vqyTQNTzSib1ue5w+qtrifljGaJK14Ito1ybdM0S4O7zp+4fi7GC23LY1bfzo9OzqEt438GZSEskbFzj+flbxeOdrlBu+AQ93N4B3tdnt/sygAAAAATKgsCc/zY+ZPiDj8/jT2+8oOBNPQR9/JsnZmJK9ekrQeMS1HOKRJ/uJxt+cJR59whylZrbkzTfPnTPvOG4NUHfWRJeFDU/KsuzyO49uNqu2qv1WjIu3OLMvuNyt5nabp/b3/DfUjpQ9WHymYQQEAAABgwuVxeJUfNX9CUSkOvzplXb42TcLnpmD703NsM713srj9s1OywvDLY58/09aLpqAdr8/i8BQjYy/6P88Py9Jw4VQ877LWY0c2B2XZQ2t0pMGZs5TTadra5N1vaCvPP1F9dGXmBAAAAIAaqFbRVdv2+nFzz8WlNA2/MC39nSWtk6agT/4vSZJ7GL37kgfhtGn4wGVx8bjDx9WGeZ4fUR0hUPM2vK6aE4yIfciDOP+ZKTkOZWTHluRJ/uQaFT1fMlPPhjj8hve+oezy8Jk0Te9kxgQAAACAGqm2U02T8FE/cu4xrk3T8HN17+eVs027NV/B9cVjjjnu7kbtPlubJeE/6r8dbv7kcTXgFOzecdUoVx1PsywOr5uCAt9ZI2uvOh0fM2NjJEvCn3nnG/x7SxzHdzNTAgAAAEANLS4u3nk6tvYeWlyZpq28zn08BSvLvmrl+eBUbZkl4fxaF9Dj8KpxtF17Y3t9loRral0839g+3igYjOqjnjwJl9T+yJI0nR9Fe6VJ6x/q0i7txXY0S7mcpeEd3vcGGt9sP6J9T7MkAAAAANTYypbE5/rBc4/x3RCHh9Sxb9vt9sFZEnr1XWkczh5VcWeWpGl4Yt1X9o2l3WpUALyVuCFP8ifJ/gE/P9P8qVOwo8PmkbRVEj5Vkza5bNbyOEvC573rDSy6SXLskWZHAAAAAJgCSXLsfbI0XOiHzz3G+SGEZt36NYvDM2vc5t8OIdzL6Bxabry7zsXgaveMUbZXHLePypJwfY236n6mrB+8paWl/bKk9ZU6P9/SuPXyUbRVjVbrf37mngdJ+L73vIHEjizL7m1mBAAAAIApUq2yzpJwqR9A9xStr7Tb7UPq0p8LCwsHZEko63r+fJa120bl8GRZtq5aaVnb8Zi1s5G2VxLOqO0K4zS8TMYPTx7nP1/vZ1v+8RHMN3et0bP+rbOUv+12+1Dvd4P56C/P8weZEQEAAABgClVFy93n5PohdE/xXxs2bDiwDn2ZJ/kpNV4t+xSjcQTjPQmn1nbVbJo/fVTtVJ1lW9t5MQ7/Ojc3t1a2D30s/V+Nn2tXtNvt/Yf7bpEt1qg9Tp+l3E2S1iO82+1z/CDLsgUzIQAAAABMsSxuPaHWWxUPu3CXtF5bg25cU9dthUe1nTC7dym4fZaEi2paGH7dyObEJJxe0zY6q+pjmT6K52Y4uc7PtThuP2CY7ZOmYblGK9C3zlLupmk40bvdPsU1SRJOMAsCAAAAwAxYKQbs9MPoHrZETlq/Psn9lyf5o2vatp8e9kpIbi6Nw7NqeqTCmaNon+qs9SwJ36thG12ZJO0Hy/DRqHYmyZJwQX13dAhPHOozKW09vzbtsbF9/Iy97/2+97p9ijPMgAAAAAAwQ/K09Vw/jO75jO40beWT2ndZEj5Qw9Wyl2dZdj8jb7ROOPqEO2RJ+FYNx+BlI5kHk/wZ9dzJIfyq7B6tNM7/sMbPtD8Y6jiKw+vr0hZJcux9ZilvsyR/jXe6ff1YabZyBgAAAABmXp6GV/hxdI9xfnU28qT1WRy3j8qScEMNV/X/ihE3HmmaP6eOY3Bx8bjDh9w0a6pt0Ot3zER4m6wew/Myzw/LknBVLZ9naXjTMNsmS/KP16Qtrl9YWDhglvI2S/MPe5/b5/hQ9bwwCwIAAADA7FiTJq03+nF0j/GxSdtyPEvCn9Ww4Pdvhtr4JElyj2pXhbrlTZK04mG2S5q2HlnDOamXZdldZfV45En4p5oW0D8x5OfS+TV5Fm2btZzNknCud7lBHIOQP90MCAAAAAAzZGlpab8sDe/wA+ke4wWT0lebNm06KE/CJTVrv+/neX6EkTZe1UcMNTwH/aQht8nb6reTQ/5k2Tw+WdZ6bE2fY91htUkcx7fLkrCzJgX0/5ylfK0+AKzjx1MTGlfli/nRZkEAAAAAmCErP4B/zA+ktxrXpWl74yT0U1U8q+FZzc8ywiYgd+L852tXLE5bzx9We9RxVX6ehA/K5PGqPmLKknBpHZ9j1cdyw2iTNE031KYd4vC6WcrXEMK9vMMNdCeHL1ZzgJkQAAAAAGbI8QvH3yVLwuf9SHqrcW6apncadx9lcXh3zdrtm35sngwrKxEvqlmx4q+GNpaS1m/WbCxdnWXZ/WTy+OVxeH09t6BO54fRHmkaHlejdnjebOVqfpz3t0F/FNh6uVkQAAAAAGZMtdV2Fofz/Eh6q3HGOPumjitmkyScYFRNjjRpvbZWYy4O/zqstsiS8L81m3/+WAZPyDhKw8/V8RmWJO0HD6U94vy36jOntDoz9U6XtH7Fu9vAY2c1B5gJAQAAAGDGJMmx98nScKEfSW/tR9PWI8fVL2maP71m202/12iaLGkafqFWK/2GdF5xHLcfULO5p7ewsHB7GTwZNmzYcGCWhMvqtwK9lQ+jPfI4vKo27ZBli7OUq3nc+hPvbkOJby0uHne42RAAAAAAZkyIw0OyJHzXj6S3jNZXFhYWDhhHn6RJ+GitCugb89RImizHHHPc3bMk3FCjPPrSMNqhWs1ds3nnN2XvZKnOo6/b8ytP8scPqS3eW59V+Mk9ZilPs6T1Zu9tQ9sh5X1zc3NrzIYAAAAAMGOSpBVnSbjCD6W3KEKk+e+Nui+qlU5ZEq6vz9nV+YeNoMlUq63L03DhkNrgazWacy6K4/h2Mney5GnruTX8AOyk4Yyn1tdr0gaXzeB8/1nvbcPc1SH/NbMhAAAAAMygLGs9NkvCdX4ovVlc0d7YXj/Kfqh+pK3VRwZx3jJ6JlOttltOwnWDXuEXNoYH1mvVcOvZsnYSn43trIYrZp8yhKZYmyXh6lne0WKi8zQJ3/bONtS4qtqxyYwIAAAAADMoS1q/VJ3/7YfSm62MfdNI+yAO76tP++QfN2omfjzXZqydcPQJdxjk/adp/pwa3f930jS9k6ydPCvnoNdqh5Y0Dr866HYIITTr8zFKeNcs5Wi73b6j97URjKskfK6aD8yKAAAAADCD8iR/hh9KbxY35Iv50aNo+3a7fXCdCjVpGk40YiZXlmUPrdVYy7K7DvT+4/CZGt3/C2Ts5EqT8NGanYH+jEG3QUhCqM8HBK2Xz9R722J+tHe1keXWn5oRAQAAAGBGZUn+Uj+U3uw82beOot3TtPWoGrXLxZs2bTrIaJlcCwsLB9Roy+Vdi4vHHT6oe6/+rRrtpnF9HB/bkLET/Ux8dc22cH/moNsgT/JTZvkDgkmWx/nPe08b3UeV2cb28WZFAAAAAJhNa9Kk9Vo/lP4odiZJ+2HDbvQsyf+8Rtu3/7lhMvmqs4DrklPVFtEDu+84FPU5JiJ/v0ydbHXbmSVPWr8+6DZI4/yF9fmAIHvMTOVnmv+297SRxvnHHHPc3c2MAAAAADCDlpaW9suS1jv9UDq6M1WzJHy+NsXOjeGBRsnky5LWm+uSU0ly7H0GOJb+rkarZTfL1MmWx/lxtXpepflTBz+X5G+ozf3n+YNmKT/TJP9L72kj35nonWZGAAAAAJhRGzZsODBLwof8UHrjKvQsy+43rLY+fuH4u1RbOdekLT5tdNRDloQ/mMWPMtIkbKvJfX9/YWHh9jJ1suV5fkTNtnA/efBzSf7xujyrZ21MZUn4d+9o0/GhCgAAAABQE4uLi3fOktaZfizdHX82rHZO09amGrXDqUZGPaRpeGJtihGL+dGDuOdqJXuNjkJ4jSythywJl9angN5aGsL976jJ/V8wg7n5Ve9nY/lQ5fI0Te9vdgQAAACAGZXn+WFZ0vq6H0zDpcNa2ZYm+Ytt387A8ypN71+XvBpUISJNwy/W5qOBOD9OltZDFoezZjWvNm3adFCWhBtqcv+fnLHUXJMl4QrvZ2OL/6t2azJDAgAAAMCMCiE0sySUfixt/dIw2jdLwn/U5Cz4s42G+mi32/tnSbimFmMry9YN4p7zOPxNTeaTq+I4vp0srYcszv+7Ls+pJGk/bJD3XqsPcZLWG2cpL2t3vMAtVnBPxXthGl5ihgQAAACAGZYk7QdnSfjujBfRh3H+d7WC7Duzvo09Q1Hl1rV1yK12u33oIG44TcLnavIxygelZ33kSfiX2jynBvQxyg9lcftna1NAj/MXzlRebszTmr5LXZcn+ZOn5L3whpCEY82S8P/auw9wTar6cMB3VyyoYIldg8Sua1Bzhbtz2kyWdePaMa5GjQULxhZLNMaOvRvUWLEQTWxYE2tssWADzT8qVkSjqIjYQJG6/p/ZvciKrOy99/vufmfmfZ/nPDHAllNn7vzO+R0AAACAEStNCSNPF7q1W+iuMck2DWHDNetJs93ewiyoR0rpcrWMrU37bbrUSuvbn+iuZcNAjvnRRmg9YsgvrmUudV136UnWPYf2gdWkrw/53mMalznkv6309Pnxc9szhhwxkHfDE5qmubyVEgAAAABGLId86/700GiD6E158CTbMzXtQbWcslpYWNjbDKhHRamXt87Nza1d8dpU0WnM0pSbGaH1SKE8vpKxdebE15GmfW5F97+3o3ofi+2TKn2X+nD/9+/fKWIo3xnIu+HbrZQAAAAAMHI55vuNNoAe84cm2ZaxyU+spO5fMvLrklKXarkPfCLrUj0nZX8yiQ0DrOJcasrDKhlbJ0687qE9spqNKaX86ZjGZQzt62p8j4qhPXyH51TXb6Iaxjtie7DVEgAAAABGLoXy9JEG0c/sU2NPrB1j+fc66p1fZdTXJcZyx0rm1A8mUd/clJdUEmT5T6Oztudd+6BKTsEeO4W6H1PJOnLG2DamxFA+XmUAPebHnu998qUDOYX+q5TS9ayYAAAAADBuawZ0f+VS71n9m0k1YgrlC05WMQ2xKY+qZE4dPZH6hvKRSur7dKOzLvVkXcmfnHTdUyg/rWRefWNs4zKF8r0hvENt2m/TpVIo3x7IO+LR8/PzF7VqAgAAAMCI9R8JUygfGGEQ/UUTasI1204s1XFn858b8XVJIb9sTCeyUyw/quOUYrvF6KxsLjXlnnUEJsu7J1nvjfMbL1PR9SrvH9OYXLdu3cVSKOdUGUBv8gHnr08JZcNwUrmXp1k1AQAAAGDkYox7xVC+OKoAelM+O4m2SyntU0mdtzZNs6fRXpccygfrCHyVV6y0rl3XXbae9MXx+kZnbXMp/00dgclyxCTrHUJ303qezfllYxqTfarwWt+huq67wgW+T4b28IG8J57T3+1u5QQAAACAkcs5XzWG8p0RBdFP37x588VX2m4hlE2V1PcEo7zCeRnKtyoZX4eutK4ppZvUEljpT44anXWJsdylks0oz5pkvVPTHlTNqeaYHz2q9b3Jf1Xp+9MpO6vTwsLC3rWmpb+A8v2maS5v9QQAAACAkWua7joplJPGEkQPod1/pW2WmvKwSur730Z4Xebn5y+ZQjm7khTuh6y0vjGW21Uyl35gdNYnhfbgSubSgyZc70dWdK/2X49pTObQPrDO96f2/13IWn6r4bwrtkdaPQEAAACAuZS61J/OHkcQfeWBinruqC6vMbprm4tpoZ6U5u3mFde3KQ8e0/UPrPJ8Cu2DKgki336S9c5NeUk1AfT1+S/GNCZj0z630nend17ofIvlXwf0rngPKygAAAAA0Aey7jmSU+jPX3FbhfLRSur6eCO7LjHmv6snm8OGa654LsXyrEoC6G83Oit8roXyD3VsRuluPuF6v6eie7UvO6o1PpS31fnulF9wYXXr+7K/OmYg74qnloVyXasoAAAAADAXQ37xCE6grzg1Zwrlh2NJsc3qSiG/qpbgwtzc3JqVrzntGyoJHr3W6KzwmdbkJ1ZxCjvnq050HWnKsZWsIz8b3xpfvlDju1OM+SG7VL/U3nYo74s5lM/Pz89f1EoKAAAAACPXdd0eFZ2uXm753EraaOP8xsvU88G73MWorksK5X8qGV9HT6K+OZT3VjGXQn6x0VnlfHp2BePrzLm5ubUTrPaaFMqvK9nkdcwIx+TP6wygl1stYV1/84DeGQ+1kgIAAAAAc03TXD6F8u0BB9BPXEn71HRHdQhlkxFd3dw7p4qTeU05YhJ1TqF8ppIA+jOM0Pr0mQMqyG7w3UnWudu/u0o1z+NY3jqm8biY4rzKd6eyvtxwCfW8Qv+uNZB3xnNyk1urKQAAAAAw19/H2p+KG2gAfWvTNHsuv23KveoJoLeN0VyPHPLtK5pHj5lEnVMoX61iw0Bsn2SE1qeSu8CPmmSd+3W/onu1nzOq8ZjS/Fjem/oMOIN5b2zK8QsLC3tbUQEAAACAPvDwmMGeQk/pestul1ieVc2JsaYEI7keOZZ/HmI63wtZZ06sJID+VCO0yufY0RUE594y0To35W4V3av9d6Na40O+U6XvTT9YTn1jKG8bzrtjfr0VFQAAAADorU2hfHiIAfTc5AOW2ygptO+sJoAeSjGM65FC+XJFpxEvP6E6/9pJWaY3p/J3Zz6I3LQvnPA68njXjMymHNp/rDR4/Mll1TfnK6ZQThrQSfS7WVUBAAAAgLmm2XD1HMrJQwugrySwnEL5WkX13GAU1zLXuuvUM4far0yq3imUs+s4gV7+2SitTwrlN7M/tvIjJlrnpry6mmfUQrnumMZjbsrLq3xviuVflz8H23sM6P3xF936bl8rKwAAAAAwl5r2oKEF0Jd76m1+fv6iNd0NP6k020xfjvnR1Yyr0B4+iTpv2bLlIhWdPHy1UVqXruuuUElGlDtM9JkdykcrmVfnbN68+eKjep8K5QOVvjcdurJ615O5Zxc2E3yqf3ZZYQEAAACA/t7vdwwpgB5jud1y2qFpuhvUVdf2YKO3kjnWlM9WcwVCyPeeRJ2bptmzovn0HqO0sjmV0nwVYyulm0yy3jGU71Qyp/5vdGMylG9W+s50rxWNyRivlkL52YDeI59ghQUAAAAA+kDEPqkpvxpQAP3Oy2mHPvBeVz3zY43e2RfChmv2pzHrGVfx+pOod4xxr4o2oxxjpNYlxnLHGsbWxvmNl5lUnRezpJxdR1aH/LGRDcm1KZTT63xnavME5uN9BxRAPyuEtrHKAgAAAABzKeTnDObjZ1PuuZw2iE1+eGV1fZGRW8PcKk+uaEz9cG5ubs0k6j0/P3/Jiup9gpFal0rW659Oss5N012nojn1mlGt8/1GxErfmZpmw9Un0gYxv39AQfRvLyws7G2lBQAAAICRW7xP9pSBnEC/+3LaIDflJZWlcH+nkTvz1qaQvzvGu8AXT8vWMp+29ifmDdd6pFAOG1tmgxjbW0iDPZtyk9tK35lO759TE5mT2zcRnDKYbEahfZ2VFgAAAADoA8gvH8SHz9Tedjn1T015X111zccZtbMthLKppjGVm3yHCVZ/TU11D6Hd34itR7+BqIIA+pGTrHNsygOGvpGt4vF4cKXvTF+b6HtkaB84oFPov80h/43VFgAAAABGLqV0kyF88CyhlGXVP7Rfr6yu53Rdd2kjd3blUN5d00nESZ/CTqGcWVGg5N5GbEXPq1C+MPNB5KZ97oTr/OyKNqSM6g7pHNunVnrlzfsm3BRrUswfGlAQ/echbLimFRcAAAAARi6F8tXqA+hNudkyqr62DyDWl66+W2/Uzqam6W7Qb3KoJ4BcPjiF9eSnFc2nw4zaeuRQTp79OdU+cKLzKZa31jKfFhYOvPKYxmMM7RuqfGeK5V8m3RallD9LoZw6oCD6J7Zs2XIRqy4AAAAAjFgK+Tn1p3BP11pyvbff3VnfHZ1NfrhRO5tyU46oazy1fz/x9aQpx1fUBl8wauvQZ96o43Rvd8vJPp/L0ZXMpV/3J5HH9e5Ujqr0nekfptIeTXnYkFK5x5gfa+UFAAAAgBGLsb1F7R86u667wlLrnVLX1Vnf9j+N2tnTLXTXSKGcUdN1AP0mkomvJ6F8saI2OLvrussavbMv53yjOoJu8fqTrHdFGR2+PLYxmWL5UZ0p3NuDptQkfVafTwwoiH5WSmnB6gsAAADA4K1bt+5iMeaHpJTmtcZ5mqa5fApla8UfOc9YTqrNGMt9K63vKfPz8xc1cmdLCuU1lY2jj06pHT5aUzvkkG9t9M6+GNvNFYynrV3XXWJSdd44v/EyFd2r/R8je2/as9b3phC6m07tOZjS9VIopw0niJ6PizHuZQUGAAAAYKjWpqa9a/8hbNsJsdC+QZP8vhTK9yv+yPm15dQ5hvyMiu98D0bt7Aihu3F/mrmuU4jlPtNZS9o3VRVAb8rLjeDZF2P+uwrG0w8mWefSlJtVNJcOG9N4rCUjwgWVfmPGVNsmtP84qFTuoT3cCgwAAADA4KT13cb+ntvzn1heWDjwylpnh3YK5TPVfuBc5sm3HMqbq/2g27QvNGpnRw7lvZWNod9MK4iSQnl+ZW1x4nIyWLDKz6hYnjXzYymWT012Xcl/XdFz+GGjGo9Nuk2N7w45lJNXoXnWVnw//E6uZih3tgoDAAAAMAi5yQdcSCrhJ2il88RQ3jW2YHIO5fMVf9DtTzquNXJnYq35qwqDKG+eWnvE/IjqMjqEUozk2ZZCfmMFJ1XfMOG59OiKAoy3G9W6H/JDKw2gf3412qdpuhv0G7UGFET/WUppHysxAAAAANWKMV4/xfLWC7ubsj+Fs2m/TZfSYtul0B5Z74fN9kHLq3P5ac0fdEsoG4zc3atfQ2Io36kviDK9e79T026pbj7F8gqjecafUbF8aubnVWyfOtnncn5ZRfdq33hU75pN+8JKM/a8ZfXeK8sThpXKvXxcthIAAAAAqtM0G66eQnllCuWsXT8xlR+i5barOYAeQtm01Pp2XXfZ+j/o5tcbubtXpUGUb08zCBBjd/MK2+TUhYWFvY3oWX5GlRMq2Mx18ETrHPP7a5lDXdddelRrf61Ze2J51mq1Udd1e6TQHjOkIHqfFcJqDAAAAEAVtgVCt9+N+utlBCC/Oz8/f1GtuO1j8Edq/aDZ7d9dZan1TSnND+Bj7hk556savbtpzsRufQrl7AoDAI+YbrvEvS4sA8hsnspvH2hUz6b+OV3FXEtdN8l6p1C+Ucn8OXFsYzKF8qVKM/YcsprtlBfyfv27yoCC6Gf2V0RZlQEAAACYWU3T7Ll4P+hPV5jO8p5as0+7XI6t9BT2ccupb4zlzgP5mPt0o3f1LQaJv1HheDll4/zGy0x9PQnlBxUGlr4yNze31uiePSFsuHYVm7nWd/tOsNprUyinV3Kv9qdH984UyilVvjOs7zau+vOyyU8Z1Cn0UL41towLAAAAANRhbX/H7gTvHf7q2IMm69atu1itJ4RyU45YTp1TU/5pIB9zf9Lfw21ZWF39PbJ13uGaX7wq7RPKR+u8H7jdYnTP4Hxb322s4WRqn7J6UnUupfxpRWnB/31M4zHnfMV6r7zZcO3d9I75pUEF0ZvyciszAAAAALNiTWrag/qA9+Q/hOU7jLlh8/r8F/V+yFxeOtIU8qsG9DH3CZaH1dOPuUrHyTlloVx3ddqoHFZnAL0c6xT6DD6jQnv/CsbPtyda5ya3Fc2dp43qGZDSQqXPgLN317VFpSk36zeZDOsker691RkAAACA3SqEtkmhfGKKH8I+N+b2XUyFX+cHzJxvtJw6p1A+PKAPuaeEEK5kpZi+GNtcS1rlCzgl+o7VaqcU2ntUO5+acjcjfcaeUU37zArGzocnPIcOrmjO3GdM4zE17V3rzEBSvrNb2y2UZw8pgN5nAIoxXs0KDQAAAMCqSyndJIfy3qHeCzkz7RzKf1f68fJnyz0t2p8WHNSH3Fj+xYoxXaWUP0uh/LjSMbK1X09Xra3WlxtWPJ9+uLCwsLcRP0vPqPZNsx+cbA+fZJ1zbJ9azZxJXTem8Zhj+7hKA+gf2Z3ttnnz5oun0H5lYEH0/+ozZFmlAQAAAFgVKaV9Uiiv7NNNruJHsKNG3NZn15k+s7x5OXXesmXLRYaWSjSFclZKad7qMbV5crkUytdqHR8xlLetcpOt7TMjVJvZIpbnGfUzNP+a8tnZHzPt4yZZ5xjaN1R0r/Y1xzQe+80SdT4HJrvJY5nP0oVa3zl3PvfzI6zSAAAAAExVzvmKKZQXpVDO2D0fgcumsbV5f3dpxfdP/s1y6tx/7B9Y8PzcU+j/u27duotZSSZr036bLjXlKySmfvd5Xsj7rfp6HsoHK26zM3dHm41BWSjXXcZzavYzPzTtXSf8bD6qlrnSb0ob0xjuT3LXGeid7CaPZbdf075wYO9fp4fQ3dTqDgAAAMDELQaoHpNC+cVu/gh29JhSMXZdd+kUykm1frBcbprl3OR2kAH07eVQK8rkNE2zZ2ryx6o+HbfMTA0rFWN+bNVzqSnH9v1vFkxODu0/ptA+chnvBxWkMU8Lk2yrFMuPKllfvjW2cZyacnyda9pkN3ks1/z8/CVTKN8c1LuX5wUAAAAAk9Sfls0hP3SWTpfFWO44lvaPTX5ixR8r37fsesdyrwEH0M8sTQlWl5XbFjwP5QOVj4ezc8432i3rS+zWDyCrw7+YCZOxPXi+LYh30FJ+XQjdjetIYx6uNOG1Z2slAfQPjmkcd123x7YrU2pczya8yWMl+veUPjvKwLIAeV4AAAAAsGJrUtNu6U8uzeBHsO/1J96G3gGLd5+fWvGdk/dbdt1DOXTAAfT+I+6PYoxXs8wsX9d1l42hfHwA4+Glu7EN96j5HvTFsjWHfCczYoXPm1Cefl6geWmpjlNqb1vBhq5fTTJ7TYxxXUXPm1eMaiyndK1q35tyvuJMtWUs/zKw96+t/XplxQcAAABgWVLT3TKF8j+z/BEshvyMgXfDmhzKe2s+VbuwcOCVl1v53JQjBh1A334q8NPuQ1+ebv/uKrO+Ru1i+VnXdVfYnW0ZQ3nbANrxtNzkA8yMpevvxs5NefmO7bnUqzdSUx42+2Ok/cpE35Nq2DRwXnnMqN5h13cbK13HTp21ttx+PUM+bmDvXyf17xBWfwAAAAB2WZ86sqK7hE+PMV5/sH1RRUDijwYr/nNF9Q/lv4ceQN9e8msneSpyDPp05ymUbw+h/2PMD5mBteaeA5lPP+gWumuYIbuu67pLpNAeeb6NPScveU7G8s9Dfyb94TOq/fuK7tXeMqpnRGjvX2lmmv+dxfYsoWyo5bqCJZQPePcCAAAA4EI1TXeD1JS3V/iB7HPz8/MXHVp/LN47eUbdp6vzrVfSBimU/xtHAL38NjflJVahXRNjuVUK5ReD6PumHNunUN/dbXrAAQf+SZ8xYhjzqf3KJO+5HrJtWRya8tkLyIzx+aX+XjmUd8/8ZpWQXzzJ9qtj08Dv7tWeH9PYzk37zCo3VIXyrllt0xTyq4b3/tX+vScBAAAAABeoaTZcPYXyyhTKWRWf4H3OsPqku04K5ceVf5j8Xp8WeLlt0G+KGE5Abxc/nDf5iVakP2pN30YplHOG0uf9qb5ZadyBZXz48qzdIzxrSlNu1q/TO7la4s3LGD9fmvmNSjE/YpJtWMOmgXNL0zSXH9P47sdwne8B7QtntU37ax12tmZUXE7PC3k/TwQAAAAAfieldLkUyrP7e2MH8AHsnP4u0iH0S7e+2zeG8p0B9MkTVjg+rzWm4Pl5J9HbZ0op+of6E8U5lPcOasNEaN8wU8+E0B4ysPn0JXfc7qSvm3KfFMqv/0ga6WctffyUU2Z/fc13mOycKV+uZC78YnRjPJTPVZq556Gz3K4xtpsHeAr9K03T7OnJAAAAADBy69atu9hioOSkgX0E+3Vu8gE1900p5c9SU44fQF+cFWO82kraIjf5wDEG0BeDV/86xGsJliut7zb2d1sPrJ9PmrUT0oubqk4fWDuf0J+0Nou264NEu5KGub8/eknrdc5XrCI4OeGTpimUUytJC/7F0T03QvnJGK++WQ25KUcM8N3rME8IAAAAgJHq79nNMd+vDygMOPh4Qkppnxr7J8Y2DyBt+7n3Or9lpe2xeELyt2Mt/WnrrusuO+Y1a9N+my7Vf9ROoWwdXv/mO81im6dY3jHA+fTL3OS/Gvs7QIzd+hTK13apzdZ3G5fye/eb12oYC30K6km158LCgVeu6F7tt41rrMe9qn025HyjWW/fjfMbLzPAnyW21rB5AQAAAIApSKEcNYrgY1OO79Og19U32zICnDGUj5AppZtMYLw+bcwB9MXyf33Qa4zrVW5ym0L5xkAzDLx1Zts95NsPdC6dnUI5dMuWLRcZ21zquu4SKeTnLLbBrrVXStdayp8RY7lLBZuSTp5kuy5uSKgjKBvL80b1vpvSTWp9f5qfn79kFW3cpNsM8DnxY9d+AAAAAIxQCuVF4wk85u82TXedWe+T/pTU0FJhxlDeNZG2Ce0bBNC3ldNjzA8Zy73o21NB59cPOLPAyf3J1Vlt/z7A3G/cGPCz4ZO1ZilZ1nO/6W65jI0oZy31CokY82Mr6P+jJ9u25W4V3fH8oDG97/Z33Ve6Rv2wrp8r2jcNb4Nbfv9Y3rcAAAAAWFSa8ucjCzz+tL9He1b7YzHl7TeH1u4htPtPon22BboEz3fIrJA/FmO8/lDXp3Xr1l0shfIPKZSfD7sf2y2z3heVBENXUn4eY/67ubm5tUOdT/0GshzKu5ebxWXJYya0h48t80MK5Qn1rDvdLcf0vptC+8hKs5N8qqZ2PuCAA/8khXLi8J4R49pwAgAAAMD2D76fGVng8czUlIfN0mmS/l7rGPKLl5ROt57yngmO1RMEzv/wNHqO7ZM2b9588QEtS2v79M85lG8N/l77pry8hg7puu4KKZTfjGA+fSHG7uZDesaXUv50MdvM6Stolw8v9c+NoXykgv5+9oTfp15TzVhP6XpjetfNTXlJpRkyXl9bW8dY7jzAZ8Nv+k3HfmoEAAAAGJHUlPuMMvAY84f6wMLubPvtqZHbg4d5Wud3H+kXJtFWfYA4hXKOgPnOryjIMd9vqWmWZ8yaGMsdUyhfGscaVP63aZo9a+mcKk4UT+hu9L6uTbPh6jU/28tCuW4K+WUplDNWfg1He/jSx0v5zsxfL9KUB0z2fSp/rJIxfs7ANl1deN+E8p4qr8Bp8lNqbO8YytsG+Gz4ctd1l/CTIwAAAMBIbNpv06VSKL8caeCxr/djVvuDWB84j7HcPYX268Nu3/adk2qz7cEggfJdCKQfl5pyzz79eS1rUB/I6YP/KZSvjif9fvlVWV9uWNOzok8BPtAsGTsrp/UnlEMIV6qom9bE2N5iMVg4sQ1HfQr/pfwl+o08NYyVEMqmSTZ+v5GpkrH9vbG969b6fMkh37vG9s45XzGFctIAnwvP95MjAAAAwIj0aYTHHHTsT8rl0N5/2qdB+7shc8yPSKF8YwypxUPYcO1JtV0f6BAcX9Lp5h+lUJ6eUtpnVtedfnzkpn3moDMwDCwokkJ+4wjn0xl9GuWc841mtl9S2qffDLZtA800npGx3GUpf5/FzRYz37f9xqxJ9UEtmwYW33k+PrLX3DUplF/XuP6UUEq1P1uE/LcDfB5sjbHcyk+OAAAAACOR1+e/EHTcVn7SB/RC6G48qbbtT/jnkO+UQvumkdwhvJh2tH3uJMdoCu0hxufy0lGn0P5n/yF74/zGy+zutaa/S7s/bb54P/LWkfbJa2p9VvRr44ivUtjap+iOsdyrX9d3d1/0d1inpvxTDuXzU9/w0eQDljZOqtjwNNE05rVsGlhMyf+6Mb3jxhivVuu60y1016i57ftMRAN8Fpy4sHDglf30CAAAADASKbTHCDb+XorlY/sgcA759n0qyl1tx4WFhb1jbP8yhfL41JT3LaYBHlv7ndi3wyTH5+JJZeNyhVkBtqV2bsqDY4zXX621ZXvQtX1kivlDKZSzRt4HR9V+93B/GttcKqemWN7aX5fQbwpZjXbvuu7SqUm3SaEcttrpqJdaxxjz340tjXlNWVJybJ80pvfbvD7HWp/Zc3Nza6tu+5yvmkL52QAzV73LT44AAAAAIxGb8gBBkT9+Oj2F8rnUlLenpry6T3sfQ35xf5p0WyAllKNSKD/WTv3H+Xy/SY/PkaaOnnoAaXtmhPaRfZrYlNLlVtpPfaAtpa7LMT86hvK2FMoPtPPvyve7/bur1P6sCGHDNceUTWNXsjzEUL6Ym/KS1JS79SfDu67bY0XP4xj3irG7eQrtwSmWV6RQ/mc3bj45ZenvE+1zx5bGvJJNA+deIfG3Y3q/TaG9R6VryzcG0f5Nuc8w1/72ED89AgAAAIxA/8E+hfJLwRBlZR/my6encWIqhfIZ7btK1xiE8ukUy7+nUF4Um/zE7YGh9pD+3u5tAcLt//uh27IshPKi1JS39BtIcigna7+dltNSSvNDeV7kWJ6nTy/s3vTy1dSU/+g3XKVQnhab/PDtV1H8XnlkjPmx/anyHMqbUyif6DdazFiQ6P8tfb1uj5z5Z1VTjpjsMyo/p5rn9Pocx/R+m0J5cpXrSMzvH0wfxPz+Aa7zv26a7gZ+ggQAAAAYgRTyywQ+lJUEjWKM66YzNsuJ2lep9+7scrdBPStSupyMGyMpsbxjGev1Fyqo25Mn+4ya/U0Dvwug53zVMb3b9pslKp1/Lx1KHzTNhqunUH4+wDXyC+vWrbuYnyABAAAABi4v5P0EDJRlp8Rt8hOnMS6bptlzWxBSGyt1licP8XkRY7mXvh1Fef5Sx0YVgbKm3HOS8yGF9phK+vM3c3Nza8b0btun66/znao8aljPjHquOVhayc/xEyQAAADACKRYPiVgoCyjfGlap3DK+nJD7atUWl454MfFmhTKR/XxwEtTHryUQXHAAQf+SRXBydjmib47hfKzSvrz2NG9187ctQi7fFf9Xw/wmfFfA1wnz8lNPtBPkAAAAAADl5p2i6CBssRydkppYVpjMsZ2szZW6gt+lHd3XbfHkJ8X/ZUNi/d96/OhZhaJ5VZLGxPdzWuoV7fQXWNS82Dj/MbLVNSn7xnTO+3mzZsv3gc4a5x7pSk3G1p/dOu7fVMopw5wrTyh3zzkp0gAAACAAduyZctFUsjHCRwouzt1+7lSaB+knZWq5kQoH++67hJjeGbk2D5Onw+3NE13g6WMhxjLnSuo1+lzc3NrJzYH1ue/qGdtyi8e0zttSul6tc69rusuO8g+Ce3fD3K9jOUdfooEAAAAGLjBftxSplE+0W+6mO54zM/RzkpN1xkMNfCxE2v7dUC/D7JsXepGkBjzY2e/Xu3XJzkBcsh3qiYzRsyPGNX7bNPdstK591PPjCozdtzXT5EAAAAAAzY/P3/JHMrJggfKhZSfpZT2mfZ4TLG8VVsrlZRvxBivNrZnRkrpWgNNyzv28v0lj4WQX1XBPeDvm+T4zzE/uqJ7tW8/qrWp3gw2Rw/8mdFnBjhtcGtmU34VY7y+nyQBAAAABiyFcqjggfLHTibGWG63SmPxaO2tVFC+Ocbg+blyaO9vDAwvw8gy1usPV1Cvl072GZVfVk0AfSHvN6p1KZbnVZoO/K3D75t6Np4sMcPFMevWrbuYnyQBAAAABirGuFcK5SQBBOWC08CW563WWEyh/ESbK7N9qrN8q2k2XH3sz43clCOMhwGN66YcseT1uinHV1C3f5jwM+oD9aSYjnuN6l02lLdVOv+ePYLuWZti+dQgU7mH/Aw/SQIAAAAMmLvQlZ0ECz847XvPz7Vpv02X0ubKbJf83W59t68nxuJ8bcqxxsRgypOX0v9d1+2RQjlr9tMstwdN9l2pfLOS/jxpbGtSDOWLVQZgm/KAMfRP03Q3SKH8ZoBr5zkxtn/prQAAAABgoPoUhCnk4wQRlB1SU36967rLrtYYDKG7sTZXZrh8O6W0j6fFecr6csMUyi+NjUHc53vPpa3XG65dRb1SuskEh/zaFMrplfTnZ8e2HqVQfl5lAD22txhRHz1+oGvo95umuby3AgAAAICBirHcXSBBWSy/zDnfaDXHX0rtbbW7MqPBqGOlbb9gucl/VcVJZOWPZxtZn+PS3hfaW9RQr4WFhb0n94xK+1S0Ae5NY1qH+uBlrXOvabrrjKWfFjNXHD3MVO7lbd4IAAAAAIarP131P4IJoy9npPXdxtUefDnkh2p7ZRZPcjpZ9sfFJj/cWKk8+BPj1ZbW5+UBY0tjnlLXuZd5NqWU5iude2f3GaDG1Fd5Ie+37T1zkOtouZc3AgAAAICByk1uUyhbBRRGW85OTbtlt4y9WP5Z+yszdSo3lA92XXdpT4YLl2J5hTFTbTltbm5uzZL6O5Rnjy2NeQrtwdWsXTHfb1TrT9NuqXPu5e+O8XkRm/yUga6lp6aUrueNAAAAAGCgUsivFVAYZdmaQnvI7hp3MZR36QNldk5wtq+bn5+/qCfCrtmyZctFUixvNXaqLF9d+ntCe2QFwck3TnKM59g+tZoAepMPHNP6k0P7j5XOvY+O8XnRp3KPoXxxoOvp0d4dAAAAAAbqgAMO/JM+9amgwujKY3bnuEuhfEkfKLOxkaQc6kmwdH0q4hTKB4yh6sp7lrFef6GCej19kuM7h/Jv1fRpStca09qTm/LySq8IefVYnxchdDdNoZw5yA14TX7KNNuuNCWkmD+0slL+5Q/X9fyy8/93/WbCJT8fmvJPf/DnLeM5AwAAADCTUtMeJKgwotO2U/7Yt0tjrk99qS+U3ZzKOjXlbp4Ayxdj3CuH8nljqaKrCprykmWs1z+r4D7i+05ybOdQPl3LVSxjOwHbX7dR6fx7/Kh/1ojlWQNdV89JqeumNt6bfIcJ/B0/dwHr+gVujCpNudmu/t2aptkzhfLznVwVAgAAADAMUrmPJHgS2yft7rEWQriSvlB2c/l+CO3+Vv6V2zi/8TIplM8YU9Xcl/2IpfRv0zSXr+MU9mQDWCmUE92rPavvq+WblZ5AH/WGrc2bN188hfYrA11bv5dSutw02m21A+gplJfu+lxs77GzDYrejgAAAIDBWFhY2DuFfJwAw3BTVeeQHzoLYy3Gbr3+UHZjwOmTCwsHXtmqPzmb9tt0qdTkjxlbFQTQQ779Etfrm1eSxnyfSY3n+fn5Sy5e71BBUDZ/bGTLzdoUyulVZv+J3fqxPytSSgt91oRBrq+xvHVqz9eUrnVBJYb28POtg9e7oP+uaTZc/Q/64vcD6DvOqV/0a+Au9efvP/dPF0AHAAAABmvxjsLTBBkGV87OMd9vVsZZatq76hNld2wiiU373K7r9rDaT16fzj2G8hHjbMYD6At5vyWu11sqqNcZW7ZsucikxnLO+UYVbQh67ZjWmX6jRK1zr8++40mxLePVCwZ7RVIsd1/NtsyxPG/HP38p1zn8fgA9fzKH8q0dsiXccxfm4rV22Gh0WgrtkQLoAAAAwKCl0B4syDCocmqM5XazNcbK4/WLsrqnbsvJOeRbW+Gna926dRdLIb/RmJvlAE/ca0nrdVP+qYJ6fWOS47hfK6rpzyY/cVTvqKnrKk3f/qu5ubk1nhK/uzf7m0N9526a7jqr1ZaTC6CXT+TYPm7H//9C/+ymfeYOp+//NYX8KgF0AAAAYPBSKIcJNAyi/CClND9z46spr9Y3ymqmbC+l/KmVfdWsjU37QuNuJstJy3gfeGUF9frAhJ9RD3bidVbfT6vd5Pklj4bzlKaEFMo5A03l/qlJZsT4YyYZQO/2766SQjnzdxsPc77Rzn5tX79t977/bh1qswA6AAAAMBZrU2jfKdhQdfmfWQ0aplA+qn+UVSj9h+BDV+tDNuef5+0hfWpt43CmTsF+dsn9GPOHKqjbSyf8jHp+LX3aByLHtK7k2D610iwo7/ZUOF9fNuUlg816E9snrc58mFwAvf9nMZR3nVeH8ryd/tom3eZ8GUDWCKADAAAAo7Fpv02X6j+2CzpUefrlX/sUmbM6tlLI39VPypTLl0tTbmYl371KKCWF8mPjcVZK+6ZlrNfHzX4a8/KoSY7bGMrbqgnU5XzVMa0pMbRvqHT+HeaJ8Pu6rrt0asrxA11vzwqhbabdhpMOoJ8vMP6TzZs3X/wCf20s7zj/+iuADgAAAIzKxvmNlznfBxZltstvUlMeNstjqv+4l0I5u4KTmm/vPwAaUxXOgVCesJSPyExXSmkfm7FmJNAc8jOW2H1ra8giEGO540THbD3vPb8Z273afXrsSjev/L2nwR+Ksf3LFMrWgWb8OH5hYWHvabbfpAPo50/Nnpp2y/l/XQjhSjukej+zT/0+J4AOAAAAjNG2DyVNOVbwYeY/1B0bY1w36+Opabrr1NCeTdPdIKV0rRzKB42viu46X19uaNWePV3X7dGn0x/snbf13Jd936Wt1xuuXkO9QuhuOsnxmkL5aSV9+rWxrSW/F9yr6h0t3caTYKd9+sohZ4SaZttNOoC++M+ftsPVAx88/6/rT5zvsDHkyPN+nQA6AAAAMEJd110hhfYYAYiZLFtTLK+Yn5+/ZA1jKcb2FhW06Tld111i8a+8JoX24BTKz421mS0/zCHfe2wnMWuUmu6WfX8Zs7vpvuxQNiylv/r7tWuoV58tZ3LPqLhXRRvn3jem9aOaDDYXuHll9jc47i79Ke0Uyv8Nd4Nre9dptd00AuillD/bYbPb1hA2XPv3n+PnbarOTf6r834/AXQAAABgpBY/cP23IMRMnbg9rk9/WdM4ik15QAVt+/3z/737FJUptO805maq9ClEXzTtFKlMVtd1lx30icMZLt36bt+l9FUf+KmgXj+Z5PhMKd2koj596ajWjvXdvrVudKxlk+PuktZ3Gwebyj2UX4Sw4ZrTaLdpBNAX/91//S5IHtunnvvPz7ep6nt9yvfzfo0AOgAAADBi69atu1huyhECEbv/hHQfgOq67tK1jaEUyrMraN9P7PTv35R79gEbY3C3Z114a38dgFW5XjGW26VQTjCeV2/DSZ9Kf0nrdVP+adbrlUP5/CTHZQ759tWcam7Ko8a0ZuQmt5Wm8f6RFX8Xngmhfd2Qr5jZMdg8sTkxpQB6jOUuO/y7E879u6dQXrPDP3/y7/9+AugAAAAAczHmx7rLdrelbP1sbvIBtY6dPvA580GJ0L7uj9Yhpcv1J59rTSVb932i+UMxdje3Cg/lWRL3WgwAnGl8T718c8nrdcgvqyCA/uaJjskmP7yWPs0h//WY1osU2ntUOveOstpfuP4qhj4D0IDX4MdPus2mFUDvN0ynUE7aYa25db9pN4Vyyrkbec9/ql4AHQAAAGBRSl3nLttVLSek0B4yNze3tupxE8rRMx+UiO2TdqUupSk3S7F8ythcjU0N5SO1XVfAruvvB+43RxjrUy3PXmq/5FDeO/PrddM+c8LPqMOqudO+KTcb1XtnKE+oce7lUP7NKr+Lfdyk2wx4DT4rxm79JNtrWgH07f8+v+C8f9++M8Zy3x3G9Hsv4L8XQAcAAAA4V875qoIeUy+/TqEcOpT7M1MoP535YG0sd19Snbbd3dn+P2N1CqnaQ/ufIbSN1XYcQiibYihfNPYnnrnk+IWFA6+89PW6/crsb3jK95voe00o767mTvuuu+yY1ocY2sOrDKDvcIc0u7Lu5DcOOJX7cX3mlYmtV1MMoJf15YY7Bv93fB7EWO54Af0mgA4AAABwPmv6k9E7pPVTJhPw+FWfJrzfpDCUgbKYnrOGU31hqXXr74fcdj96U443fiewaSSWV+Scb2R5HaW1OeS/SaF82VxYcflajPkhyw3YpFBOnfn1OpQNkxx8KZb/raRvfzG2hSGH8sE652F7sGV91x1wwIF/kkI5ccDr8msmNiemGEBf/G+OuoC//4kX9OcIoAMAAADsRLe+2zc15T8ELFZcTkmxPCvnfMWhjZEQuptWcapv/+4qy61j/1Fx8Z5Wwb9lnJLNof3Hpmkub0WlD6Snpj2ohmsfZqyc3afb7TNj9Bvcltv4i0Gs2V+v13f7TnLQ9YHpSq61+OLYFoQU2q9XeQK9ya3lfIl93bRbBn0tTSx3mUQ7TT+A3h68q9eBCKADAAAAXIgY280plG8IYiy5fC/G/Ng+aDHcsVHuWMPJ/5UEnXawJod869Tkjxnbf7Sc1t8Pm5t8YB8wtYJyQUooJYX2yO1pZM2bnZQf95uvUkr7TKLN8/r8FxXU+Yw++8ekxlktmwYWn1VvH9kysGbxSpv65uaE5uTYpNC+acDr9U9D2HDNFa/TUw6gN02zZwrl5zv+GU3T3eCCfz8BdAAAAIALte0Ubp/OOpRvC2pcaGrPY/q2WspHr1qlUP6hgj750qTrvXiP5GE13P++eidky4dzaO8/tjt8WeFcKuVP+/uEUyj/Zx5tKz/r0wH3d8dPMpA8t/0E6EFjW69TSvMV9f3zxzT3QwhXqnSOnjHpuTkWXddd+nxB3sFdsdGP65W00bQD6Nv+jKa8/LyNO/ljO//9BNABAAAAdtnmzZsvnkL7oBTycQIdv1d+kEJ+QQjdjcc0HlIoL60gLe67plX/rusukUP+2xzKe1MoZ45szJ8ZQ/lIasqDFxYOvLLVkRVa26coj6F9QwrllyObS6emWP49pfa2/TN2Wg3cpxjetsFrpssFpxJern4jwuLGv5kvMZZ7jWnCL14B87MKyxcs18s3Pz9/yRTyc1IsPxpqEH1l63R+7I7rQtd1e+zyO/n2a7e2/bocypt39t8tZiM5d925807/u6Z95u/+Lk051ugFAAAA2DXn3mX73ymUrSMNmv8yhvZ1fdBnrKeRUszvn/kAetO+cDXaYnuq4PaQbUHl4QbTf5hCfm0O+U4LCwt7WwaZhn5jSozldink1w82y0NTjk2hvCg16TZ9QEmvA2Ozab9Nl+rWd/umlK41pKJnAQAAANimLJTrLp5SOGEEQfO+jq/sTwr29wiOve9TaL8+8wH0mB+y2u3SB5dzyH8dQ3t41fOiPyHWlLfk0D5wZ3dkwjT1m5NCaJvY5KekUD5T7Z3psfyoP13fnzKOMV5NzwIAAAAAwDiszetz7E/8ppC/O5Q01SmUo3Jsn9SnPJybm1ujm8/r7xTK6bMfQC+32t0N1TTddbYFzrYH1L+WQjln1toph3JyCuWjsWmf258wTyntY4gza/oTi7nJB6ZQDk1NeV8K5XszOpf+q09Hnpp2Swgbrq3nAAAAAACAuW2pDEN7SIrlrYsBhRoC5r9OsXxqW+AjtbeVpnrnuoXuGjX06SyenO6DgCmlhRza++emvGR7sC0ftwqp33+zLYC/PfD40tjkh/dXEHT7d1cxoqn4WXO5GNucQvug3JSXL67hJ075epEzcijfSjF/aHFjzBNiLHcMYcM19QgAAAAAALAr1pam3Cw25QEp5Fel0B7TByB2c3C1v1v3wynkF6TQ3qM05c+7rttDV+2aEkqpIIB+Tn+fci1t2o+//j7QbcHApj2oT53eZz/Ydldyf3VAaN+UQntkH7Q7t+RQPthvUunLYiDvsBjyM2JTHpWacs/UdLfMC3m/nPNVZVBgTPr51DQbrp5Smu/vGo+x3Dc2+YmLm1ZeuVhec+782Vaa8h/9tQX9v8uxPC+F8uQU2kdu2+wS8p36LCv979k/07QwAAAAAAAwUevWrbtYnxY9xnLnGPNjU1Ne3aeQXkz/ftqKg6dN+VV/qjeH8ukU8htTKE/LId+7D/y6g3bl+rasIID+fT0FAAAAAAAAVG9+fv6S/T3M/cn1Ps10DvnW/X2yvyuhPbj/v33a3P7fp9R1/UnD/gRv/2u14HTFJj9l5u8/D+XjegoAAAAAAACAqYqhfcPsn0DPr9VTAAAAAAAAAExViuVTM38CvclP1FMAAAAAAAAATFUK5YczH0CP5e56CgAAAAAAAICpaZpmzxTK1lkPoIfQNnoLAAAAAAAAgKnJOd9o9u8/L79dWDjwynoLAAAAAAAAgKlJTbpNBQH0U+fm5tboLQAAAAAAAACmJof80JkPoMfyv3oKAAAAAAAAgKmKTfvC2T+B3r5TTwEAAAAAAAAwVTGUd81+AD2/QE8BAAAAAAAAMFV9evRZD6DHmB+ipwAAAAAAAACYqhTKKbMfQC+30lMAAAAAAAAATE0I4Uqzn769/LasLzfUWwAAAAAAAABMTUppoYIA+tb5+flL6i0AAAAAAAAApiY17V0rCKD/UE8BAAAAAAAAMFUplMdXEEA/Sk8BAAAAAAAAMFWpKa+e9QB6DuXf9BQAAAAAAAAAUxVD+UgFJ9CfpqcAAAAAAAAAmKoYyndmPoDelPvoKQAAAAAAAACmpuu6PVIoZ816AD3G9i/1FgAAAAAAAABTE8KGa1eQvv233fpuX70FAAAAAAAAwNTE2N6iggD6Wf1Jeb0FAAAAAAAAwNSk0B5Swf3nx+spAAAAAAAAAKYqxfKsCk6gf1hPAQAAAAAAADBVqSlvmfUAegzt4XoKAAAAAAAAgKlKoRw96wH0HNvH6SkAAAAAAAAApiqHcvLs34He3lVPAQAAAAAAADA1CwsLe1dw//lvY+zW6y0AAAAAAAAApiaE7qY1BNAXFg68st4CAAAAAAAAYGpiLHesIIB+2tzc3Bq9BQAAAAAAAMDUxKY8avbvPy/H6ikAAAAAAAAApiqF8tIKTqC/R08BAAAAAAAAMFWpKe+b9QB6bspL9BQAAAAAAAAAU5VC+/XZP4HePlJPAQAAAAAAADBNa1Iop83+CfR8B10FAAAAAAAAwNTknK9awf3nv00p3URvAQAAAAAAADA1IbRNDQH0jfMbL6O3AAAAAAAAAJia1JS7VRBA/6meAgAAAAAAAGCqcmwfN/sB9PYYPQUAAAAAAADAVKWQX1VBAP1IPQUAAAAAAADAVKVQ/mvWA+ixaZ+rpwAAAAAAAACYqhzKt2Y9gJ5D+0A9BQAAAAAAAMA0rU2hnD7zKdyb7pa6CgAAAAAAAICp6Ra6a8z+/efltyml6+ktAAAAAAAAAKYmpS5VEEDf2nXdJfQWAAAAAAAAAFOTQnuPCgLoJ+gpAAAAAAAAAKYqNvmJsx9Az5/UUwAAAAAAAABMVQrlNRUE0F+vpwAAAAAAAACYqhjKR2Y9gB6b/BQ9BQAAAAAAAMBUpVC+Pfsn0Nt76CkAAAAAAAAApmbLli0XSaGcOeMB9DND2HBNvQUAAAAAAADA1HRdt0d/ujuF8uydl/ycFMord1N5UW7ygXoKAAAAAAAAAAAAAAAAAAAAAAAAAAAAAAAAAAAAAAAAAAAAAAAAAAAAAAAAAAAAAAAAAAAAAAAAAAAAAAAAAAAAAAAAAAAAAAAAAAAAAAAAAAAAAAAAAAAAAAAAAAAAAAAAAAAAAAAAAAAAAAAAAAAAAAAAAAAAAAAAAAAAAAAAAAAAAAAAAAAAAAAAAAAAAAAAAAAAAAAAAAAAAAAAAAAAAAAAAAAAAAAAAAAAAAAAAAAAAAAAAAAAAAAAAAAAAAAAAAAAAAAAAAAAAAAAAAAAAAAAAAAAAAAAAAAAAAAAAAAAAAAAAAAAAAAAAAAAAAAAAAAAAAAAAAAAAAAAAAAAAAAAAAAAAAAAAAAAAAAAAAAAAAAAAAAAAAAAAAAAAAAAAAAAAAAAAAAAAAAAAAAAAAAAAAAAAAAAAAAAAAAAAAAAAAAAAAAAAAAAAAAAAAAAAAAAAAAAAAAAAAAAAAAAAAAAAAAAAAAAAAAAAAAAAAAAAAAAAAAAAAAAAAAAAAAAAAAAAAAAAAAAAAAAAAAAAAAAAAAAAAAAAAAAAAAAAAAAAAAAAAAAAAAAAAAAAAAAAAAAAAAAAAAAAAAAAAAAAAAAAAAAAAAAAAAAAAAAAAAAAAAAAAAAAAAAAAAAAAAAAAAAAAAAAAAAAAAAAAAAAAAAAAAAAAAAAAAAAAAAAAAAAAAAAAAAAAAAAAAAAAAAAAAAAAAAAAAAAAAAAAAAAAAAAAAAAAAAAAAAAAAAAAAAAAAAAAAAAAAAAAAAAAAAAAAAAAAAAAAAAAAAAAAAAAAAAAAAAAAAAAAAAAAAAAAAAAAAAAAAAAAAAAAAAAAAAAAAAAAAAAAAAAAAAAAAAAAAAAAAAAAAAAAAAAAAAAAAAAAAAAAAAAAAAAAAAAAAAAAAAAAAAAAAAAAAAAAAAAAAAAAAAAAAAAAAAAAAAAAAAAAAAAAAAAAAAAAAAAAAAAAAAAAAAAAAAAAAAAAAAAAAAAAAAAAAAAAAAAAAAAAAAAAAAAAAAAAAAAAAAAAAAAAAAAAAAAAAAAAAAAAAAAAAAAAAAAAAAAAAAAAAAAAAAAAAAAAAAAAAAAAAAAAAAAAAAAAAAAAAAAAAAAAAAAAAAAAAAAAAAAAAAAAAAAAAAAAAAAAAAAAAAAAAAAAAAAAAAAAAAAAAAAAAAAAAAAAAAAAAAAAAAAAAAAAAAAAAAAAAAAAAAAAAAAAAAAAAAAAAAAAAAAAAAAAAAAAAAAAAAAAAAAAAAAAAAAAAAAAAAAAAAAAAAAAAAAAAAAAAAAAAAAAAAAAAAAAAAAAAAAAAAAAAAAAAAAAAAAAAAAAAAAAAAAAAAAAAAAAAAAAAAAAAAAAAAAAAAAAAAAAAAAAAAAAAAAAAAAAAAAAAAAAAAAAAAAAAAAAAAAAAAAAAAAAAAAAAAAAAAAAAAAAAAAAAAAAAAAAAAAAAAAAAAAAAAAAAAAAAAAAAAAAAAAAAAAAAAAAAAAAAAAAAAAAAAAAAAAAAAAAAAAAAAAAAAAAAAAAAAAAAAAAAAAAAAAAAAAAAAAAAAAAAAAAAAAAAAAAAAAAAAAAAAAAAAAAAAAAAAAAAAAAAAAAAAAAAAAAAAAAAAAAAAAAAAAAAAAAAAAAAAAAAAAAAAAAAAAAAAAAAAAAAAAAAAAAAAAAAAAAAAAAAAAAAAAAAAAAAAAAAAAAAAAAAAAAAAAAAAAAAAAAAAAAAAAAAAAAAAAAAAAAAAAAAAAAAAAAAAAAAAAAAAAAAAAAAAAAAAAAAAAAAAAAAAAAAAAAAAAAAAAAAAAAAAAAAAAAAAAAAAAAAAAAAAAAAAAAAAAAAAAAAAAAAAAAAAAAAAAAAAAAAAAAAAAAAAAAAAAAAAAAAAAAAAAAAAAAAAAAAAAAAAAAAAAAAAAAAAAAAAAAAAAAAAAAAAAAAAAAAAAAAAAAAAAAAAAAAAAAAAAAAAAAAAAAAAAAAAAAAAAAAAAAAAAAAAAAAAAAAAAAAAAAAAAAAAAAAAAAAAAAAAAAAAAAAAAAAAAAAAAAAAAAAAAAAAAAAAAAAAAAAAAAAAAAAAAAAAAAAAAAAAAAAAAAAAAAAAAAAAAAAAAAAAAAAAAAAAAAAAAAAAAAAAAAAAAAAAAAAAAAAAAAAAAAAAAAAAAAAAAAAAAAAAAAAAAAAAAAAAAAAAAAAAAAAAAAAAAAAAAAAAAAAAAAAAAAAAAAAAAAAAAAAAAAAAAAAAAAAAAAAAAAAAAAAAAAAAAAAAAAAAAAAAAAAAAAAAAAAAAAAAAAAAAAAAAAAAAAAAAAAAAAAAAAAAAAAAAAAAAAAAAAAAAAAAAAAAAAAAAAAAAAAAAAAAAAAAAAAAAAAAAAAAAAAAAAAAAAAAAAAAAAAAAAAAAAAAAAAAAAAAAAAAAAAAAAAAAAAAAAAAAAAAAAAAAAAAAAAAAAAAAAAAAAAAAAAAAAAAAAAAAAAAAAAAAAAAAAAAAAAAAAAAAAAAAAAAAAAAAAAAAAAAAAAAAAAAAAAAAAAAAAAAAAAAAAAAAAAAAAAAAAAAAAAAAAAAAAAAAAAAAAAAAAAAAAAAAAAAAAAAAAAAAAAAAAAAAAAAAAAAAAAAAAAAAAAAAAAAAAAAAAAAAAAAAAAAAAAAAAAAAAAAAAAAAAAAAAAAAAAAAAAAAAAAAAAAAAAAAAAAAAAAAAAAAAAAAAAAAAAAAAAAAAAAAAAAAAAAAAAAAAAAAAAAAAAAAAAAAAAAAAAAAAAAAAAAAAAAAAAAAAAAAAAAAAAAAAAAAAAAAAAAAAAAAAAAAAAAAAAAAAAAAAAAAAAAAAAAAAAAAAAAAAAAAAAAAAAAAAAAAAAAAAAAAAAAAAAAAAAAAAAAAAAAAAAAAAAAAAAAAAAAAAAAAAAAAAAAAAAAAAAAAAAAAAAAAAAAAAAAAAAAAAAAAAAAAAAAAAAAAAAAAAAAAAAAAAAAAAAAAAAAAAAAAAAAAAAAAAAAAAAAAAAAAAAAAAAAAAAAAAAAAAAAAAAAAAAAAAAAAAAAAAAAAAAAAAAAAAAAAAAAAAAAAAAAAAAAAAAAAAAAAAAAAAAAAAAAAAAAAAAAAAAAAAAAAAAAAAAAAAAAAAAAAAAAAAAAAAAAAAAAAAAAAAAAAAAAAAAAAAAAAAAAAAAAAAAAAAAAAAAAAAAAAAAAAAAAAAAAAAAAAAAAAAAAAAAAAAAAAAAAAAAAAAAAAAAAAAAAAAAAAAAAAAAAAAAAAAAAAAAAAAAAAAAAAAAAAAAAAAAAAAAAAAAAAAAAAAAAAAAAAAAAAAAAAAAAAAAAAAAAAAAAAAAAAAAAAAAAAAAAAAAAAAAAAAAAAAAAAAAAAAAAAAAAAAAAAAAAAAAAAAAAAAAAAAAAAAAAAAAAAAAAAAAAAAAAAAAAAAAAAAAAAAAAAAAAAAAAAAAAAAAAAAAAAAAAAAAAAAAAAAAAAAAAAAAAAAAAAAAAAAAAAAAAAAAAAAAAAAAAAAAAAAAAAAAAAAAAAAAAAAAAAAAAAAAAAAAAAAAAAAAAAAAAAAAAAAAAAAAAAAAAAAAAAAAAAAAAAAAAAAAAAAAAAAAAAAAAAAAAAAAAAAAAAAAAAAAAAAAAAAAAAAAAAAAAAAAAAAAAAAAAAAAAAAAAAAAAAAAAAAAAAAAAAAAAAAAAAAAAAAAAAAAAAAAAAAAAAAAAAAAAAAAAAAAAAAAAAAAAAAAAAAAAAAAAAAAAAAAAAAAAAAAAAAAAAAAAAAAAAAAAAAAAAAAAAAAAAAAAAAAAAAAAAAAAAAAAAAAAAAAAAAAAAAAAAAAAAAAAAAAAAAAAAAAAAAAAAAAAAAAAAAAAAAAAAAAAAAAAAAAAAAAAAAAAAAAAAAAAAAAAAAAAAAAAAAAAAAAAAAAAAAAAAAAAAAAAAAAxuv/AxQZlRxLcSaSAAAAAElFTkSuQmCC;" vertex="1" parent="1">
          <mxGeometry x="510" y="364.5" width="174.61" height="91" as="geometry" />
        </mxCell>
        <mxCell id="vPaj5wobRW8Uo8GPUC8b-15" value="" style="aspect=fixed;html=1;points=[];align=center;image;fontSize=12;image=img/lib/mscae/Azure_Cache_for_Redis.svg;" vertex="1" parent="1">
          <mxGeometry x="60" y="430" width="50" height="50" as="geometry" />
        </mxCell>
        <mxCell id="vPaj5wobRW8Uo8GPUC8b-16" value="" style="aspect=fixed;html=1;points=[];align=center;image;fontSize=12;image=img/lib/mscae/Azure_Cache_for_Redis.svg;" vertex="1" parent="1">
          <mxGeometry x="130" y="389" width="50" height="50" as="geometry" />
        </mxCell>
        <mxCell id="vPaj5wobRW8Uo8GPUC8b-17" value="" style="aspect=fixed;html=1;points=[];align=center;image;fontSize=12;image=img/lib/mscae/Azure_Cache_for_Redis.svg;" vertex="1" parent="1">
          <mxGeometry x="180" y="439" width="50" height="50" as="geometry" />
        </mxCell>
        <mxCell id="vPaj5wobRW8Uo8GPUC8b-18" value="" style="aspect=fixed;html=1;points=[];align=center;image;fontSize=12;image=img/lib/mscae/Data_Factory.svg;" vertex="1" parent="1">
          <mxGeometry x="20" y="309" width="80" height="80" as="geometry" />
        </mxCell>
        <mxCell id="vPaj5wobRW8Uo8GPUC8b-35" value="" style="aspect=fixed;html=1;points=[];align=center;image;fontSize=12;image=img/lib/mscae/Azure_Cache_for_Redis.svg;" vertex="1" parent="1">
          <mxGeometry x="190" y="339" width="50" height="50" as="geometry" />
        </mxCell>
      </root>
    </mxGraphModel>
  </diagram>
</mxfile>
